G04 #@! TF.GenerationSoftware,KiCad,Pcbnew,(5.1.6)-1*
G04 #@! TF.CreationDate,2021-03-30T15:03:47-05:00*
G04 #@! TF.ProjectId,ControllerPCB,436f6e74-726f-46c6-9c65-725043422e6b,rev?*
G04 #@! TF.SameCoordinates,Original*
G04 #@! TF.FileFunction,Legend,Top*
G04 #@! TF.FilePolarity,Positive*
%FSLAX46Y46*%
G04 Gerber Fmt 4.6, Leading zero omitted, Abs format (unit mm)*
G04 Created by KiCad (PCBNEW (5.1.6)-1) date 2021-03-30 15:03:47*
%MOMM*%
%LPD*%
G01*
G04 APERTURE LIST*
%ADD10C,0.150000*%
%ADD11C,0.250000*%
%ADD12C,0.120000*%
%ADD13C,0.127000*%
%ADD14C,0.200000*%
%ADD15C,0.075000*%
%ADD16C,0.015000*%
G04 APERTURE END LIST*
D10*
X58285714Y-153464285D02*
X58190476Y-153559523D01*
X57904761Y-153654761D01*
X57714285Y-153654761D01*
X57428571Y-153559523D01*
X57238095Y-153369047D01*
X57142857Y-153178571D01*
X57047619Y-152797619D01*
X57047619Y-152511904D01*
X57142857Y-152130952D01*
X57238095Y-151940476D01*
X57428571Y-151750000D01*
X57714285Y-151654761D01*
X57904761Y-151654761D01*
X58190476Y-151750000D01*
X58285714Y-151845238D01*
X59142857Y-153654761D02*
X59142857Y-152321428D01*
X59142857Y-152702380D02*
X59238095Y-152511904D01*
X59333333Y-152416666D01*
X59523809Y-152321428D01*
X59714285Y-152321428D01*
X61142857Y-153559523D02*
X60952380Y-153654761D01*
X60571428Y-153654761D01*
X60380952Y-153559523D01*
X60285714Y-153369047D01*
X60285714Y-152607142D01*
X60380952Y-152416666D01*
X60571428Y-152321428D01*
X60952380Y-152321428D01*
X61142857Y-152416666D01*
X61238095Y-152607142D01*
X61238095Y-152797619D01*
X60285714Y-152988095D01*
X62952380Y-153654761D02*
X62952380Y-152607142D01*
X62857142Y-152416666D01*
X62666666Y-152321428D01*
X62285714Y-152321428D01*
X62095238Y-152416666D01*
X62952380Y-153559523D02*
X62761904Y-153654761D01*
X62285714Y-153654761D01*
X62095238Y-153559523D01*
X62000000Y-153369047D01*
X62000000Y-153178571D01*
X62095238Y-152988095D01*
X62285714Y-152892857D01*
X62761904Y-152892857D01*
X62952380Y-152797619D01*
X63619047Y-152321428D02*
X64380952Y-152321428D01*
X63904761Y-151654761D02*
X63904761Y-153369047D01*
X64000000Y-153559523D01*
X64190476Y-153654761D01*
X64380952Y-153654761D01*
X65809523Y-153559523D02*
X65619047Y-153654761D01*
X65238095Y-153654761D01*
X65047619Y-153559523D01*
X64952380Y-153369047D01*
X64952380Y-152607142D01*
X65047619Y-152416666D01*
X65238095Y-152321428D01*
X65619047Y-152321428D01*
X65809523Y-152416666D01*
X65904761Y-152607142D01*
X65904761Y-152797619D01*
X64952380Y-152988095D01*
X67619047Y-153654761D02*
X67619047Y-151654761D01*
X67619047Y-153559523D02*
X67428571Y-153654761D01*
X67047619Y-153654761D01*
X66857142Y-153559523D01*
X66761904Y-153464285D01*
X66666666Y-153273809D01*
X66666666Y-152702380D01*
X66761904Y-152511904D01*
X66857142Y-152416666D01*
X67047619Y-152321428D01*
X67428571Y-152321428D01*
X67619047Y-152416666D01*
X70095238Y-153654761D02*
X70095238Y-151654761D01*
X70095238Y-152416666D02*
X70285714Y-152321428D01*
X70666666Y-152321428D01*
X70857142Y-152416666D01*
X70952380Y-152511904D01*
X71047619Y-152702380D01*
X71047619Y-153273809D01*
X70952380Y-153464285D01*
X70857142Y-153559523D01*
X70666666Y-153654761D01*
X70285714Y-153654761D01*
X70095238Y-153559523D01*
X71714285Y-152321428D02*
X72190476Y-153654761D01*
X72666666Y-152321428D02*
X72190476Y-153654761D01*
X72000000Y-154130952D01*
X71904761Y-154226190D01*
X71714285Y-154321428D01*
X74666666Y-151654761D02*
X75809523Y-151654761D01*
X75238095Y-153654761D02*
X75238095Y-151654761D01*
X77238095Y-153559523D02*
X77047619Y-153654761D01*
X76666666Y-153654761D01*
X76476190Y-153559523D01*
X76380952Y-153369047D01*
X76380952Y-152607142D01*
X76476190Y-152416666D01*
X76666666Y-152321428D01*
X77047619Y-152321428D01*
X77238095Y-152416666D01*
X77333333Y-152607142D01*
X77333333Y-152797619D01*
X76380952Y-152988095D01*
X79047619Y-153654761D02*
X79047619Y-152607142D01*
X78952380Y-152416666D01*
X78761904Y-152321428D01*
X78380952Y-152321428D01*
X78190476Y-152416666D01*
X79047619Y-153559523D02*
X78857142Y-153654761D01*
X78380952Y-153654761D01*
X78190476Y-153559523D01*
X78095238Y-153369047D01*
X78095238Y-153178571D01*
X78190476Y-152988095D01*
X78380952Y-152892857D01*
X78857142Y-152892857D01*
X79047619Y-152797619D01*
X80000000Y-153654761D02*
X80000000Y-152321428D01*
X80000000Y-152511904D02*
X80095238Y-152416666D01*
X80285714Y-152321428D01*
X80571428Y-152321428D01*
X80761904Y-152416666D01*
X80857142Y-152607142D01*
X80857142Y-153654761D01*
X80857142Y-152607142D02*
X80952380Y-152416666D01*
X81142857Y-152321428D01*
X81428571Y-152321428D01*
X81619047Y-152416666D01*
X81714285Y-152607142D01*
X81714285Y-153654761D01*
X84571428Y-151654761D02*
X84761904Y-151654761D01*
X84952380Y-151750000D01*
X85047619Y-151845238D01*
X85142857Y-152035714D01*
X85238095Y-152416666D01*
X85238095Y-152892857D01*
X85142857Y-153273809D01*
X85047619Y-153464285D01*
X84952380Y-153559523D01*
X84761904Y-153654761D01*
X84571428Y-153654761D01*
X84380952Y-153559523D01*
X84285714Y-153464285D01*
X84190476Y-153273809D01*
X84095238Y-152892857D01*
X84095238Y-152416666D01*
X84190476Y-152035714D01*
X84285714Y-151845238D01*
X84380952Y-151750000D01*
X84571428Y-151654761D01*
X86190476Y-153654761D02*
X86571428Y-153654761D01*
X86761904Y-153559523D01*
X86857142Y-153464285D01*
X87047619Y-153178571D01*
X87142857Y-152797619D01*
X87142857Y-152035714D01*
X87047619Y-151845238D01*
X86952380Y-151750000D01*
X86761904Y-151654761D01*
X86380952Y-151654761D01*
X86190476Y-151750000D01*
X86095238Y-151845238D01*
X86000000Y-152035714D01*
X86000000Y-152511904D01*
X86095238Y-152702380D01*
X86190476Y-152797619D01*
X86380952Y-152892857D01*
X86761904Y-152892857D01*
X86952380Y-152797619D01*
X87047619Y-152702380D01*
X87142857Y-152511904D01*
X89809523Y-153654761D02*
X89619047Y-153559523D01*
X89523809Y-153464285D01*
X89428571Y-153273809D01*
X89428571Y-152702380D01*
X89523809Y-152511904D01*
X89619047Y-152416666D01*
X89809523Y-152321428D01*
X90095238Y-152321428D01*
X90285714Y-152416666D01*
X90380952Y-152511904D01*
X90476190Y-152702380D01*
X90476190Y-153273809D01*
X90380952Y-153464285D01*
X90285714Y-153559523D01*
X90095238Y-153654761D01*
X89809523Y-153654761D01*
X91047619Y-152321428D02*
X91809523Y-152321428D01*
X91333333Y-153654761D02*
X91333333Y-151940476D01*
X91428571Y-151750000D01*
X91619047Y-151654761D01*
X91809523Y-151654761D01*
X93714285Y-151654761D02*
X94380952Y-153654761D01*
X95047619Y-151654761D01*
X96571428Y-153654761D02*
X96571428Y-152607142D01*
X96476190Y-152416666D01*
X96285714Y-152321428D01*
X95904761Y-152321428D01*
X95714285Y-152416666D01*
X96571428Y-153559523D02*
X96380952Y-153654761D01*
X95904761Y-153654761D01*
X95714285Y-153559523D01*
X95619047Y-153369047D01*
X95619047Y-153178571D01*
X95714285Y-152988095D01*
X95904761Y-152892857D01*
X96380952Y-152892857D01*
X96571428Y-152797619D01*
X97809523Y-153654761D02*
X97619047Y-153559523D01*
X97523809Y-153369047D01*
X97523809Y-151654761D01*
X98571428Y-152321428D02*
X98571428Y-154321428D01*
X98571428Y-152416666D02*
X98761904Y-152321428D01*
X99142857Y-152321428D01*
X99333333Y-152416666D01*
X99428571Y-152511904D01*
X99523809Y-152702380D01*
X99523809Y-153273809D01*
X99428571Y-153464285D01*
X99333333Y-153559523D01*
X99142857Y-153654761D01*
X98761904Y-153654761D01*
X98571428Y-153559523D01*
X100666666Y-153654761D02*
X100476190Y-153559523D01*
X100380952Y-153464285D01*
X100285714Y-153273809D01*
X100285714Y-152702380D01*
X100380952Y-152511904D01*
X100476190Y-152416666D01*
X100666666Y-152321428D01*
X100952380Y-152321428D01*
X101142857Y-152416666D01*
X101238095Y-152511904D01*
X101333333Y-152702380D01*
X101333333Y-153273809D01*
X101238095Y-153464285D01*
X101142857Y-153559523D01*
X100952380Y-153654761D01*
X100666666Y-153654761D01*
X103714285Y-152607142D02*
X104380952Y-152607142D01*
X104666666Y-153654761D02*
X103714285Y-153654761D01*
X103714285Y-151654761D01*
X104666666Y-151654761D01*
X105523809Y-152321428D02*
X105523809Y-153654761D01*
X105523809Y-152511904D02*
X105619047Y-152416666D01*
X105809523Y-152321428D01*
X106095238Y-152321428D01*
X106285714Y-152416666D01*
X106380952Y-152607142D01*
X106380952Y-153654761D01*
X108190476Y-152321428D02*
X108190476Y-153940476D01*
X108095238Y-154130952D01*
X107999999Y-154226190D01*
X107809523Y-154321428D01*
X107523809Y-154321428D01*
X107333333Y-154226190D01*
X108190476Y-153559523D02*
X107999999Y-153654761D01*
X107619047Y-153654761D01*
X107428571Y-153559523D01*
X107333333Y-153464285D01*
X107238095Y-153273809D01*
X107238095Y-152702380D01*
X107333333Y-152511904D01*
X107428571Y-152416666D01*
X107619047Y-152321428D01*
X107999999Y-152321428D01*
X108190476Y-152416666D01*
X109142857Y-153654761D02*
X109142857Y-152321428D01*
X109142857Y-151654761D02*
X109047619Y-151750000D01*
X109142857Y-151845238D01*
X109238095Y-151750000D01*
X109142857Y-151654761D01*
X109142857Y-151845238D01*
X110095238Y-152321428D02*
X110095238Y-153654761D01*
X110095238Y-152511904D02*
X110190476Y-152416666D01*
X110380952Y-152321428D01*
X110666666Y-152321428D01*
X110857142Y-152416666D01*
X110952380Y-152607142D01*
X110952380Y-153654761D01*
X112666666Y-153559523D02*
X112476190Y-153654761D01*
X112095238Y-153654761D01*
X111904761Y-153559523D01*
X111809523Y-153369047D01*
X111809523Y-152607142D01*
X111904761Y-152416666D01*
X112095238Y-152321428D01*
X112476190Y-152321428D01*
X112666666Y-152416666D01*
X112761904Y-152607142D01*
X112761904Y-152797619D01*
X111809523Y-152988095D01*
X114380952Y-153559523D02*
X114190476Y-153654761D01*
X113809523Y-153654761D01*
X113619047Y-153559523D01*
X113523809Y-153369047D01*
X113523809Y-152607142D01*
X113619047Y-152416666D01*
X113809523Y-152321428D01*
X114190476Y-152321428D01*
X114380952Y-152416666D01*
X114476190Y-152607142D01*
X114476190Y-152797619D01*
X113523809Y-152988095D01*
X115333333Y-153654761D02*
X115333333Y-152321428D01*
X115333333Y-152702380D02*
X115428571Y-152511904D01*
X115523809Y-152416666D01*
X115714285Y-152321428D01*
X115904761Y-152321428D01*
X116571428Y-153654761D02*
X116571428Y-152321428D01*
X116571428Y-151654761D02*
X116476190Y-151750000D01*
X116571428Y-151845238D01*
X116666666Y-151750000D01*
X116571428Y-151654761D01*
X116571428Y-151845238D01*
X117523809Y-152321428D02*
X117523809Y-153654761D01*
X117523809Y-152511904D02*
X117619047Y-152416666D01*
X117809523Y-152321428D01*
X118095238Y-152321428D01*
X118285714Y-152416666D01*
X118380952Y-152607142D01*
X118380952Y-153654761D01*
X120190476Y-152321428D02*
X120190476Y-153940476D01*
X120095238Y-154130952D01*
X119999999Y-154226190D01*
X119809523Y-154321428D01*
X119523809Y-154321428D01*
X119333333Y-154226190D01*
X120190476Y-153559523D02*
X119999999Y-153654761D01*
X119619047Y-153654761D01*
X119428571Y-153559523D01*
X119333333Y-153464285D01*
X119238095Y-153273809D01*
X119238095Y-152702380D01*
X119333333Y-152511904D01*
X119428571Y-152416666D01*
X119619047Y-152321428D01*
X119999999Y-152321428D01*
X120190476Y-152416666D01*
X122666666Y-153654761D02*
X122666666Y-151654761D01*
X123142857Y-151654761D01*
X123428571Y-151750000D01*
X123619047Y-151940476D01*
X123714285Y-152130952D01*
X123809523Y-152511904D01*
X123809523Y-152797619D01*
X123714285Y-153178571D01*
X123619047Y-153369047D01*
X123428571Y-153559523D01*
X123142857Y-153654761D01*
X122666666Y-153654761D01*
X125428571Y-153559523D02*
X125238095Y-153654761D01*
X124857142Y-153654761D01*
X124666666Y-153559523D01*
X124571428Y-153369047D01*
X124571428Y-152607142D01*
X124666666Y-152416666D01*
X124857142Y-152321428D01*
X125238095Y-152321428D01*
X125428571Y-152416666D01*
X125523809Y-152607142D01*
X125523809Y-152797619D01*
X124571428Y-152988095D01*
X126285714Y-153559523D02*
X126476190Y-153654761D01*
X126857142Y-153654761D01*
X127047619Y-153559523D01*
X127142857Y-153369047D01*
X127142857Y-153273809D01*
X127047619Y-153083333D01*
X126857142Y-152988095D01*
X126571428Y-152988095D01*
X126380952Y-152892857D01*
X126285714Y-152702380D01*
X126285714Y-152607142D01*
X126380952Y-152416666D01*
X126571428Y-152321428D01*
X126857142Y-152321428D01*
X127047619Y-152416666D01*
X127999999Y-153654761D02*
X127999999Y-152321428D01*
X127999999Y-151654761D02*
X127904761Y-151750000D01*
X127999999Y-151845238D01*
X128095238Y-151750000D01*
X127999999Y-151654761D01*
X127999999Y-151845238D01*
X129809523Y-152321428D02*
X129809523Y-153940476D01*
X129714285Y-154130952D01*
X129619047Y-154226190D01*
X129428571Y-154321428D01*
X129142857Y-154321428D01*
X128952380Y-154226190D01*
X129809523Y-153559523D02*
X129619047Y-153654761D01*
X129238095Y-153654761D01*
X129047619Y-153559523D01*
X128952380Y-153464285D01*
X128857142Y-153273809D01*
X128857142Y-152702380D01*
X128952380Y-152511904D01*
X129047619Y-152416666D01*
X129238095Y-152321428D01*
X129619047Y-152321428D01*
X129809523Y-152416666D01*
X130761904Y-152321428D02*
X130761904Y-153654761D01*
X130761904Y-152511904D02*
X130857142Y-152416666D01*
X131047619Y-152321428D01*
X131333333Y-152321428D01*
X131523809Y-152416666D01*
X131619047Y-152607142D01*
X131619047Y-153654761D01*
X133809523Y-151654761D02*
X134952380Y-151654761D01*
X134380952Y-153654761D02*
X134380952Y-151654761D01*
X136380952Y-153559523D02*
X136190476Y-153654761D01*
X135809523Y-153654761D01*
X135619047Y-153559523D01*
X135523809Y-153369047D01*
X135523809Y-152607142D01*
X135619047Y-152416666D01*
X135809523Y-152321428D01*
X136190476Y-152321428D01*
X136380952Y-152416666D01*
X136476190Y-152607142D01*
X136476190Y-152797619D01*
X135523809Y-152988095D01*
X138190476Y-153654761D02*
X138190476Y-152607142D01*
X138095238Y-152416666D01*
X137904761Y-152321428D01*
X137523809Y-152321428D01*
X137333333Y-152416666D01*
X138190476Y-153559523D02*
X137999999Y-153654761D01*
X137523809Y-153654761D01*
X137333333Y-153559523D01*
X137238095Y-153369047D01*
X137238095Y-153178571D01*
X137333333Y-152988095D01*
X137523809Y-152892857D01*
X137999999Y-152892857D01*
X138190476Y-152797619D01*
X139142857Y-153654761D02*
X139142857Y-152321428D01*
X139142857Y-152511904D02*
X139238095Y-152416666D01*
X139428571Y-152321428D01*
X139714285Y-152321428D01*
X139904761Y-152416666D01*
X139999999Y-152607142D01*
X139999999Y-153654761D01*
X139999999Y-152607142D02*
X140095238Y-152416666D01*
X140285714Y-152321428D01*
X140571428Y-152321428D01*
X140761904Y-152416666D01*
X140857142Y-152607142D01*
X140857142Y-153654761D01*
X133809523Y-131404761D02*
X133952380Y-131452380D01*
X134190476Y-131452380D01*
X134285714Y-131404761D01*
X134333333Y-131357142D01*
X134380952Y-131261904D01*
X134380952Y-131166666D01*
X134333333Y-131071428D01*
X134285714Y-131023809D01*
X134190476Y-130976190D01*
X134000000Y-130928571D01*
X133904761Y-130880952D01*
X133857142Y-130833333D01*
X133809523Y-130738095D01*
X133809523Y-130642857D01*
X133857142Y-130547619D01*
X133904761Y-130500000D01*
X134000000Y-130452380D01*
X134238095Y-130452380D01*
X134380952Y-130500000D01*
X135380952Y-131357142D02*
X135333333Y-131404761D01*
X135190476Y-131452380D01*
X135095238Y-131452380D01*
X134952380Y-131404761D01*
X134857142Y-131309523D01*
X134809523Y-131214285D01*
X134761904Y-131023809D01*
X134761904Y-130880952D01*
X134809523Y-130690476D01*
X134857142Y-130595238D01*
X134952380Y-130500000D01*
X135095238Y-130452380D01*
X135190476Y-130452380D01*
X135333333Y-130500000D01*
X135380952Y-130547619D01*
X136285714Y-131452380D02*
X135809523Y-131452380D01*
X135809523Y-130452380D01*
X133785714Y-125404761D02*
X133928571Y-125452380D01*
X134166666Y-125452380D01*
X134261904Y-125404761D01*
X134309523Y-125357142D01*
X134357142Y-125261904D01*
X134357142Y-125166666D01*
X134309523Y-125071428D01*
X134261904Y-125023809D01*
X134166666Y-124976190D01*
X133976190Y-124928571D01*
X133880952Y-124880952D01*
X133833333Y-124833333D01*
X133785714Y-124738095D01*
X133785714Y-124642857D01*
X133833333Y-124547619D01*
X133880952Y-124500000D01*
X133976190Y-124452380D01*
X134214285Y-124452380D01*
X134357142Y-124500000D01*
X134785714Y-125452380D02*
X134785714Y-124452380D01*
X135023809Y-124452380D01*
X135166666Y-124500000D01*
X135261904Y-124595238D01*
X135309523Y-124690476D01*
X135357142Y-124880952D01*
X135357142Y-125023809D01*
X135309523Y-125214285D01*
X135261904Y-125309523D01*
X135166666Y-125404761D01*
X135023809Y-125452380D01*
X134785714Y-125452380D01*
X135738095Y-125166666D02*
X136214285Y-125166666D01*
X135642857Y-125452380D02*
X135976190Y-124452380D01*
X136309523Y-125452380D01*
X164404761Y-102452380D02*
X163833333Y-102452380D01*
X164119047Y-102452380D02*
X164119047Y-101452380D01*
X164023809Y-101595238D01*
X163928571Y-101690476D01*
X163833333Y-101738095D01*
X165023809Y-101452380D02*
X165119047Y-101452380D01*
X165214285Y-101500000D01*
X165261904Y-101547619D01*
X165309523Y-101642857D01*
X165357142Y-101833333D01*
X165357142Y-102071428D01*
X165309523Y-102261904D01*
X165261904Y-102357142D01*
X165214285Y-102404761D01*
X165119047Y-102452380D01*
X165023809Y-102452380D01*
X164928571Y-102404761D01*
X164880952Y-102357142D01*
X164833333Y-102261904D01*
X164785714Y-102071428D01*
X164785714Y-101833333D01*
X164833333Y-101642857D01*
X164880952Y-101547619D01*
X164928571Y-101500000D01*
X165023809Y-101452380D01*
X165785714Y-102452380D02*
X165785714Y-101452380D01*
X165880952Y-102071428D02*
X166166666Y-102452380D01*
X166166666Y-101785714D02*
X165785714Y-102166666D01*
X164404761Y-92452380D02*
X163833333Y-92452380D01*
X164119047Y-92452380D02*
X164119047Y-91452380D01*
X164023809Y-91595238D01*
X163928571Y-91690476D01*
X163833333Y-91738095D01*
X165023809Y-91452380D02*
X165119047Y-91452380D01*
X165214285Y-91500000D01*
X165261904Y-91547619D01*
X165309523Y-91642857D01*
X165357142Y-91833333D01*
X165357142Y-92071428D01*
X165309523Y-92261904D01*
X165261904Y-92357142D01*
X165214285Y-92404761D01*
X165119047Y-92452380D01*
X165023809Y-92452380D01*
X164928571Y-92404761D01*
X164880952Y-92357142D01*
X164833333Y-92261904D01*
X164785714Y-92071428D01*
X164785714Y-91833333D01*
X164833333Y-91642857D01*
X164880952Y-91547619D01*
X164928571Y-91500000D01*
X165023809Y-91452380D01*
X165785714Y-92452380D02*
X165785714Y-91452380D01*
X165880952Y-92071428D02*
X166166666Y-92452380D01*
X166166666Y-91785714D02*
X165785714Y-92166666D01*
D11*
X228761904Y-76583333D02*
X228880952Y-76226190D01*
X228880952Y-75630952D01*
X228761904Y-75392857D01*
X228642857Y-75273809D01*
X228404761Y-75154761D01*
X228166666Y-75154761D01*
X227928571Y-75273809D01*
X227809523Y-75392857D01*
X227690476Y-75630952D01*
X227571428Y-76107142D01*
X227452380Y-76345238D01*
X227333333Y-76464285D01*
X227095238Y-76583333D01*
X226857142Y-76583333D01*
X226619047Y-76464285D01*
X226500000Y-76345238D01*
X226380952Y-76107142D01*
X226380952Y-75511904D01*
X226500000Y-75154761D01*
X228761904Y-73011904D02*
X228880952Y-73250000D01*
X228880952Y-73726190D01*
X228761904Y-73964285D01*
X228642857Y-74083333D01*
X228404761Y-74202380D01*
X227690476Y-74202380D01*
X227452380Y-74083333D01*
X227333333Y-73964285D01*
X227214285Y-73726190D01*
X227214285Y-73250000D01*
X227333333Y-73011904D01*
X228880952Y-70869047D02*
X227571428Y-70869047D01*
X227333333Y-70988095D01*
X227214285Y-71226190D01*
X227214285Y-71702380D01*
X227333333Y-71940476D01*
X228761904Y-70869047D02*
X228880952Y-71107142D01*
X228880952Y-71702380D01*
X228761904Y-71940476D01*
X228523809Y-72059523D01*
X228285714Y-72059523D01*
X228047619Y-71940476D01*
X227928571Y-71702380D01*
X227928571Y-71107142D01*
X227809523Y-70869047D01*
X228880952Y-69321428D02*
X228761904Y-69559523D01*
X228523809Y-69678571D01*
X226380952Y-69678571D01*
X228761904Y-67416666D02*
X228880952Y-67654761D01*
X228880952Y-68130952D01*
X228761904Y-68369047D01*
X228523809Y-68488095D01*
X227571428Y-68488095D01*
X227333333Y-68369047D01*
X227214285Y-68130952D01*
X227214285Y-67654761D01*
X227333333Y-67416666D01*
X227571428Y-67297619D01*
X227809523Y-67297619D01*
X228047619Y-68488095D01*
X226619047Y-66345238D02*
X226500000Y-66226190D01*
X226380952Y-65988095D01*
X226380952Y-65392857D01*
X226500000Y-65154761D01*
X226619047Y-65035714D01*
X226857142Y-64916666D01*
X227095238Y-64916666D01*
X227452380Y-65035714D01*
X228880952Y-66464285D01*
X228880952Y-64916666D01*
X213261904Y-77333333D02*
X213380952Y-76976190D01*
X213380952Y-76380952D01*
X213261904Y-76142857D01*
X213142857Y-76023809D01*
X212904761Y-75904761D01*
X212666666Y-75904761D01*
X212428571Y-76023809D01*
X212309523Y-76142857D01*
X212190476Y-76380952D01*
X212071428Y-76857142D01*
X211952380Y-77095238D01*
X211833333Y-77214285D01*
X211595238Y-77333333D01*
X211357142Y-77333333D01*
X211119047Y-77214285D01*
X211000000Y-77095238D01*
X210880952Y-76857142D01*
X210880952Y-76261904D01*
X211000000Y-75904761D01*
X213261904Y-73761904D02*
X213380952Y-74000000D01*
X213380952Y-74476190D01*
X213261904Y-74714285D01*
X213142857Y-74833333D01*
X212904761Y-74952380D01*
X212190476Y-74952380D01*
X211952380Y-74833333D01*
X211833333Y-74714285D01*
X211714285Y-74476190D01*
X211714285Y-74000000D01*
X211833333Y-73761904D01*
X213380952Y-71619047D02*
X212071428Y-71619047D01*
X211833333Y-71738095D01*
X211714285Y-71976190D01*
X211714285Y-72452380D01*
X211833333Y-72690476D01*
X213261904Y-71619047D02*
X213380952Y-71857142D01*
X213380952Y-72452380D01*
X213261904Y-72690476D01*
X213023809Y-72809523D01*
X212785714Y-72809523D01*
X212547619Y-72690476D01*
X212428571Y-72452380D01*
X212428571Y-71857142D01*
X212309523Y-71619047D01*
X213380952Y-70071428D02*
X213261904Y-70309523D01*
X213023809Y-70428571D01*
X210880952Y-70428571D01*
X213261904Y-68166666D02*
X213380952Y-68404761D01*
X213380952Y-68880952D01*
X213261904Y-69119047D01*
X213023809Y-69238095D01*
X212071428Y-69238095D01*
X211833333Y-69119047D01*
X211714285Y-68880952D01*
X211714285Y-68404761D01*
X211833333Y-68166666D01*
X212071428Y-68047619D01*
X212309523Y-68047619D01*
X212547619Y-69238095D01*
X213380952Y-65666666D02*
X213380952Y-67095238D01*
X213380952Y-66380952D02*
X210880952Y-66380952D01*
X211238095Y-66619047D01*
X211476190Y-66857142D01*
X211595238Y-67095238D01*
X199130952Y-75523809D02*
X197940476Y-76357142D01*
X199130952Y-76952380D02*
X196630952Y-76952380D01*
X196630952Y-76000000D01*
X196750000Y-75761904D01*
X196869047Y-75642857D01*
X197107142Y-75523809D01*
X197464285Y-75523809D01*
X197702380Y-75642857D01*
X197821428Y-75761904D01*
X197940476Y-76000000D01*
X197940476Y-76952380D01*
X199130952Y-74095238D02*
X199011904Y-74333333D01*
X198892857Y-74452380D01*
X198654761Y-74571428D01*
X197940476Y-74571428D01*
X197702380Y-74452380D01*
X197583333Y-74333333D01*
X197464285Y-74095238D01*
X197464285Y-73738095D01*
X197583333Y-73500000D01*
X197702380Y-73380952D01*
X197940476Y-73261904D01*
X198654761Y-73261904D01*
X198892857Y-73380952D01*
X199011904Y-73500000D01*
X199130952Y-73738095D01*
X199130952Y-74095238D01*
X199130952Y-71833333D02*
X199011904Y-72071428D01*
X198773809Y-72190476D01*
X196630952Y-72190476D01*
X199130952Y-70523809D02*
X199011904Y-70761904D01*
X198773809Y-70880952D01*
X196630952Y-70880952D01*
X199011904Y-68619047D02*
X199130952Y-68857142D01*
X199130952Y-69333333D01*
X199011904Y-69571428D01*
X198773809Y-69690476D01*
X197821428Y-69690476D01*
X197583333Y-69571428D01*
X197464285Y-69333333D01*
X197464285Y-68857142D01*
X197583333Y-68619047D01*
X197821428Y-68500000D01*
X198059523Y-68500000D01*
X198297619Y-69690476D01*
X199130952Y-67428571D02*
X197464285Y-67428571D01*
X197940476Y-67428571D02*
X197702380Y-67309523D01*
X197583333Y-67190476D01*
X197464285Y-66952380D01*
X197464285Y-66714285D01*
X199011904Y-66000000D02*
X199130952Y-65761904D01*
X199130952Y-65285714D01*
X199011904Y-65047619D01*
X198773809Y-64928571D01*
X198654761Y-64928571D01*
X198416666Y-65047619D01*
X198297619Y-65285714D01*
X198297619Y-65642857D01*
X198178571Y-65880952D01*
X197940476Y-66000000D01*
X197821428Y-66000000D01*
X197583333Y-65880952D01*
X197464285Y-65642857D01*
X197464285Y-65285714D01*
X197583333Y-65047619D01*
X184011904Y-84845238D02*
X184130952Y-84488095D01*
X184130952Y-83892857D01*
X184011904Y-83654761D01*
X183892857Y-83535714D01*
X183654761Y-83416666D01*
X183416666Y-83416666D01*
X183178571Y-83535714D01*
X183059523Y-83654761D01*
X182940476Y-83892857D01*
X182821428Y-84369047D01*
X182702380Y-84607142D01*
X182583333Y-84726190D01*
X182345238Y-84845238D01*
X182107142Y-84845238D01*
X181869047Y-84726190D01*
X181750000Y-84607142D01*
X181630952Y-84369047D01*
X181630952Y-83773809D01*
X181750000Y-83416666D01*
X184130952Y-81988095D02*
X184011904Y-82226190D01*
X183773809Y-82345238D01*
X181630952Y-82345238D01*
X184130952Y-79964285D02*
X182821428Y-79964285D01*
X182583333Y-80083333D01*
X182464285Y-80321428D01*
X182464285Y-80797619D01*
X182583333Y-81035714D01*
X184011904Y-79964285D02*
X184130952Y-80202380D01*
X184130952Y-80797619D01*
X184011904Y-81035714D01*
X183773809Y-81154761D01*
X183535714Y-81154761D01*
X183297619Y-81035714D01*
X183178571Y-80797619D01*
X183178571Y-80202380D01*
X183059523Y-79964285D01*
X184011904Y-77702380D02*
X184130952Y-77940476D01*
X184130952Y-78416666D01*
X184011904Y-78654761D01*
X183892857Y-78773809D01*
X183654761Y-78892857D01*
X182940476Y-78892857D01*
X182702380Y-78773809D01*
X182583333Y-78654761D01*
X182464285Y-78416666D01*
X182464285Y-77940476D01*
X182583333Y-77702380D01*
X184130952Y-76630952D02*
X181630952Y-76630952D01*
X183178571Y-76392857D02*
X184130952Y-75678571D01*
X182464285Y-75678571D02*
X183416666Y-76630952D01*
X184011904Y-72821428D02*
X184130952Y-72464285D01*
X184130952Y-71869047D01*
X184011904Y-71630952D01*
X183892857Y-71511904D01*
X183654761Y-71392857D01*
X183416666Y-71392857D01*
X183178571Y-71511904D01*
X183059523Y-71630952D01*
X182940476Y-71869047D01*
X182821428Y-72345238D01*
X182702380Y-72583333D01*
X182583333Y-72702380D01*
X182345238Y-72821428D01*
X182107142Y-72821428D01*
X181869047Y-72702380D01*
X181750000Y-72583333D01*
X181630952Y-72345238D01*
X181630952Y-71750000D01*
X181750000Y-71392857D01*
X184011904Y-69369047D02*
X184130952Y-69607142D01*
X184130952Y-70083333D01*
X184011904Y-70321428D01*
X183773809Y-70440476D01*
X182821428Y-70440476D01*
X182583333Y-70321428D01*
X182464285Y-70083333D01*
X182464285Y-69607142D01*
X182583333Y-69369047D01*
X182821428Y-69250000D01*
X183059523Y-69250000D01*
X183297619Y-70440476D01*
X182464285Y-68178571D02*
X184130952Y-68178571D01*
X182702380Y-68178571D02*
X182583333Y-68059523D01*
X182464285Y-67821428D01*
X182464285Y-67464285D01*
X182583333Y-67226190D01*
X182821428Y-67107142D01*
X184130952Y-67107142D01*
X184011904Y-66035714D02*
X184130952Y-65797619D01*
X184130952Y-65321428D01*
X184011904Y-65083333D01*
X183773809Y-64964285D01*
X183654761Y-64964285D01*
X183416666Y-65083333D01*
X183297619Y-65321428D01*
X183297619Y-65678571D01*
X183178571Y-65916666D01*
X182940476Y-66035714D01*
X182821428Y-66035714D01*
X182583333Y-65916666D01*
X182464285Y-65678571D01*
X182464285Y-65321428D01*
X182583333Y-65083333D01*
X184130952Y-63535714D02*
X184011904Y-63773809D01*
X183892857Y-63892857D01*
X183654761Y-64011904D01*
X182940476Y-64011904D01*
X182702380Y-63892857D01*
X182583333Y-63773809D01*
X182464285Y-63535714D01*
X182464285Y-63178571D01*
X182583333Y-62940476D01*
X182702380Y-62821428D01*
X182940476Y-62702380D01*
X183654761Y-62702380D01*
X183892857Y-62821428D01*
X184011904Y-62940476D01*
X184130952Y-63178571D01*
X184130952Y-63535714D01*
X184130952Y-61630952D02*
X182464285Y-61630952D01*
X182940476Y-61630952D02*
X182702380Y-61511904D01*
X182583333Y-61392857D01*
X182464285Y-61154761D01*
X182464285Y-60916666D01*
X226780952Y-44550000D02*
X226628571Y-44473809D01*
X226400000Y-44473809D01*
X226171428Y-44550000D01*
X226019047Y-44702380D01*
X225942857Y-44854761D01*
X225866666Y-45159523D01*
X225866666Y-45388095D01*
X225942857Y-45692857D01*
X226019047Y-45845238D01*
X226171428Y-45997619D01*
X226400000Y-46073809D01*
X226552380Y-46073809D01*
X226780952Y-45997619D01*
X226857142Y-45921428D01*
X226857142Y-45388095D01*
X226552380Y-45388095D01*
X227542857Y-46073809D02*
X227542857Y-44473809D01*
X228457142Y-46073809D01*
X228457142Y-44473809D01*
X229219047Y-46073809D02*
X229219047Y-44473809D01*
X229600000Y-44473809D01*
X229828571Y-44550000D01*
X229980952Y-44702380D01*
X230057142Y-44854761D01*
X230133333Y-45159523D01*
X230133333Y-45388095D01*
X230057142Y-45692857D01*
X229980952Y-45845238D01*
X229828571Y-45997619D01*
X229600000Y-46073809D01*
X229219047Y-46073809D01*
X227695238Y-47123809D02*
X226933333Y-47123809D01*
X226857142Y-47885714D01*
X226933333Y-47809523D01*
X227085714Y-47733333D01*
X227466666Y-47733333D01*
X227619047Y-47809523D01*
X227695238Y-47885714D01*
X227771428Y-48038095D01*
X227771428Y-48419047D01*
X227695238Y-48571428D01*
X227619047Y-48647619D01*
X227466666Y-48723809D01*
X227085714Y-48723809D01*
X226933333Y-48647619D01*
X226857142Y-48571428D01*
X228228571Y-47123809D02*
X228761904Y-48723809D01*
X229295238Y-47123809D01*
X226361904Y-49773809D02*
X226895238Y-51373809D01*
X227428571Y-49773809D01*
X227961904Y-51373809D02*
X227961904Y-50307142D01*
X227961904Y-49773809D02*
X227885714Y-49850000D01*
X227961904Y-49926190D01*
X228038095Y-49850000D01*
X227961904Y-49773809D01*
X227961904Y-49926190D01*
X228723809Y-50307142D02*
X228723809Y-51373809D01*
X228723809Y-50459523D02*
X228800000Y-50383333D01*
X228952380Y-50307142D01*
X229180952Y-50307142D01*
X229333333Y-50383333D01*
X229409523Y-50535714D01*
X229409523Y-51373809D01*
D10*
X233023809Y-40452380D02*
X233023809Y-39452380D01*
X233404761Y-39452380D01*
X233500000Y-39500000D01*
X233547619Y-39547619D01*
X233595238Y-39642857D01*
X233595238Y-39785714D01*
X233547619Y-39880952D01*
X233500000Y-39928571D01*
X233404761Y-39976190D01*
X233023809Y-39976190D01*
X234166666Y-40452380D02*
X234071428Y-40404761D01*
X234023809Y-40357142D01*
X233976190Y-40261904D01*
X233976190Y-39976190D01*
X234023809Y-39880952D01*
X234071428Y-39833333D01*
X234166666Y-39785714D01*
X234309523Y-39785714D01*
X234404761Y-39833333D01*
X234452380Y-39880952D01*
X234500000Y-39976190D01*
X234500000Y-40261904D01*
X234452380Y-40357142D01*
X234404761Y-40404761D01*
X234309523Y-40452380D01*
X234166666Y-40452380D01*
X234833333Y-39785714D02*
X235023809Y-40452380D01*
X235214285Y-39976190D01*
X235404761Y-40452380D01*
X235595238Y-39785714D01*
X236357142Y-40404761D02*
X236261904Y-40452380D01*
X236071428Y-40452380D01*
X235976190Y-40404761D01*
X235928571Y-40309523D01*
X235928571Y-39928571D01*
X235976190Y-39833333D01*
X236071428Y-39785714D01*
X236261904Y-39785714D01*
X236357142Y-39833333D01*
X236404761Y-39928571D01*
X236404761Y-40023809D01*
X235928571Y-40119047D01*
X236833333Y-40452380D02*
X236833333Y-39785714D01*
X236833333Y-39976190D02*
X236880952Y-39880952D01*
X236928571Y-39833333D01*
X237023809Y-39785714D01*
X237119047Y-39785714D01*
D11*
X211630952Y-56976190D02*
X211630952Y-55547619D01*
X214130952Y-56261904D02*
X211630952Y-56261904D01*
X214130952Y-53642857D02*
X212821428Y-53642857D01*
X212583333Y-53761904D01*
X212464285Y-54000000D01*
X212464285Y-54476190D01*
X212583333Y-54714285D01*
X214011904Y-53642857D02*
X214130952Y-53880952D01*
X214130952Y-54476190D01*
X214011904Y-54714285D01*
X213773809Y-54833333D01*
X213535714Y-54833333D01*
X213297619Y-54714285D01*
X213178571Y-54476190D01*
X213178571Y-53880952D01*
X213059523Y-53642857D01*
X214011904Y-51380952D02*
X214130952Y-51619047D01*
X214130952Y-52095238D01*
X214011904Y-52333333D01*
X213892857Y-52452380D01*
X213654761Y-52571428D01*
X212940476Y-52571428D01*
X212702380Y-52452380D01*
X212583333Y-52333333D01*
X212464285Y-52095238D01*
X212464285Y-51619047D01*
X212583333Y-51380952D01*
X214130952Y-50309523D02*
X211630952Y-50309523D01*
X214130952Y-49238095D02*
X212821428Y-49238095D01*
X212583333Y-49357142D01*
X212464285Y-49595238D01*
X212464285Y-49952380D01*
X212583333Y-50190476D01*
X212702380Y-50309523D01*
X214130952Y-47690476D02*
X214011904Y-47928571D01*
X213892857Y-48047619D01*
X213654761Y-48166666D01*
X212940476Y-48166666D01*
X212702380Y-48047619D01*
X212583333Y-47928571D01*
X212464285Y-47690476D01*
X212464285Y-47333333D01*
X212583333Y-47095238D01*
X212702380Y-46976190D01*
X212940476Y-46857142D01*
X213654761Y-46857142D01*
X213892857Y-46976190D01*
X214011904Y-47095238D01*
X214130952Y-47333333D01*
X214130952Y-47690476D01*
X214130952Y-45785714D02*
X212464285Y-45785714D01*
X212702380Y-45785714D02*
X212583333Y-45666666D01*
X212464285Y-45428571D01*
X212464285Y-45071428D01*
X212583333Y-44833333D01*
X212821428Y-44714285D01*
X214130952Y-44714285D01*
X212821428Y-44714285D02*
X212583333Y-44595238D01*
X212464285Y-44357142D01*
X212464285Y-44000000D01*
X212583333Y-43761904D01*
X212821428Y-43642857D01*
X214130952Y-43642857D01*
X214011904Y-41500000D02*
X214130952Y-41738095D01*
X214130952Y-42214285D01*
X214011904Y-42452380D01*
X213773809Y-42571428D01*
X212821428Y-42571428D01*
X212583333Y-42452380D01*
X212464285Y-42214285D01*
X212464285Y-41738095D01*
X212583333Y-41500000D01*
X212821428Y-41380952D01*
X213059523Y-41380952D01*
X213297619Y-42571428D01*
X212464285Y-40666666D02*
X212464285Y-39714285D01*
X211630952Y-40309523D02*
X213773809Y-40309523D01*
X214011904Y-40190476D01*
X214130952Y-39952380D01*
X214130952Y-39714285D01*
X214011904Y-37928571D02*
X214130952Y-38166666D01*
X214130952Y-38642857D01*
X214011904Y-38880952D01*
X213773809Y-39000000D01*
X212821428Y-39000000D01*
X212583333Y-38880952D01*
X212464285Y-38642857D01*
X212464285Y-38166666D01*
X212583333Y-37928571D01*
X212821428Y-37809523D01*
X213059523Y-37809523D01*
X213297619Y-39000000D01*
X214130952Y-36738095D02*
X212464285Y-36738095D01*
X212940476Y-36738095D02*
X212702380Y-36619047D01*
X212583333Y-36500000D01*
X212464285Y-36261904D01*
X212464285Y-36023809D01*
X199511904Y-49940476D02*
X199630952Y-49583333D01*
X199630952Y-48988095D01*
X199511904Y-48750000D01*
X199392857Y-48630952D01*
X199154761Y-48511904D01*
X198916666Y-48511904D01*
X198678571Y-48630952D01*
X198559523Y-48750000D01*
X198440476Y-48988095D01*
X198321428Y-49464285D01*
X198202380Y-49702380D01*
X198083333Y-49821428D01*
X197845238Y-49940476D01*
X197607142Y-49940476D01*
X197369047Y-49821428D01*
X197250000Y-49702380D01*
X197130952Y-49464285D01*
X197130952Y-48869047D01*
X197250000Y-48511904D01*
X199511904Y-46369047D02*
X199630952Y-46607142D01*
X199630952Y-47083333D01*
X199511904Y-47321428D01*
X199392857Y-47440476D01*
X199154761Y-47559523D01*
X198440476Y-47559523D01*
X198202380Y-47440476D01*
X198083333Y-47321428D01*
X197964285Y-47083333D01*
X197964285Y-46607142D01*
X198083333Y-46369047D01*
X199630952Y-45297619D02*
X197964285Y-45297619D01*
X198440476Y-45297619D02*
X198202380Y-45178571D01*
X198083333Y-45059523D01*
X197964285Y-44821428D01*
X197964285Y-44583333D01*
X199511904Y-42797619D02*
X199630952Y-43035714D01*
X199630952Y-43511904D01*
X199511904Y-43750000D01*
X199273809Y-43869047D01*
X198321428Y-43869047D01*
X198083333Y-43750000D01*
X197964285Y-43511904D01*
X197964285Y-43035714D01*
X198083333Y-42797619D01*
X198321428Y-42678571D01*
X198559523Y-42678571D01*
X198797619Y-43869047D01*
X197964285Y-41845238D02*
X199630952Y-41369047D01*
X198440476Y-40892857D01*
X199630952Y-40416666D01*
X197964285Y-39940476D01*
X184261904Y-51071428D02*
X184380952Y-50714285D01*
X184380952Y-50119047D01*
X184261904Y-49880952D01*
X184142857Y-49761904D01*
X183904761Y-49642857D01*
X183666666Y-49642857D01*
X183428571Y-49761904D01*
X183309523Y-49880952D01*
X183190476Y-50119047D01*
X183071428Y-50595238D01*
X182952380Y-50833333D01*
X182833333Y-50952380D01*
X182595238Y-51071428D01*
X182357142Y-51071428D01*
X182119047Y-50952380D01*
X182000000Y-50833333D01*
X181880952Y-50595238D01*
X181880952Y-50000000D01*
X182000000Y-49642857D01*
X182714285Y-48571428D02*
X185214285Y-48571428D01*
X182833333Y-48571428D02*
X182714285Y-48333333D01*
X182714285Y-47857142D01*
X182833333Y-47619047D01*
X182952380Y-47500000D01*
X183190476Y-47380952D01*
X183904761Y-47380952D01*
X184142857Y-47500000D01*
X184261904Y-47619047D01*
X184380952Y-47857142D01*
X184380952Y-48333333D01*
X184261904Y-48571428D01*
X184380952Y-45952380D02*
X184261904Y-46190476D01*
X184142857Y-46309523D01*
X183904761Y-46428571D01*
X183190476Y-46428571D01*
X182952380Y-46309523D01*
X182833333Y-46190476D01*
X182714285Y-45952380D01*
X182714285Y-45595238D01*
X182833333Y-45357142D01*
X182952380Y-45238095D01*
X183190476Y-45119047D01*
X183904761Y-45119047D01*
X184142857Y-45238095D01*
X184261904Y-45357142D01*
X184380952Y-45595238D01*
X184380952Y-45952380D01*
X184380952Y-44047619D02*
X182714285Y-44047619D01*
X181880952Y-44047619D02*
X182000000Y-44166666D01*
X182119047Y-44047619D01*
X182000000Y-43928571D01*
X181880952Y-44047619D01*
X182119047Y-44047619D01*
X184380952Y-42500000D02*
X184261904Y-42738095D01*
X184023809Y-42857142D01*
X181880952Y-42857142D01*
X184261904Y-40595238D02*
X184380952Y-40833333D01*
X184380952Y-41309523D01*
X184261904Y-41547619D01*
X184023809Y-41666666D01*
X183071428Y-41666666D01*
X182833333Y-41547619D01*
X182714285Y-41309523D01*
X182714285Y-40833333D01*
X182833333Y-40595238D01*
X183071428Y-40476190D01*
X183309523Y-40476190D01*
X183547619Y-41666666D01*
X184380952Y-39404761D02*
X182714285Y-39404761D01*
X183190476Y-39404761D02*
X182952380Y-39285714D01*
X182833333Y-39166666D01*
X182714285Y-38928571D01*
X182714285Y-38690476D01*
X168321428Y-78404761D02*
X168321428Y-79238095D01*
X169630952Y-79238095D02*
X167130952Y-79238095D01*
X167130952Y-78047619D01*
X169630952Y-76023809D02*
X168321428Y-76023809D01*
X168083333Y-76142857D01*
X167964285Y-76380952D01*
X167964285Y-76857142D01*
X168083333Y-77095238D01*
X169511904Y-76023809D02*
X169630952Y-76261904D01*
X169630952Y-76857142D01*
X169511904Y-77095238D01*
X169273809Y-77214285D01*
X169035714Y-77214285D01*
X168797619Y-77095238D01*
X168678571Y-76857142D01*
X168678571Y-76261904D01*
X168559523Y-76023809D01*
X167964285Y-74833333D02*
X169630952Y-74833333D01*
X168202380Y-74833333D02*
X168083333Y-74714285D01*
X167964285Y-74476190D01*
X167964285Y-74119047D01*
X168083333Y-73880952D01*
X168321428Y-73761904D01*
X169630952Y-73761904D01*
X168571428Y-62904761D02*
X168571428Y-63738095D01*
X169880952Y-63738095D02*
X167380952Y-63738095D01*
X167380952Y-62547619D01*
X169880952Y-60523809D02*
X168571428Y-60523809D01*
X168333333Y-60642857D01*
X168214285Y-60880952D01*
X168214285Y-61357142D01*
X168333333Y-61595238D01*
X169761904Y-60523809D02*
X169880952Y-60761904D01*
X169880952Y-61357142D01*
X169761904Y-61595238D01*
X169523809Y-61714285D01*
X169285714Y-61714285D01*
X169047619Y-61595238D01*
X168928571Y-61357142D01*
X168928571Y-60761904D01*
X168809523Y-60523809D01*
X168214285Y-59333333D02*
X169880952Y-59333333D01*
X168452380Y-59333333D02*
X168333333Y-59214285D01*
X168214285Y-58976190D01*
X168214285Y-58619047D01*
X168333333Y-58380952D01*
X168571428Y-58261904D01*
X169880952Y-58261904D01*
X169071428Y-46904761D02*
X169071428Y-47738095D01*
X170380952Y-47738095D02*
X167880952Y-47738095D01*
X167880952Y-46547619D01*
X170380952Y-44523809D02*
X169071428Y-44523809D01*
X168833333Y-44642857D01*
X168714285Y-44880952D01*
X168714285Y-45357142D01*
X168833333Y-45595238D01*
X170261904Y-44523809D02*
X170380952Y-44761904D01*
X170380952Y-45357142D01*
X170261904Y-45595238D01*
X170023809Y-45714285D01*
X169785714Y-45714285D01*
X169547619Y-45595238D01*
X169428571Y-45357142D01*
X169428571Y-44761904D01*
X169309523Y-44523809D01*
X168714285Y-43333333D02*
X170380952Y-43333333D01*
X168952380Y-43333333D02*
X168833333Y-43214285D01*
X168714285Y-42976190D01*
X168714285Y-42619047D01*
X168833333Y-42380952D01*
X169071428Y-42261904D01*
X170380952Y-42261904D01*
D12*
X183000000Y-136000000D02*
X172000000Y-136000000D01*
X183000000Y-114000000D02*
X183000000Y-136000000D01*
X172000000Y-114000000D02*
X183000000Y-114000000D01*
X172000000Y-136000000D02*
X172000000Y-114000000D01*
X152000000Y-114000000D02*
X152000000Y-136000000D01*
X163000000Y-114000000D02*
X152000000Y-114000000D01*
X163000000Y-136000000D02*
X163000000Y-114000000D01*
X152000000Y-136000000D02*
X163000000Y-136000000D01*
D10*
X174500000Y-138904761D02*
X174452380Y-139000000D01*
X174452380Y-139142857D01*
X174500000Y-139285714D01*
X174595238Y-139380952D01*
X174690476Y-139428571D01*
X174880952Y-139476190D01*
X175023809Y-139476190D01*
X175214285Y-139428571D01*
X175309523Y-139380952D01*
X175404761Y-139285714D01*
X175452380Y-139142857D01*
X175452380Y-139047619D01*
X175404761Y-138904761D01*
X175357142Y-138857142D01*
X175023809Y-138857142D01*
X175023809Y-139047619D01*
X175452380Y-138000000D02*
X174928571Y-138000000D01*
X174833333Y-138047619D01*
X174785714Y-138142857D01*
X174785714Y-138333333D01*
X174833333Y-138428571D01*
X175404761Y-138000000D02*
X175452380Y-138095238D01*
X175452380Y-138333333D01*
X175404761Y-138428571D01*
X175309523Y-138476190D01*
X175214285Y-138476190D01*
X175119047Y-138428571D01*
X175071428Y-138333333D01*
X175071428Y-138095238D01*
X175023809Y-138000000D01*
X174785714Y-137666666D02*
X174785714Y-137285714D01*
X174452380Y-137523809D02*
X175309523Y-137523809D01*
X175404761Y-137476190D01*
X175452380Y-137380952D01*
X175452380Y-137285714D01*
X175404761Y-136571428D02*
X175452380Y-136666666D01*
X175452380Y-136857142D01*
X175404761Y-136952380D01*
X175309523Y-137000000D01*
X174928571Y-137000000D01*
X174833333Y-136952380D01*
X174785714Y-136857142D01*
X174785714Y-136666666D01*
X174833333Y-136571428D01*
X174928571Y-136523809D01*
X175023809Y-136523809D01*
X175119047Y-137000000D01*
X154500000Y-138904761D02*
X154452380Y-139000000D01*
X154452380Y-139142857D01*
X154500000Y-139285714D01*
X154595238Y-139380952D01*
X154690476Y-139428571D01*
X154880952Y-139476190D01*
X155023809Y-139476190D01*
X155214285Y-139428571D01*
X155309523Y-139380952D01*
X155404761Y-139285714D01*
X155452380Y-139142857D01*
X155452380Y-139047619D01*
X155404761Y-138904761D01*
X155357142Y-138857142D01*
X155023809Y-138857142D01*
X155023809Y-139047619D01*
X155452380Y-138000000D02*
X154928571Y-138000000D01*
X154833333Y-138047619D01*
X154785714Y-138142857D01*
X154785714Y-138333333D01*
X154833333Y-138428571D01*
X155404761Y-138000000D02*
X155452380Y-138095238D01*
X155452380Y-138333333D01*
X155404761Y-138428571D01*
X155309523Y-138476190D01*
X155214285Y-138476190D01*
X155119047Y-138428571D01*
X155071428Y-138333333D01*
X155071428Y-138095238D01*
X155023809Y-138000000D01*
X154785714Y-137666666D02*
X154785714Y-137285714D01*
X154452380Y-137523809D02*
X155309523Y-137523809D01*
X155404761Y-137476190D01*
X155452380Y-137380952D01*
X155452380Y-137285714D01*
X155404761Y-136571428D02*
X155452380Y-136666666D01*
X155452380Y-136857142D01*
X155404761Y-136952380D01*
X155309523Y-137000000D01*
X154928571Y-137000000D01*
X154833333Y-136952380D01*
X154785714Y-136857142D01*
X154785714Y-136666666D01*
X154833333Y-136571428D01*
X154928571Y-136523809D01*
X155023809Y-136523809D01*
X155119047Y-137000000D01*
D12*
X129840000Y-95380000D02*
X129840000Y-99220000D01*
X130080000Y-95380000D02*
X130080000Y-99220000D01*
X129960000Y-95380000D02*
X129960000Y-99220000D01*
X138800000Y-97300000D02*
X136540000Y-97300000D01*
X126440000Y-97300000D02*
X128700000Y-97300000D01*
X136540000Y-95380000D02*
X128700000Y-95380000D01*
X136540000Y-99220000D02*
X136540000Y-95380000D01*
X128700000Y-99220000D02*
X136540000Y-99220000D01*
X128700000Y-95380000D02*
X128700000Y-99220000D01*
X129840000Y-104080000D02*
X129840000Y-107920000D01*
X130080000Y-104080000D02*
X130080000Y-107920000D01*
X129960000Y-104080000D02*
X129960000Y-107920000D01*
X138800000Y-106000000D02*
X136540000Y-106000000D01*
X126440000Y-106000000D02*
X128700000Y-106000000D01*
X136540000Y-104080000D02*
X128700000Y-104080000D01*
X136540000Y-107920000D02*
X136540000Y-104080000D01*
X128700000Y-107920000D02*
X136540000Y-107920000D01*
X128700000Y-104080000D02*
X128700000Y-107920000D01*
X129840000Y-113080000D02*
X129840000Y-116920000D01*
X130080000Y-113080000D02*
X130080000Y-116920000D01*
X129960000Y-113080000D02*
X129960000Y-116920000D01*
X138800000Y-115000000D02*
X136540000Y-115000000D01*
X126440000Y-115000000D02*
X128700000Y-115000000D01*
X136540000Y-113080000D02*
X128700000Y-113080000D01*
X136540000Y-116920000D02*
X136540000Y-113080000D01*
X128700000Y-116920000D02*
X136540000Y-116920000D01*
X128700000Y-113080000D02*
X128700000Y-116920000D01*
X129840000Y-86080000D02*
X129840000Y-89920000D01*
X130080000Y-86080000D02*
X130080000Y-89920000D01*
X129960000Y-86080000D02*
X129960000Y-89920000D01*
X138800000Y-88000000D02*
X136540000Y-88000000D01*
X126440000Y-88000000D02*
X128700000Y-88000000D01*
X136540000Y-86080000D02*
X128700000Y-86080000D01*
X136540000Y-89920000D02*
X136540000Y-86080000D01*
X128700000Y-89920000D02*
X136540000Y-89920000D01*
X128700000Y-86080000D02*
X128700000Y-89920000D01*
X173670000Y-73670000D02*
X175000000Y-73670000D01*
X173670000Y-75000000D02*
X173670000Y-73670000D01*
X173670000Y-76270000D02*
X176330000Y-76270000D01*
X176330000Y-76270000D02*
X176330000Y-78870000D01*
X173670000Y-76270000D02*
X173670000Y-78870000D01*
X173670000Y-78870000D02*
X176330000Y-78870000D01*
X173670000Y-58670000D02*
X175000000Y-58670000D01*
X173670000Y-60000000D02*
X173670000Y-58670000D01*
X173670000Y-61270000D02*
X176330000Y-61270000D01*
X176330000Y-61270000D02*
X176330000Y-63870000D01*
X173670000Y-61270000D02*
X173670000Y-63870000D01*
X173670000Y-63870000D02*
X176330000Y-63870000D01*
X233670000Y-43670000D02*
X235000000Y-43670000D01*
X233670000Y-45000000D02*
X233670000Y-43670000D01*
X233670000Y-46270000D02*
X236330000Y-46270000D01*
X236330000Y-46270000D02*
X236330000Y-51410000D01*
X233670000Y-46270000D02*
X233670000Y-51410000D01*
X233670000Y-51410000D02*
X236330000Y-51410000D01*
X173670000Y-135330000D02*
X173670000Y-134000000D01*
X175000000Y-135330000D02*
X173670000Y-135330000D01*
X176270000Y-135330000D02*
X176270000Y-132670000D01*
X176270000Y-132670000D02*
X181410000Y-132670000D01*
X176270000Y-135330000D02*
X181410000Y-135330000D01*
X181410000Y-135330000D02*
X181410000Y-132670000D01*
X153670000Y-135330000D02*
X153670000Y-134000000D01*
X155000000Y-135330000D02*
X153670000Y-135330000D01*
X156270000Y-135330000D02*
X156270000Y-132670000D01*
X156270000Y-132670000D02*
X161410000Y-132670000D01*
X156270000Y-135330000D02*
X161410000Y-135330000D01*
X161410000Y-135330000D02*
X161410000Y-132670000D01*
D10*
X239390000Y-141680000D02*
X239390000Y-98500000D01*
X221610000Y-141680000D02*
X221610000Y-98500000D01*
X239390000Y-98500000D02*
X221610000Y-98500000D01*
X239390000Y-141680000D02*
X221610000Y-141680000D01*
X226436000Y-97050000D02*
X226436000Y-98500000D01*
X234564000Y-97050000D02*
X226436000Y-97050000D01*
X234564000Y-98500000D02*
X234564000Y-97050000D01*
D13*
X193335000Y-120975000D02*
X206665000Y-120975000D01*
X193335000Y-137025000D02*
X193335000Y-120975000D01*
X206665000Y-137025000D02*
X193335000Y-137025000D01*
X206665000Y-120975000D02*
X206665000Y-137025000D01*
D12*
X169120000Y-89500000D02*
X168350000Y-89500000D01*
X161040000Y-89500000D02*
X161810000Y-89500000D01*
X168350000Y-88130000D02*
X161810000Y-88130000D01*
X168350000Y-90870000D02*
X168350000Y-88130000D01*
X161810000Y-90870000D02*
X168350000Y-90870000D01*
X161810000Y-88130000D02*
X161810000Y-90870000D01*
X169120000Y-99500000D02*
X168350000Y-99500000D01*
X161040000Y-99500000D02*
X161810000Y-99500000D01*
X168350000Y-98130000D02*
X161810000Y-98130000D01*
X168350000Y-100870000D02*
X168350000Y-98130000D01*
X161810000Y-100870000D02*
X168350000Y-100870000D01*
X161810000Y-98130000D02*
X161810000Y-100870000D01*
X130880000Y-134000000D02*
X131650000Y-134000000D01*
X138960000Y-134000000D02*
X138190000Y-134000000D01*
X131650000Y-135370000D02*
X138190000Y-135370000D01*
X131650000Y-132630000D02*
X131650000Y-135370000D01*
X138190000Y-132630000D02*
X131650000Y-132630000D01*
X138190000Y-135370000D02*
X138190000Y-132630000D01*
X130880000Y-128000000D02*
X131650000Y-128000000D01*
X138960000Y-128000000D02*
X138190000Y-128000000D01*
X131650000Y-129370000D02*
X138190000Y-129370000D01*
X131650000Y-126630000D02*
X131650000Y-129370000D01*
X138190000Y-126630000D02*
X131650000Y-126630000D01*
X138190000Y-129370000D02*
X138190000Y-126630000D01*
D14*
X150450000Y-54600000D02*
X150450000Y-52300000D01*
X163550000Y-54600000D02*
X150450000Y-54600000D01*
X163550000Y-52300000D02*
X163550000Y-54600000D01*
X150450000Y-40500000D02*
X150450000Y-49300000D01*
X163550000Y-40500000D02*
X150450000Y-40500000D01*
X163550000Y-49300000D02*
X163550000Y-40500000D01*
D12*
X203670000Y-62670000D02*
X205000000Y-62670000D01*
X203670000Y-64000000D02*
X203670000Y-62670000D01*
X203670000Y-65270000D02*
X206330000Y-65270000D01*
X206330000Y-65270000D02*
X206330000Y-78030000D01*
X203670000Y-65270000D02*
X203670000Y-78030000D01*
X203670000Y-78030000D02*
X206330000Y-78030000D01*
X233670000Y-67670000D02*
X235000000Y-67670000D01*
X233670000Y-69000000D02*
X233670000Y-67670000D01*
X233670000Y-70270000D02*
X236330000Y-70270000D01*
X236330000Y-70270000D02*
X236330000Y-77950000D01*
X233670000Y-70270000D02*
X233670000Y-77950000D01*
X233670000Y-77950000D02*
X236330000Y-77950000D01*
X218670000Y-67670000D02*
X220000000Y-67670000D01*
X218670000Y-69000000D02*
X218670000Y-67670000D01*
X218670000Y-70270000D02*
X221330000Y-70270000D01*
X221330000Y-70270000D02*
X221330000Y-77950000D01*
X218670000Y-70270000D02*
X218670000Y-77950000D01*
X218670000Y-77950000D02*
X221330000Y-77950000D01*
D14*
X142710000Y-54400000D02*
G75*
G03*
X142710000Y-54400000I-100000J0D01*
G01*
D13*
X124600000Y-43780000D02*
X124600000Y-40200000D01*
X140400000Y-40200000D02*
X140400000Y-43780000D01*
X124600000Y-40200000D02*
X140400000Y-40200000D01*
X124600000Y-58800000D02*
X124600000Y-47120000D01*
X140400000Y-58800000D02*
X124600000Y-58800000D01*
X140400000Y-47120000D02*
X140400000Y-58800000D01*
D12*
X173670000Y-42670000D02*
X175000000Y-42670000D01*
X173670000Y-44000000D02*
X173670000Y-42670000D01*
X173670000Y-45270000D02*
X176330000Y-45270000D01*
X176330000Y-45270000D02*
X176330000Y-47870000D01*
X173670000Y-45270000D02*
X173670000Y-47870000D01*
X173670000Y-47870000D02*
X176330000Y-47870000D01*
X218670000Y-42670000D02*
X220000000Y-42670000D01*
X218670000Y-44000000D02*
X218670000Y-42670000D01*
X218670000Y-45270000D02*
X221330000Y-45270000D01*
X221330000Y-45270000D02*
X221330000Y-50410000D01*
X218670000Y-45270000D02*
X218670000Y-50410000D01*
X218670000Y-50410000D02*
X221330000Y-50410000D01*
X188670000Y-42670000D02*
X190000000Y-42670000D01*
X188670000Y-44000000D02*
X188670000Y-42670000D01*
X188670000Y-45270000D02*
X191330000Y-45270000D01*
X191330000Y-45270000D02*
X191330000Y-47870000D01*
X188670000Y-45270000D02*
X188670000Y-47870000D01*
X188670000Y-47870000D02*
X191330000Y-47870000D01*
X188670000Y-67670000D02*
X190000000Y-67670000D01*
X188670000Y-69000000D02*
X188670000Y-67670000D01*
X188670000Y-70270000D02*
X191330000Y-70270000D01*
X191330000Y-70270000D02*
X191330000Y-77950000D01*
X188670000Y-70270000D02*
X188670000Y-77950000D01*
X188670000Y-77950000D02*
X191330000Y-77950000D01*
X203670000Y-42670000D02*
X205000000Y-42670000D01*
X203670000Y-44000000D02*
X203670000Y-42670000D01*
X203670000Y-45270000D02*
X206330000Y-45270000D01*
X206330000Y-45270000D02*
X206330000Y-47870000D01*
X203670000Y-45270000D02*
X203670000Y-47870000D01*
X203670000Y-47870000D02*
X206330000Y-47870000D01*
D10*
X131881904Y-94832380D02*
X131881904Y-93832380D01*
X132120000Y-93832380D01*
X132262857Y-93880000D01*
X132358095Y-93975238D01*
X132405714Y-94070476D01*
X132453333Y-94260952D01*
X132453333Y-94403809D01*
X132405714Y-94594285D01*
X132358095Y-94689523D01*
X132262857Y-94784761D01*
X132120000Y-94832380D01*
X131881904Y-94832380D01*
X133310476Y-94165714D02*
X133310476Y-94832380D01*
X133072380Y-93784761D02*
X132834285Y-94499047D01*
X133453333Y-94499047D01*
X124738095Y-95552380D02*
X124738095Y-94552380D01*
X125309523Y-95552380D02*
X124880952Y-94980952D01*
X125309523Y-94552380D02*
X124738095Y-95123809D01*
X131881904Y-103532380D02*
X131881904Y-102532380D01*
X132120000Y-102532380D01*
X132262857Y-102580000D01*
X132358095Y-102675238D01*
X132405714Y-102770476D01*
X132453333Y-102960952D01*
X132453333Y-103103809D01*
X132405714Y-103294285D01*
X132358095Y-103389523D01*
X132262857Y-103484761D01*
X132120000Y-103532380D01*
X131881904Y-103532380D01*
X132786666Y-102532380D02*
X133405714Y-102532380D01*
X133072380Y-102913333D01*
X133215238Y-102913333D01*
X133310476Y-102960952D01*
X133358095Y-103008571D01*
X133405714Y-103103809D01*
X133405714Y-103341904D01*
X133358095Y-103437142D01*
X133310476Y-103484761D01*
X133215238Y-103532380D01*
X132929523Y-103532380D01*
X132834285Y-103484761D01*
X132786666Y-103437142D01*
X124738095Y-104252380D02*
X124738095Y-103252380D01*
X125309523Y-104252380D02*
X124880952Y-103680952D01*
X125309523Y-103252380D02*
X124738095Y-103823809D01*
X131881904Y-112532380D02*
X131881904Y-111532380D01*
X132120000Y-111532380D01*
X132262857Y-111580000D01*
X132358095Y-111675238D01*
X132405714Y-111770476D01*
X132453333Y-111960952D01*
X132453333Y-112103809D01*
X132405714Y-112294285D01*
X132358095Y-112389523D01*
X132262857Y-112484761D01*
X132120000Y-112532380D01*
X131881904Y-112532380D01*
X132834285Y-111627619D02*
X132881904Y-111580000D01*
X132977142Y-111532380D01*
X133215238Y-111532380D01*
X133310476Y-111580000D01*
X133358095Y-111627619D01*
X133405714Y-111722857D01*
X133405714Y-111818095D01*
X133358095Y-111960952D01*
X132786666Y-112532380D01*
X133405714Y-112532380D01*
X124738095Y-113252380D02*
X124738095Y-112252380D01*
X125309523Y-113252380D02*
X124880952Y-112680952D01*
X125309523Y-112252380D02*
X124738095Y-112823809D01*
X131881904Y-85532380D02*
X131881904Y-84532380D01*
X132120000Y-84532380D01*
X132262857Y-84580000D01*
X132358095Y-84675238D01*
X132405714Y-84770476D01*
X132453333Y-84960952D01*
X132453333Y-85103809D01*
X132405714Y-85294285D01*
X132358095Y-85389523D01*
X132262857Y-85484761D01*
X132120000Y-85532380D01*
X131881904Y-85532380D01*
X133405714Y-85532380D02*
X132834285Y-85532380D01*
X133120000Y-85532380D02*
X133120000Y-84532380D01*
X133024761Y-84675238D01*
X132929523Y-84770476D01*
X132834285Y-84818095D01*
X124738095Y-86252380D02*
X124738095Y-85252380D01*
X125309523Y-86252380D02*
X124880952Y-85680952D01*
X125309523Y-85252380D02*
X124738095Y-85823809D01*
X174190476Y-72122380D02*
X174190476Y-72836666D01*
X174142857Y-72979523D01*
X174047619Y-73074761D01*
X173904761Y-73122380D01*
X173809523Y-73122380D01*
X175190476Y-73122380D02*
X174619047Y-73122380D01*
X174904761Y-73122380D02*
X174904761Y-72122380D01*
X174809523Y-72265238D01*
X174714285Y-72360476D01*
X174619047Y-72408095D01*
X175571428Y-72217619D02*
X175619047Y-72170000D01*
X175714285Y-72122380D01*
X175952380Y-72122380D01*
X176047619Y-72170000D01*
X176095238Y-72217619D01*
X176142857Y-72312857D01*
X176142857Y-72408095D01*
X176095238Y-72550952D01*
X175523809Y-73122380D01*
X176142857Y-73122380D01*
X174190476Y-57122380D02*
X174190476Y-57836666D01*
X174142857Y-57979523D01*
X174047619Y-58074761D01*
X173904761Y-58122380D01*
X173809523Y-58122380D01*
X175190476Y-58122380D02*
X174619047Y-58122380D01*
X174904761Y-58122380D02*
X174904761Y-57122380D01*
X174809523Y-57265238D01*
X174714285Y-57360476D01*
X174619047Y-57408095D01*
X176142857Y-58122380D02*
X175571428Y-58122380D01*
X175857142Y-58122380D02*
X175857142Y-57122380D01*
X175761904Y-57265238D01*
X175666666Y-57360476D01*
X175571428Y-57408095D01*
X234666666Y-42122380D02*
X234666666Y-42836666D01*
X234619047Y-42979523D01*
X234523809Y-43074761D01*
X234380952Y-43122380D01*
X234285714Y-43122380D01*
X235571428Y-42455714D02*
X235571428Y-43122380D01*
X235333333Y-42074761D02*
X235095238Y-42789047D01*
X235714285Y-42789047D01*
X173217619Y-134095238D02*
X173170000Y-134190476D01*
X173074761Y-134285714D01*
X172931904Y-134428571D01*
X172884285Y-134523809D01*
X172884285Y-134619047D01*
X173122380Y-134571428D02*
X173074761Y-134666666D01*
X172979523Y-134761904D01*
X172789047Y-134809523D01*
X172455714Y-134809523D01*
X172265238Y-134761904D01*
X172170000Y-134666666D01*
X172122380Y-134571428D01*
X172122380Y-134380952D01*
X172170000Y-134285714D01*
X172265238Y-134190476D01*
X172455714Y-134142857D01*
X172789047Y-134142857D01*
X172979523Y-134190476D01*
X173074761Y-134285714D01*
X173122380Y-134380952D01*
X173122380Y-134571428D01*
X172217619Y-133761904D02*
X172170000Y-133714285D01*
X172122380Y-133619047D01*
X172122380Y-133380952D01*
X172170000Y-133285714D01*
X172217619Y-133238095D01*
X172312857Y-133190476D01*
X172408095Y-133190476D01*
X172550952Y-133238095D01*
X173122380Y-133809523D01*
X173122380Y-133190476D01*
X153217619Y-134095238D02*
X153170000Y-134190476D01*
X153074761Y-134285714D01*
X152931904Y-134428571D01*
X152884285Y-134523809D01*
X152884285Y-134619047D01*
X153122380Y-134571428D02*
X153074761Y-134666666D01*
X152979523Y-134761904D01*
X152789047Y-134809523D01*
X152455714Y-134809523D01*
X152265238Y-134761904D01*
X152170000Y-134666666D01*
X152122380Y-134571428D01*
X152122380Y-134380952D01*
X152170000Y-134285714D01*
X152265238Y-134190476D01*
X152455714Y-134142857D01*
X152789047Y-134142857D01*
X152979523Y-134190476D01*
X153074761Y-134285714D01*
X153122380Y-134380952D01*
X153122380Y-134571428D01*
X153122380Y-133190476D02*
X153122380Y-133761904D01*
X153122380Y-133476190D02*
X152122380Y-133476190D01*
X152265238Y-133571428D01*
X152360476Y-133666666D01*
X152408095Y-133761904D01*
X222657904Y-96936380D02*
X223324571Y-97936380D01*
X223324571Y-96936380D02*
X222657904Y-97936380D01*
X223657904Y-97650666D02*
X224134095Y-97650666D01*
X223562666Y-97936380D02*
X223896000Y-96936380D01*
X224229333Y-97936380D01*
X224515047Y-97031619D02*
X224562666Y-96984000D01*
X224657904Y-96936380D01*
X224896000Y-96936380D01*
X224991238Y-96984000D01*
X225038857Y-97031619D01*
X225086476Y-97126857D01*
X225086476Y-97222095D01*
X225038857Y-97364952D01*
X224467428Y-97936380D01*
X225086476Y-97936380D01*
D15*
X223876190Y-105588095D02*
X223876190Y-105278571D01*
X224066666Y-105445238D01*
X224066666Y-105373809D01*
X224090476Y-105326190D01*
X224114285Y-105302380D01*
X224161904Y-105278571D01*
X224280952Y-105278571D01*
X224328571Y-105302380D01*
X224352380Y-105326190D01*
X224376190Y-105373809D01*
X224376190Y-105516666D01*
X224352380Y-105564285D01*
X224328571Y-105588095D01*
X224328571Y-105064285D02*
X224352380Y-105040476D01*
X224376190Y-105064285D01*
X224352380Y-105088095D01*
X224328571Y-105064285D01*
X224376190Y-105064285D01*
X223876190Y-104873809D02*
X223876190Y-104564285D01*
X224066666Y-104730952D01*
X224066666Y-104659523D01*
X224090476Y-104611904D01*
X224114285Y-104588095D01*
X224161904Y-104564285D01*
X224280952Y-104564285D01*
X224328571Y-104588095D01*
X224352380Y-104611904D01*
X224376190Y-104659523D01*
X224376190Y-104802380D01*
X224352380Y-104850000D01*
X224328571Y-104873809D01*
X223876190Y-104421428D02*
X224376190Y-104254761D01*
X223876190Y-104088095D01*
X229869047Y-97591190D02*
X229869047Y-97995952D01*
X229892857Y-98043571D01*
X229916666Y-98067380D01*
X229964285Y-98091190D01*
X230059523Y-98091190D01*
X230107142Y-98067380D01*
X230130952Y-98043571D01*
X230154761Y-97995952D01*
X230154761Y-97591190D01*
X230369047Y-98067380D02*
X230440476Y-98091190D01*
X230559523Y-98091190D01*
X230607142Y-98067380D01*
X230630952Y-98043571D01*
X230654761Y-97995952D01*
X230654761Y-97948333D01*
X230630952Y-97900714D01*
X230607142Y-97876904D01*
X230559523Y-97853095D01*
X230464285Y-97829285D01*
X230416666Y-97805476D01*
X230392857Y-97781666D01*
X230369047Y-97734047D01*
X230369047Y-97686428D01*
X230392857Y-97638809D01*
X230416666Y-97615000D01*
X230464285Y-97591190D01*
X230583333Y-97591190D01*
X230654761Y-97615000D01*
X231035714Y-97829285D02*
X231107142Y-97853095D01*
X231130952Y-97876904D01*
X231154761Y-97924523D01*
X231154761Y-97995952D01*
X231130952Y-98043571D01*
X231107142Y-98067380D01*
X231059523Y-98091190D01*
X230869047Y-98091190D01*
X230869047Y-97591190D01*
X231035714Y-97591190D01*
X231083333Y-97615000D01*
X231107142Y-97638809D01*
X231130952Y-97686428D01*
X231130952Y-97734047D01*
X231107142Y-97781666D01*
X231083333Y-97805476D01*
X231035714Y-97829285D01*
X230869047Y-97829285D01*
D16*
X195913095Y-119317380D02*
X195913095Y-120126904D01*
X195960714Y-120222142D01*
X196008333Y-120269761D01*
X196103571Y-120317380D01*
X196294047Y-120317380D01*
X196389285Y-120269761D01*
X196436904Y-120222142D01*
X196484523Y-120126904D01*
X196484523Y-119317380D01*
X197484523Y-120317380D02*
X196913095Y-120317380D01*
X197198809Y-120317380D02*
X197198809Y-119317380D01*
X197103571Y-119460238D01*
X197008333Y-119555476D01*
X196913095Y-119603095D01*
D10*
X164913333Y-87582380D02*
X164580000Y-87106190D01*
X164341904Y-87582380D02*
X164341904Y-86582380D01*
X164722857Y-86582380D01*
X164818095Y-86630000D01*
X164865714Y-86677619D01*
X164913333Y-86772857D01*
X164913333Y-86915714D01*
X164865714Y-87010952D01*
X164818095Y-87058571D01*
X164722857Y-87106190D01*
X164341904Y-87106190D01*
X165770476Y-86915714D02*
X165770476Y-87582380D01*
X165532380Y-86534761D02*
X165294285Y-87249047D01*
X165913333Y-87249047D01*
X164913333Y-97582380D02*
X164580000Y-97106190D01*
X164341904Y-97582380D02*
X164341904Y-96582380D01*
X164722857Y-96582380D01*
X164818095Y-96630000D01*
X164865714Y-96677619D01*
X164913333Y-96772857D01*
X164913333Y-96915714D01*
X164865714Y-97010952D01*
X164818095Y-97058571D01*
X164722857Y-97106190D01*
X164341904Y-97106190D01*
X165246666Y-96582380D02*
X165865714Y-96582380D01*
X165532380Y-96963333D01*
X165675238Y-96963333D01*
X165770476Y-97010952D01*
X165818095Y-97058571D01*
X165865714Y-97153809D01*
X165865714Y-97391904D01*
X165818095Y-97487142D01*
X165770476Y-97534761D01*
X165675238Y-97582380D01*
X165389523Y-97582380D01*
X165294285Y-97534761D01*
X165246666Y-97487142D01*
X134753333Y-136822380D02*
X134420000Y-136346190D01*
X134181904Y-136822380D02*
X134181904Y-135822380D01*
X134562857Y-135822380D01*
X134658095Y-135870000D01*
X134705714Y-135917619D01*
X134753333Y-136012857D01*
X134753333Y-136155714D01*
X134705714Y-136250952D01*
X134658095Y-136298571D01*
X134562857Y-136346190D01*
X134181904Y-136346190D01*
X135134285Y-135917619D02*
X135181904Y-135870000D01*
X135277142Y-135822380D01*
X135515238Y-135822380D01*
X135610476Y-135870000D01*
X135658095Y-135917619D01*
X135705714Y-136012857D01*
X135705714Y-136108095D01*
X135658095Y-136250952D01*
X135086666Y-136822380D01*
X135705714Y-136822380D01*
X134753333Y-130822380D02*
X134420000Y-130346190D01*
X134181904Y-130822380D02*
X134181904Y-129822380D01*
X134562857Y-129822380D01*
X134658095Y-129870000D01*
X134705714Y-129917619D01*
X134753333Y-130012857D01*
X134753333Y-130155714D01*
X134705714Y-130250952D01*
X134658095Y-130298571D01*
X134562857Y-130346190D01*
X134181904Y-130346190D01*
X135705714Y-130822380D02*
X135134285Y-130822380D01*
X135420000Y-130822380D02*
X135420000Y-129822380D01*
X135324761Y-129965238D01*
X135229523Y-130060476D01*
X135134285Y-130108095D01*
D16*
X164109087Y-46426397D02*
X164109087Y-45424680D01*
X164490693Y-45424680D01*
X164586095Y-45472381D01*
X164633796Y-45520082D01*
X164681497Y-45615483D01*
X164681497Y-45758586D01*
X164633796Y-45853987D01*
X164586095Y-45901688D01*
X164490693Y-45949389D01*
X164109087Y-45949389D01*
X165635513Y-46426397D02*
X165063103Y-46426397D01*
X165349308Y-46426397D02*
X165349308Y-45424680D01*
X165253906Y-45567783D01*
X165158505Y-45663184D01*
X165063103Y-45710885D01*
D10*
X204190476Y-61122380D02*
X204190476Y-61836666D01*
X204142857Y-61979523D01*
X204047619Y-62074761D01*
X203904761Y-62122380D01*
X203809523Y-62122380D01*
X205190476Y-62122380D02*
X204619047Y-62122380D01*
X204904761Y-62122380D02*
X204904761Y-61122380D01*
X204809523Y-61265238D01*
X204714285Y-61360476D01*
X204619047Y-61408095D01*
X205809523Y-61122380D02*
X205904761Y-61122380D01*
X206000000Y-61170000D01*
X206047619Y-61217619D01*
X206095238Y-61312857D01*
X206142857Y-61503333D01*
X206142857Y-61741428D01*
X206095238Y-61931904D01*
X206047619Y-62027142D01*
X206000000Y-62074761D01*
X205904761Y-62122380D01*
X205809523Y-62122380D01*
X205714285Y-62074761D01*
X205666666Y-62027142D01*
X205619047Y-61931904D01*
X205571428Y-61741428D01*
X205571428Y-61503333D01*
X205619047Y-61312857D01*
X205666666Y-61217619D01*
X205714285Y-61170000D01*
X205809523Y-61122380D01*
X234666666Y-66122380D02*
X234666666Y-66836666D01*
X234619047Y-66979523D01*
X234523809Y-67074761D01*
X234380952Y-67122380D01*
X234285714Y-67122380D01*
X235190476Y-67122380D02*
X235380952Y-67122380D01*
X235476190Y-67074761D01*
X235523809Y-67027142D01*
X235619047Y-66884285D01*
X235666666Y-66693809D01*
X235666666Y-66312857D01*
X235619047Y-66217619D01*
X235571428Y-66170000D01*
X235476190Y-66122380D01*
X235285714Y-66122380D01*
X235190476Y-66170000D01*
X235142857Y-66217619D01*
X235095238Y-66312857D01*
X235095238Y-66550952D01*
X235142857Y-66646190D01*
X235190476Y-66693809D01*
X235285714Y-66741428D01*
X235476190Y-66741428D01*
X235571428Y-66693809D01*
X235619047Y-66646190D01*
X235666666Y-66550952D01*
X219666666Y-66122380D02*
X219666666Y-66836666D01*
X219619047Y-66979523D01*
X219523809Y-67074761D01*
X219380952Y-67122380D01*
X219285714Y-67122380D01*
X220285714Y-66550952D02*
X220190476Y-66503333D01*
X220142857Y-66455714D01*
X220095238Y-66360476D01*
X220095238Y-66312857D01*
X220142857Y-66217619D01*
X220190476Y-66170000D01*
X220285714Y-66122380D01*
X220476190Y-66122380D01*
X220571428Y-66170000D01*
X220619047Y-66217619D01*
X220666666Y-66312857D01*
X220666666Y-66360476D01*
X220619047Y-66455714D01*
X220571428Y-66503333D01*
X220476190Y-66550952D01*
X220285714Y-66550952D01*
X220190476Y-66598571D01*
X220142857Y-66646190D01*
X220095238Y-66741428D01*
X220095238Y-66931904D01*
X220142857Y-67027142D01*
X220190476Y-67074761D01*
X220285714Y-67122380D01*
X220476190Y-67122380D01*
X220571428Y-67074761D01*
X220619047Y-67027142D01*
X220666666Y-66931904D01*
X220666666Y-66741428D01*
X220619047Y-66646190D01*
X220571428Y-66598571D01*
X220476190Y-66550952D01*
D16*
X136588333Y-59622333D02*
X136588333Y-60622333D01*
X136521666Y-60822333D01*
X136388333Y-60955666D01*
X136188333Y-61022333D01*
X136055000Y-61022333D01*
X137121666Y-59622333D02*
X138055000Y-59622333D01*
X137455000Y-61022333D01*
D10*
X174666666Y-41122380D02*
X174666666Y-41836666D01*
X174619047Y-41979523D01*
X174523809Y-42074761D01*
X174380952Y-42122380D01*
X174285714Y-42122380D01*
X175571428Y-41122380D02*
X175380952Y-41122380D01*
X175285714Y-41170000D01*
X175238095Y-41217619D01*
X175142857Y-41360476D01*
X175095238Y-41550952D01*
X175095238Y-41931904D01*
X175142857Y-42027142D01*
X175190476Y-42074761D01*
X175285714Y-42122380D01*
X175476190Y-42122380D01*
X175571428Y-42074761D01*
X175619047Y-42027142D01*
X175666666Y-41931904D01*
X175666666Y-41693809D01*
X175619047Y-41598571D01*
X175571428Y-41550952D01*
X175476190Y-41503333D01*
X175285714Y-41503333D01*
X175190476Y-41550952D01*
X175142857Y-41598571D01*
X175095238Y-41693809D01*
X219666666Y-41122380D02*
X219666666Y-41836666D01*
X219619047Y-41979523D01*
X219523809Y-42074761D01*
X219380952Y-42122380D01*
X219285714Y-42122380D01*
X220619047Y-41122380D02*
X220142857Y-41122380D01*
X220095238Y-41598571D01*
X220142857Y-41550952D01*
X220238095Y-41503333D01*
X220476190Y-41503333D01*
X220571428Y-41550952D01*
X220619047Y-41598571D01*
X220666666Y-41693809D01*
X220666666Y-41931904D01*
X220619047Y-42027142D01*
X220571428Y-42074761D01*
X220476190Y-42122380D01*
X220238095Y-42122380D01*
X220142857Y-42074761D01*
X220095238Y-42027142D01*
X189666666Y-41122380D02*
X189666666Y-41836666D01*
X189619047Y-41979523D01*
X189523809Y-42074761D01*
X189380952Y-42122380D01*
X189285714Y-42122380D01*
X190047619Y-41122380D02*
X190666666Y-41122380D01*
X190333333Y-41503333D01*
X190476190Y-41503333D01*
X190571428Y-41550952D01*
X190619047Y-41598571D01*
X190666666Y-41693809D01*
X190666666Y-41931904D01*
X190619047Y-42027142D01*
X190571428Y-42074761D01*
X190476190Y-42122380D01*
X190190476Y-42122380D01*
X190095238Y-42074761D01*
X190047619Y-42027142D01*
X189666666Y-66122380D02*
X189666666Y-66836666D01*
X189619047Y-66979523D01*
X189523809Y-67074761D01*
X189380952Y-67122380D01*
X189285714Y-67122380D01*
X190095238Y-66217619D02*
X190142857Y-66170000D01*
X190238095Y-66122380D01*
X190476190Y-66122380D01*
X190571428Y-66170000D01*
X190619047Y-66217619D01*
X190666666Y-66312857D01*
X190666666Y-66408095D01*
X190619047Y-66550952D01*
X190047619Y-67122380D01*
X190666666Y-67122380D01*
X204666666Y-41122380D02*
X204666666Y-41836666D01*
X204619047Y-41979523D01*
X204523809Y-42074761D01*
X204380952Y-42122380D01*
X204285714Y-42122380D01*
X205666666Y-42122380D02*
X205095238Y-42122380D01*
X205380952Y-42122380D02*
X205380952Y-41122380D01*
X205285714Y-41265238D01*
X205190476Y-41360476D01*
X205095238Y-41408095D01*
M02*
