G04 #@! TF.GenerationSoftware,KiCad,Pcbnew,(5.1.6)-1*
G04 #@! TF.CreationDate,2021-03-30T15:03:47-05:00*
G04 #@! TF.ProjectId,ControllerPCB,436f6e74-726f-46c6-9c65-725043422e6b,rev?*
G04 #@! TF.SameCoordinates,Original*
G04 #@! TF.FileFunction,Legend,Bot*
G04 #@! TF.FilePolarity,Positive*
%FSLAX46Y46*%
G04 Gerber Fmt 4.6, Leading zero omitted, Abs format (unit mm)*
G04 Created by KiCad (PCBNEW (5.1.6)-1) date 2021-03-30 15:03:47*
%MOMM*%
%LPD*%
G01*
G04 APERTURE LIST*
%ADD10C,0.150000*%
G04 APERTURE END LIST*
D10*
X56160000Y-46000000D02*
X56160000Y-143536000D01*
X109500000Y-46000000D02*
X109500000Y-145060000D01*
X56160000Y-143536000D02*
X57684000Y-145060000D01*
X109500000Y-145060000D02*
X108230000Y-145060000D01*
X108230000Y-145060000D02*
X105690000Y-147600000D01*
X105690000Y-147600000D02*
X71400000Y-147600000D01*
X71400000Y-147600000D02*
X68860000Y-145060000D01*
X68860000Y-145060000D02*
X57684000Y-145060000D01*
X56160000Y-46000000D02*
X109500000Y-46000000D01*
X54596380Y-47301904D02*
X55596380Y-47968571D01*
X54596380Y-47968571D02*
X55596380Y-47301904D01*
X55310666Y-48301904D02*
X55310666Y-48778095D01*
X55596380Y-48206666D02*
X54596380Y-48540000D01*
X55596380Y-48873333D01*
X55596380Y-49730476D02*
X55596380Y-49159047D01*
X55596380Y-49444761D02*
X54596380Y-49444761D01*
X54739238Y-49349523D01*
X54834476Y-49254285D01*
X54882095Y-49159047D01*
X77853142Y-108484000D02*
X77900761Y-108531619D01*
X77948380Y-108484000D01*
X77900761Y-108436380D01*
X77853142Y-108484000D01*
X77948380Y-108484000D01*
M02*
