M48
; DRILL file {KiCad (5.1.6)-1} date 03/30/21 14:44:58
; FORMAT={-:-/ absolute / inch / decimal}
; #@! TF.CreationDate,2021-03-30T14:44:58-05:00
; #@! TF.GenerationSoftware,Kicad,Pcbnew,(5.1.6)-1
; #@! TF.FileFunction,Plated,1,2,PTH
FMAT,2
INCH
T1C0.0157
T2C0.0315
T3C0.0394
T4C0.0400
T5C0.0433
T6C0.0472
T7C0.0709
T8C0.2362
%
G90
G05
T1
X3.2283Y-3.5433
X4.8031Y-3.3268
X4.9606Y-5.1181
X5.4331Y-2.5197
X6.1319Y-4.7441
X6.2205Y-5.1181
X6.8504Y-2.5984
X6.8898Y-3.3858
X7.7165Y-3.622
X8.6713Y-2.5098
T2
X6.2598Y-2.185
X6.2598Y-2.585
X6.4783Y-2.1787
X6.4783Y-2.5787
T3
X2.9677Y-4.252
X3.0677Y-4.252
X3.1677Y-4.252
X3.2677Y-4.252
X8.0906Y-2.2933
X8.0906Y-2.3933
T4
X6.5236Y-2.8937
X6.5236Y-2.9937
X6.5236Y-3.0937
X6.5236Y-3.1937
X6.5236Y-3.2937
X6.5236Y-3.3937
X6.5236Y-3.4937
X6.5236Y-3.5937
X6.5236Y-3.7537
X6.5236Y-3.8537
X6.5236Y-3.9537
X6.5236Y-4.0537
X6.5236Y-4.1537
X6.5236Y-4.2537
X6.5236Y-4.3537
X6.5236Y-4.4537
X6.5236Y-4.5537
X6.5236Y-4.6537
X7.3236Y-2.7887
X7.3236Y-2.8887
X7.4236Y-2.7887
X7.4236Y-2.8887
X7.5236Y-2.7887
X7.5236Y-2.8887
X8.4236Y-2.8937
X8.4236Y-2.9937
X8.4236Y-3.0937
X8.4236Y-3.1937
X8.4236Y-3.2937
X8.4236Y-3.3937
X8.4236Y-3.5937
X8.4236Y-3.6937
X8.4236Y-3.7937
X8.4236Y-3.8937
X8.4236Y-3.9937
X8.4236Y-4.0937
X8.4236Y-4.1937
X8.4236Y-4.2937
T5
X6.9904Y-2.5154
X7.0404Y-2.4154
X7.0904Y-2.5154
X7.1404Y-2.4154
X7.1904Y-2.5154
X7.2404Y-2.4154
X7.2904Y-2.5154
X7.3404Y-2.4154
X4.8228Y-2.6575
X4.8228Y-2.8543
X5.0197Y-2.6575
X5.0197Y-2.8543
X5.6102Y-3.4449
X5.6102Y-3.6417
X5.8071Y-3.4449
X5.8071Y-3.6417
X4.0354Y-3.4449
X4.0354Y-3.6417
X4.2323Y-3.4449
X4.2323Y-3.6417
X4.8228Y-4.2323
X4.8228Y-4.4291
X5.0197Y-4.2323
X5.0197Y-4.4291
X3.4449Y-5.0197
X3.4449Y-5.2165
X3.6417Y-5.0197
X3.6417Y-5.2165
T6
X5.3642Y-5.2854
X5.502Y-5.2854
X5.6398Y-5.2854
X4.3504Y-5.2854
X4.4882Y-5.2854
X4.626Y-5.2854
T7
X6.8602Y-2.0453
X7.4705Y-2.0453
T8
X2.9528Y-2.1654
X2.9528Y-5.1181
X8.8583Y-2.1654
X8.8583Y-5.1181
T0
M30
