M48
; DRILL file {KiCad (5.1.6)-1} date 03/30/21 15:03:49
; FORMAT={-:-/ absolute / inch / decimal}
; #@! TF.CreationDate,2021-03-30T15:03:49-05:00
; #@! TF.GenerationSoftware,Kicad,Pcbnew,(5.1.6)-1
; #@! TF.FileFunction,Plated,1,2,PTH
FMAT,2
INCH
T1C0.0157
T2C0.0315
T3C0.0362
T4C0.0394
T5C0.0400
T6C0.0433
T7C0.0472
T8C0.0709
T9C0.2362
%
G90
G05
T1
X2.2039Y-4.1642
X2.9528Y-5.3543
X3.0315Y-5.315
X3.0709Y-5.0984
X3.563Y-2.9626
X3.5827Y-1.6535
X3.6417Y-1.6142
X3.7205Y-2.815
X3.878Y-1.5354
X4.3898Y-5.4331
X4.5374Y-5.0886
X4.6134Y-4.9339
X4.7313Y-3.0315
X5.2657Y-3.0118
X5.4956Y-2.2672
X6.1417Y-3.1102
X6.1417Y-3.5925
X6.2402Y-3.1102
X6.3484Y-3.1102
X6.6728Y-3.2969
X6.8142Y-5.0
X6.8898Y-2.0571
X7.5787Y-3.3071
X7.628Y-3.4547
X7.6673Y-3.3858
X7.9429Y-4.1339
X8.0118Y-3.7795
X8.061Y-3.7106
X8.3529Y-2.2672
X9.0123Y-2.2672
X9.1142Y-4.813
X9.1457Y-4.628
X9.1791Y-2.4154
T2
X6.2992Y-3.9173
X6.6992Y-3.9173
X6.2992Y-3.5236
X6.6992Y-3.5236
X5.1118Y-5.2756
X5.5118Y-5.2756
X5.1118Y-5.0394
X5.5118Y-5.0394
T3
X6.0433Y-2.1067
X6.1417Y-2.1067
X6.2205Y-2.1067
X6.3189Y-2.1067
T4
X6.1024Y-5.2756
X6.2024Y-5.2756
X6.3024Y-5.2756
X9.252Y-1.7717
X9.252Y-1.8717
X9.252Y-1.9717
X6.8898Y-1.7323
X6.8898Y-1.8323
X6.8898Y-5.2756
X6.9898Y-5.2756
X7.0898Y-5.2756
X8.0709Y-1.7323
X8.0709Y-1.8323
X8.0709Y-2.5197
X8.0709Y-2.6197
X8.0709Y-2.7197
X8.0709Y-2.8197
X8.0709Y-2.9197
X8.0709Y-3.0197
X9.252Y-2.7165
X9.252Y-2.8165
X9.252Y-2.9165
X9.252Y-3.0165
X6.8898Y-2.3622
X6.8898Y-2.4622
X7.4803Y-1.7323
X7.4803Y-1.8323
X8.6614Y-1.7323
X8.6614Y-1.8323
X8.6614Y-1.9323
X7.4803Y-2.7165
X7.4803Y-2.8165
X7.4803Y-2.9165
X7.4803Y-3.0165
X6.8898Y-2.9528
X6.8898Y-3.0528
X8.6614Y-2.7165
X8.6614Y-2.8165
X8.6614Y-2.9165
X8.6614Y-3.0165
T5
X7.674Y-4.8287
X7.674Y-4.9287
X7.674Y-5.0287
X7.674Y-5.1287
X7.674Y-5.2287
X7.674Y-5.3287
X8.074Y-4.8287
X8.074Y-4.9287
X8.074Y-5.0287
X8.074Y-5.1287
X8.074Y-5.2287
X8.074Y-5.3287
X2.311Y-2.551
X2.311Y-2.651
X2.311Y-2.751
X2.311Y-2.851
X2.311Y-2.951
X2.311Y-3.051
X2.311Y-3.151
X2.311Y-3.251
X2.311Y-3.351
X2.311Y-3.451
X2.311Y-3.611
X2.311Y-3.711
X2.311Y-3.811
X2.311Y-3.911
X2.311Y-4.011
X2.311Y-4.111
X2.311Y-4.211
X2.311Y-4.311
X2.311Y-4.511
X2.311Y-4.611
X2.311Y-4.711
X2.311Y-4.811
X2.311Y-4.911
X2.311Y-5.011
X2.311Y-5.111
X2.311Y-5.211
X2.311Y-5.511
X2.311Y-5.611
X2.411Y-5.511
X2.411Y-5.611
X2.511Y-5.511
X2.511Y-5.611
X2.611Y-5.511
X2.611Y-5.611
X2.711Y-5.511
X2.711Y-5.611
X2.811Y-5.511
X2.811Y-5.611
X2.911Y-5.511
X2.911Y-5.611
X3.011Y-5.511
X3.011Y-5.611
X3.111Y-4.316
X3.111Y-4.416
X3.111Y-5.511
X3.111Y-5.611
X3.211Y-4.316
X3.211Y-4.416
X3.211Y-5.511
X3.211Y-5.611
X3.311Y-4.316
X3.311Y-4.416
X3.311Y-5.511
X3.311Y-5.611
X3.411Y-5.511
X3.411Y-5.611
X3.511Y-5.511
X3.511Y-5.611
X3.611Y-5.511
X3.611Y-5.611
X3.711Y-5.511
X3.711Y-5.611
X3.811Y-5.511
X3.811Y-5.611
X3.911Y-5.511
X3.911Y-5.611
X4.011Y-5.511
X4.011Y-5.611
X4.211Y-2.911
X4.211Y-3.011
X4.211Y-3.111
X4.211Y-3.211
X4.211Y-3.311
X4.211Y-3.411
X4.211Y-3.511
X4.211Y-3.611
X4.211Y-3.811
X4.211Y-3.911
X4.211Y-4.011
X4.211Y-4.111
X4.211Y-4.211
X4.211Y-4.311
X4.211Y-4.411
X4.211Y-4.511
X4.211Y-4.711
X4.211Y-4.811
X4.211Y-4.911
X4.211Y-5.011
X4.211Y-5.111
X4.211Y-5.211
X4.211Y-5.311
X4.211Y-5.411
X8.7748Y-4.028
X8.7748Y-4.128
X8.7748Y-4.228
X8.7748Y-4.328
X8.7748Y-4.428
X8.7748Y-4.528
X8.7748Y-4.628
X8.7748Y-4.728
X8.7748Y-4.828
X8.7748Y-4.928
X8.7748Y-5.028
X8.7748Y-5.128
X8.7748Y-5.228
X8.7748Y-5.328
X8.7748Y-5.428
X9.3748Y-4.028
X9.3748Y-4.128
X9.3748Y-4.228
X9.3748Y-4.328
X9.3748Y-4.428
X9.3748Y-4.528
X9.3748Y-4.628
X9.3748Y-4.728
X9.3748Y-4.828
X9.3748Y-4.928
X9.3748Y-5.028
X9.3748Y-5.128
X9.3748Y-5.228
X9.3748Y-5.328
X9.3748Y-5.428
T6
X5.0415Y-2.2594
X5.0915Y-2.1594
X5.1415Y-2.2594
X5.1915Y-2.1594
X5.2415Y-2.2594
X5.2915Y-2.1594
X5.3415Y-2.2594
X5.3915Y-2.1594
T7
X4.9213Y-3.4646
X5.5213Y-3.4646
X4.9213Y-4.1732
X5.5213Y-4.1732
X4.9213Y-3.8307
X5.5213Y-3.8307
X4.9213Y-4.5276
X5.5213Y-4.5276
T8
X4.9114Y-1.7894
X5.5217Y-1.7894
T9
X1.7717Y-1.5748
X1.7717Y-5.9055
X9.8425Y-1.5748
X9.8425Y-5.9055
T0
M30
