G04 #@! TF.GenerationSoftware,KiCad,Pcbnew,(5.1.6)-1*
G04 #@! TF.CreationDate,2021-03-30T14:44:56-05:00*
G04 #@! TF.ProjectId,UIpcb,55497063-622e-46b6-9963-61645f706362,rev?*
G04 #@! TF.SameCoordinates,Original*
G04 #@! TF.FileFunction,Soldermask,Top*
G04 #@! TF.FilePolarity,Negative*
%FSLAX46Y46*%
G04 Gerber Fmt 4.6, Leading zero omitted, Abs format (unit mm)*
G04 Created by KiCad (PCBNEW (5.1.6)-1) date 2021-03-30 14:44:56*
%MOMM*%
%LPD*%
G01*
G04 APERTURE LIST*
%ADD10C,2.600000*%
%ADD11O,2.100000X3.600000*%
%ADD12O,1.800000X1.800000*%
%ADD13R,1.800000X1.800000*%
%ADD14O,1.700000X1.700000*%
%ADD15C,1.700000*%
%ADD16O,1.827200X1.827200*%
%ADD17C,3.300000*%
%ADD18C,2.300000*%
%ADD19C,2.800000*%
%ADD20C,1.750000*%
%ADD21R,1.750000X1.750000*%
%ADD22C,3.500000*%
G04 APERTURE END LIST*
D10*
X117500000Y-134250000D03*
X114000000Y-134250000D03*
X110500000Y-134250000D03*
D11*
X119850000Y-124250000D03*
X108150000Y-124250000D03*
D10*
X143250000Y-134250000D03*
X139750000Y-134250000D03*
X136250000Y-134250000D03*
D11*
X145600000Y-124250000D03*
X133900000Y-124250000D03*
D12*
X75380000Y-108000000D03*
X77920000Y-108000000D03*
X80460000Y-108000000D03*
D13*
X83000000Y-108000000D03*
D14*
X164550000Y-55340000D03*
D15*
X164550000Y-65500000D03*
D14*
X159000000Y-65660000D03*
D15*
X159000000Y-55500000D03*
D16*
X186020000Y-73373000D03*
X213960000Y-73500000D03*
X213960000Y-76040000D03*
X213960000Y-78580000D03*
X213960000Y-81120000D03*
X213960000Y-83660000D03*
X213960000Y-109060000D03*
X165700000Y-102964000D03*
X165700000Y-105504000D03*
X165700000Y-108044000D03*
X165700000Y-113124000D03*
X165700000Y-115664000D03*
X165700000Y-118204000D03*
D17*
X213960000Y-123030000D03*
X165700000Y-121760000D03*
X180940000Y-70960000D03*
X208880000Y-70960000D03*
D16*
X165700000Y-100424000D03*
X165700000Y-97884000D03*
X165700000Y-95344000D03*
X165700000Y-110584000D03*
X165700000Y-91280000D03*
X165700000Y-88740000D03*
X165700000Y-86200000D03*
X165700000Y-83660000D03*
X165700000Y-81120000D03*
X165700000Y-78580000D03*
X165700000Y-76040000D03*
X165700000Y-73500000D03*
X213960000Y-106520000D03*
X213960000Y-103980000D03*
X213960000Y-101440000D03*
X213960000Y-98900000D03*
X213960000Y-96360000D03*
X213960000Y-93820000D03*
X213960000Y-91280000D03*
X213960000Y-86200000D03*
X186020000Y-70833000D03*
X188560000Y-73373000D03*
X188560000Y-70833000D03*
X191100000Y-70833000D03*
X191100000Y-73373000D03*
D18*
X92500000Y-127500000D03*
X92500000Y-132500000D03*
X87500000Y-132500000D03*
X87500000Y-127500000D03*
X127500000Y-107500000D03*
X127500000Y-112500000D03*
X122500000Y-112500000D03*
X122500000Y-107500000D03*
X147500000Y-87500000D03*
X147500000Y-92500000D03*
X142500000Y-92500000D03*
X142500000Y-87500000D03*
X107500000Y-87500000D03*
X107500000Y-92500000D03*
X102500000Y-92500000D03*
X102500000Y-87500000D03*
X127500000Y-67500000D03*
X127500000Y-72500000D03*
X122500000Y-72500000D03*
X122500000Y-67500000D03*
D19*
X174250000Y-51950000D03*
X189750000Y-51950000D03*
D20*
X177555000Y-63890000D03*
X178825000Y-61350000D03*
X180095000Y-63890000D03*
X181365000Y-61350000D03*
X182635000Y-63890000D03*
X183905000Y-61350000D03*
X185175000Y-63890000D03*
D21*
X186445000Y-61350000D03*
D22*
X176285000Y-55000000D03*
X187715000Y-55000000D03*
D12*
X205500000Y-60790000D03*
D13*
X205500000Y-58250000D03*
M02*
