G04 #@! TF.GenerationSoftware,KiCad,Pcbnew,(5.1.6)-1*
G04 #@! TF.CreationDate,2021-03-30T14:44:55-05:00*
G04 #@! TF.ProjectId,UIpcb,55497063-622e-46b6-9963-61645f706362,rev?*
G04 #@! TF.SameCoordinates,Original*
G04 #@! TF.FileFunction,Copper,L1,Top*
G04 #@! TF.FilePolarity,Positive*
%FSLAX46Y46*%
G04 Gerber Fmt 4.6, Leading zero omitted, Abs format (unit mm)*
G04 Created by KiCad (PCBNEW (5.1.6)-1) date 2021-03-30 14:44:55*
%MOMM*%
%LPD*%
G01*
G04 APERTURE LIST*
G04 #@! TA.AperFunction,ComponentPad*
%ADD10C,2.500000*%
G04 #@! TD*
G04 #@! TA.AperFunction,ComponentPad*
%ADD11O,1.700000X1.700000*%
G04 #@! TD*
G04 #@! TA.AperFunction,ComponentPad*
%ADD12R,1.700000X1.700000*%
G04 #@! TD*
G04 #@! TA.AperFunction,ComponentPad*
%ADD13O,1.600000X1.600000*%
G04 #@! TD*
G04 #@! TA.AperFunction,ComponentPad*
%ADD14C,1.600000*%
G04 #@! TD*
G04 #@! TA.AperFunction,ComponentPad*
%ADD15O,1.727200X1.727200*%
G04 #@! TD*
G04 #@! TA.AperFunction,ComponentPad*
%ADD16C,2.200000*%
G04 #@! TD*
G04 #@! TA.AperFunction,ComponentPad*
%ADD17C,2.700000*%
G04 #@! TD*
G04 #@! TA.AperFunction,ComponentPad*
%ADD18C,1.650000*%
G04 #@! TD*
G04 #@! TA.AperFunction,ComponentPad*
%ADD19R,1.650000X1.650000*%
G04 #@! TD*
G04 #@! TA.AperFunction,ViaPad*
%ADD20C,0.800000*%
G04 #@! TD*
G04 #@! TA.AperFunction,ViaPad*
%ADD21C,6.200000*%
G04 #@! TD*
G04 #@! TA.AperFunction,Conductor*
%ADD22C,0.250000*%
G04 #@! TD*
G04 #@! TA.AperFunction,Conductor*
%ADD23C,2.500000*%
G04 #@! TD*
G04 #@! TA.AperFunction,Conductor*
%ADD24C,1.250000*%
G04 #@! TD*
G04 #@! TA.AperFunction,Conductor*
%ADD25C,0.254000*%
G04 #@! TD*
G04 APERTURE END LIST*
D10*
X117500000Y-134250000D03*
X114000000Y-134250000D03*
X110500000Y-134250000D03*
X143250000Y-134250000D03*
X139750000Y-134250000D03*
X136250000Y-134250000D03*
D11*
X75380000Y-108000000D03*
X77920000Y-108000000D03*
X80460000Y-108000000D03*
D12*
X83000000Y-108000000D03*
D13*
X164550000Y-55340000D03*
D14*
X164550000Y-65500000D03*
D13*
X159000000Y-65660000D03*
D14*
X159000000Y-55500000D03*
D15*
X186020000Y-73373000D03*
X213960000Y-73500000D03*
X213960000Y-76040000D03*
X213960000Y-78580000D03*
X213960000Y-81120000D03*
X213960000Y-83660000D03*
X213960000Y-109060000D03*
X165700000Y-102964000D03*
X165700000Y-105504000D03*
X165700000Y-108044000D03*
X165700000Y-113124000D03*
X165700000Y-115664000D03*
X165700000Y-118204000D03*
X165700000Y-100424000D03*
X165700000Y-97884000D03*
X165700000Y-95344000D03*
X165700000Y-110584000D03*
X165700000Y-91280000D03*
X165700000Y-88740000D03*
X165700000Y-86200000D03*
X165700000Y-83660000D03*
X165700000Y-81120000D03*
X165700000Y-78580000D03*
X165700000Y-76040000D03*
X165700000Y-73500000D03*
X213960000Y-106520000D03*
X213960000Y-103980000D03*
X213960000Y-101440000D03*
X213960000Y-98900000D03*
X213960000Y-96360000D03*
X213960000Y-93820000D03*
X213960000Y-91280000D03*
X213960000Y-86200000D03*
X186020000Y-70833000D03*
X188560000Y-73373000D03*
X188560000Y-70833000D03*
X191100000Y-70833000D03*
X191100000Y-73373000D03*
D16*
X92500000Y-127500000D03*
X92500000Y-132500000D03*
X87500000Y-132500000D03*
X87500000Y-127500000D03*
X127500000Y-107500000D03*
X127500000Y-112500000D03*
X122500000Y-112500000D03*
X122500000Y-107500000D03*
X147500000Y-87500000D03*
X147500000Y-92500000D03*
X142500000Y-92500000D03*
X142500000Y-87500000D03*
X107500000Y-87500000D03*
X107500000Y-92500000D03*
X102500000Y-92500000D03*
X102500000Y-87500000D03*
X127500000Y-67500000D03*
X127500000Y-72500000D03*
X122500000Y-72500000D03*
X122500000Y-67500000D03*
D17*
X174250000Y-51950000D03*
X189750000Y-51950000D03*
D18*
X177555000Y-63890000D03*
X178825000Y-61350000D03*
X180095000Y-63890000D03*
X181365000Y-61350000D03*
X182635000Y-63890000D03*
X183905000Y-61350000D03*
X185175000Y-63890000D03*
D19*
X186445000Y-61350000D03*
D11*
X205500000Y-60790000D03*
D12*
X205500000Y-58250000D03*
D20*
X126000000Y-130000000D03*
X220250000Y-63750000D03*
D21*
X225000000Y-55000000D03*
X75000000Y-130000000D03*
X225000000Y-130000000D03*
X75000000Y-55000000D03*
D20*
X174000000Y-66000000D03*
X196000000Y-92000000D03*
X138000000Y-64000000D03*
X82000000Y-90000000D03*
X158000000Y-130000000D03*
X175000000Y-86000000D03*
X155750000Y-120500000D03*
X122000000Y-84500000D03*
D22*
X102000000Y-126500000D02*
X102000000Y-119500000D01*
X110000000Y-134500000D02*
X102000000Y-126500000D01*
X136500000Y-134500000D02*
X128500000Y-126500000D01*
D23*
X146500000Y-119500000D02*
X128500000Y-119500000D01*
D22*
X128500000Y-126500000D02*
X128500000Y-119500000D01*
D23*
X128500000Y-119500000D02*
X102000000Y-119500000D01*
D24*
X151185001Y-124185001D02*
X188674999Y-124185001D01*
X188674999Y-124185001D02*
X213960000Y-98900000D01*
X146500000Y-119500000D02*
X151185001Y-124185001D01*
D22*
X159160000Y-55340000D02*
X159000000Y-55500000D01*
X164550000Y-55340000D02*
X159160000Y-55340000D01*
D24*
X80460000Y-109202081D02*
X80460000Y-108000000D01*
X90757919Y-119500000D02*
X80460000Y-109202081D01*
X102000000Y-119500000D02*
X90757919Y-119500000D01*
D22*
X200500000Y-63750000D02*
X220250000Y-63750000D01*
X195950010Y-59200010D02*
X200500000Y-63750000D01*
X170950010Y-59200010D02*
X195950010Y-59200010D01*
X164550000Y-55340000D02*
X167090000Y-55340000D01*
X167090000Y-55340000D02*
X170950010Y-59200010D01*
D24*
X205500000Y-58250000D02*
X209500000Y-58250000D01*
X205500000Y-58250000D02*
X202250000Y-58250000D01*
X205500000Y-58250000D02*
X205500000Y-55750000D01*
X122500000Y-67500000D02*
X122500000Y-72500000D01*
D22*
X122500000Y-84000000D02*
X122000000Y-84500000D01*
X122500000Y-72500000D02*
X122500000Y-84000000D01*
D24*
X122500000Y-107500000D02*
X122500000Y-112500000D01*
D22*
X140434999Y-108925001D02*
X165700000Y-83660000D01*
X123925001Y-108925001D02*
X140434999Y-108925001D01*
X122500000Y-107500000D02*
X123925001Y-108925001D01*
D24*
X102500000Y-87500000D02*
X102500000Y-92500000D01*
X142500000Y-87500000D02*
X142500000Y-92500000D01*
D22*
X161808601Y-82471399D02*
X165700000Y-78580000D01*
X147528601Y-82471399D02*
X161808601Y-82471399D01*
X142500000Y-87500000D02*
X147528601Y-82471399D01*
X83180998Y-101000000D02*
X76180998Y-108000000D01*
X84000000Y-101000000D02*
X83180998Y-101000000D01*
X98664000Y-115664000D02*
X84000000Y-101000000D01*
X76180998Y-108000000D02*
X75380000Y-108000000D01*
X165700000Y-115664000D02*
X98664000Y-115664000D01*
X183905000Y-99999000D02*
X165700000Y-118204000D01*
X183905000Y-61350000D02*
X183905000Y-99999000D01*
X169850001Y-60199999D02*
X164550000Y-65500000D01*
X182754999Y-60199999D02*
X169850001Y-60199999D01*
X183905000Y-61350000D02*
X182754999Y-60199999D01*
X165700000Y-118204000D02*
X164496000Y-117000000D01*
X97000000Y-117000000D02*
X84000000Y-104000000D01*
X78720998Y-108000000D02*
X77920000Y-108000000D01*
X164496000Y-117000000D02*
X97000000Y-117000000D01*
X84000000Y-104000000D02*
X82720998Y-104000000D01*
X82720998Y-104000000D02*
X78720998Y-108000000D01*
X216598611Y-105640519D02*
X216598611Y-88838611D01*
X216598611Y-88838611D02*
X213960000Y-86200000D01*
X142500000Y-137000000D02*
X184260870Y-137000000D01*
X184260870Y-137000000D02*
X213552269Y-107708601D01*
X140000000Y-134500000D02*
X142500000Y-137000000D01*
X213552269Y-107708601D02*
X214530529Y-107708601D01*
X214530529Y-107708601D02*
X216598611Y-105640519D01*
X217048621Y-86748621D02*
X213960000Y-83660000D01*
X217048621Y-107730509D02*
X217048621Y-86748621D01*
X186779130Y-138000000D02*
X217048621Y-107730509D01*
X113500000Y-134500000D02*
X117000000Y-138000000D01*
X117000000Y-138000000D02*
X186779130Y-138000000D01*
D25*
G36*
X230502820Y-47205429D02*
G01*
X230989752Y-47338638D01*
X231445392Y-47555967D01*
X231855355Y-47850555D01*
X232206665Y-48213079D01*
X232488226Y-48632086D01*
X232691137Y-49094331D01*
X232812960Y-49601759D01*
X232848000Y-50078913D01*
X232848001Y-134904153D01*
X232794572Y-135502818D01*
X232661361Y-135989752D01*
X232444033Y-136445393D01*
X232149445Y-136855355D01*
X231786921Y-137206665D01*
X231367914Y-137488226D01*
X230905669Y-137691137D01*
X230398241Y-137812960D01*
X229921088Y-137848000D01*
X190115937Y-137848000D01*
X205301015Y-122662923D01*
X210233000Y-122662923D01*
X210233000Y-123397077D01*
X210376227Y-124117126D01*
X210657176Y-124795396D01*
X211065050Y-125405824D01*
X211584176Y-125924950D01*
X212194604Y-126332824D01*
X212872874Y-126613773D01*
X213592923Y-126757000D01*
X214327077Y-126757000D01*
X215047126Y-126613773D01*
X215725396Y-126332824D01*
X216335824Y-125924950D01*
X216854950Y-125405824D01*
X217262824Y-124795396D01*
X217543773Y-124117126D01*
X217687000Y-123397077D01*
X217687000Y-122662923D01*
X217543773Y-121942874D01*
X217262824Y-121264604D01*
X216854950Y-120654176D01*
X216335824Y-120135050D01*
X215725396Y-119727176D01*
X215047126Y-119446227D01*
X214327077Y-119303000D01*
X213592923Y-119303000D01*
X212872874Y-119446227D01*
X212194604Y-119727176D01*
X211584176Y-120135050D01*
X211065050Y-120654176D01*
X210657176Y-121264604D01*
X210376227Y-121942874D01*
X210233000Y-122662923D01*
X205301015Y-122662923D01*
X218562800Y-109401139D01*
X218648730Y-109330618D01*
X218721122Y-109242409D01*
X218930150Y-108987707D01*
X219139264Y-108596482D01*
X219268036Y-108171978D01*
X219311517Y-107730509D01*
X219300621Y-107619881D01*
X219300621Y-86859249D01*
X219311517Y-86748621D01*
X219295958Y-86590643D01*
X219268036Y-86307152D01*
X219139264Y-85882648D01*
X218930150Y-85491423D01*
X218795765Y-85327674D01*
X218719252Y-85234443D01*
X218719251Y-85234442D01*
X218648730Y-85148512D01*
X218562800Y-85077991D01*
X216950600Y-83465792D01*
X216950600Y-83365452D01*
X216835673Y-82787674D01*
X216670951Y-82390000D01*
X216835673Y-81992326D01*
X216950600Y-81414548D01*
X216950600Y-80825452D01*
X216835673Y-80247674D01*
X216670951Y-79850000D01*
X216835673Y-79452326D01*
X216950600Y-78874548D01*
X216950600Y-78285452D01*
X216835673Y-77707674D01*
X216670951Y-77310000D01*
X216835673Y-76912326D01*
X216950600Y-76334548D01*
X216950600Y-75745452D01*
X216835673Y-75167674D01*
X216670951Y-74770000D01*
X216835673Y-74372326D01*
X216950600Y-73794548D01*
X216950600Y-73205452D01*
X216835673Y-72627674D01*
X216610235Y-72083420D01*
X216282951Y-71593604D01*
X215866396Y-71177049D01*
X215376580Y-70849765D01*
X214832326Y-70624327D01*
X214254548Y-70509400D01*
X213665452Y-70509400D01*
X213087674Y-70624327D01*
X212607000Y-70823429D01*
X212607000Y-70592923D01*
X212463773Y-69872874D01*
X212182824Y-69194604D01*
X211774950Y-68584176D01*
X211255824Y-68065050D01*
X210645396Y-67657176D01*
X209967126Y-67376227D01*
X209247077Y-67233000D01*
X208512923Y-67233000D01*
X207792874Y-67376227D01*
X207114604Y-67657176D01*
X206504176Y-68065050D01*
X205985050Y-68584176D01*
X205577176Y-69194604D01*
X205296227Y-69872874D01*
X205153000Y-70592923D01*
X205153000Y-71327077D01*
X205296227Y-72047126D01*
X205577176Y-72725396D01*
X205985050Y-73335824D01*
X206504176Y-73854950D01*
X207114604Y-74262824D01*
X207792874Y-74543773D01*
X208512923Y-74687000D01*
X209247077Y-74687000D01*
X209967126Y-74543773D01*
X210645396Y-74262824D01*
X211013607Y-74016794D01*
X211084327Y-74372326D01*
X211249049Y-74770000D01*
X211084327Y-75167674D01*
X210969400Y-75745452D01*
X210969400Y-76334548D01*
X211084327Y-76912326D01*
X211249049Y-77310000D01*
X211084327Y-77707674D01*
X210969400Y-78285452D01*
X210969400Y-78874548D01*
X211084327Y-79452326D01*
X211249049Y-79850000D01*
X211084327Y-80247674D01*
X210969400Y-80825452D01*
X210969400Y-81414548D01*
X211084327Y-81992326D01*
X211249049Y-82390000D01*
X211084327Y-82787674D01*
X210969400Y-83365452D01*
X210969400Y-83954548D01*
X211084327Y-84532326D01*
X211249049Y-84930000D01*
X211084327Y-85327674D01*
X210969400Y-85905452D01*
X210969400Y-86494548D01*
X211084327Y-87072326D01*
X211309765Y-87616580D01*
X211637049Y-88106396D01*
X212053604Y-88522951D01*
X212378441Y-88740000D01*
X212053604Y-88957049D01*
X211637049Y-89373604D01*
X211309765Y-89863420D01*
X211084327Y-90407674D01*
X210969400Y-90985452D01*
X210969400Y-91574548D01*
X211084327Y-92152326D01*
X211309765Y-92696580D01*
X211637049Y-93186396D01*
X212053604Y-93602951D01*
X212461400Y-93875431D01*
X212461400Y-93947002D01*
X212583899Y-93947002D01*
X212618164Y-93961195D01*
X212505037Y-94179027D01*
X212603036Y-94455978D01*
X212753183Y-94708488D01*
X212949707Y-94926854D01*
X213168078Y-95090000D01*
X212949707Y-95253146D01*
X212753183Y-95471512D01*
X212603036Y-95724022D01*
X212505037Y-96000973D01*
X212618164Y-96218805D01*
X212583899Y-96232998D01*
X212461400Y-96232998D01*
X212461400Y-96304569D01*
X212053604Y-96577049D01*
X211637049Y-96993604D01*
X211309765Y-97483420D01*
X211186092Y-97781992D01*
X187535085Y-121433001D01*
X169427000Y-121433001D01*
X169427000Y-121392923D01*
X169283773Y-120672874D01*
X169002824Y-119994604D01*
X168594950Y-119384176D01*
X168491152Y-119280378D01*
X168575673Y-119076326D01*
X168690600Y-118498548D01*
X168690600Y-118398207D01*
X185419179Y-101669630D01*
X185505109Y-101599109D01*
X185786529Y-101256198D01*
X185995643Y-100864973D01*
X186124415Y-100440469D01*
X186157000Y-100109629D01*
X186157000Y-100109621D01*
X186167895Y-99999000D01*
X186157000Y-99888379D01*
X186157000Y-76363600D01*
X186314548Y-76363600D01*
X186892326Y-76248673D01*
X187290000Y-76083951D01*
X187687674Y-76248673D01*
X188265452Y-76363600D01*
X188854548Y-76363600D01*
X189432326Y-76248673D01*
X189830000Y-76083951D01*
X190227674Y-76248673D01*
X190805452Y-76363600D01*
X191394548Y-76363600D01*
X191972326Y-76248673D01*
X192516580Y-76023235D01*
X193006396Y-75695951D01*
X193422951Y-75279396D01*
X193750235Y-74789580D01*
X193975673Y-74245326D01*
X194090600Y-73667548D01*
X194090600Y-73078452D01*
X193975673Y-72500674D01*
X193810951Y-72103000D01*
X193975673Y-71705326D01*
X194090600Y-71127548D01*
X194090600Y-70538452D01*
X193975673Y-69960674D01*
X193750235Y-69416420D01*
X193422951Y-68926604D01*
X193006396Y-68510049D01*
X192516580Y-68182765D01*
X191972326Y-67957327D01*
X191394548Y-67842400D01*
X190805452Y-67842400D01*
X190227674Y-67957327D01*
X189830000Y-68122049D01*
X189432326Y-67957327D01*
X188854548Y-67842400D01*
X188265452Y-67842400D01*
X187687674Y-67957327D01*
X187290000Y-68122049D01*
X186892326Y-67957327D01*
X186314548Y-67842400D01*
X186157000Y-67842400D01*
X186157000Y-66678464D01*
X186573296Y-66506028D01*
X187056790Y-66182968D01*
X187467968Y-65771790D01*
X187791028Y-65288296D01*
X188013556Y-64751067D01*
X188127000Y-64180747D01*
X188127000Y-64128703D01*
X188457415Y-63952093D01*
X188781293Y-63686293D01*
X189047093Y-63362415D01*
X189244599Y-62992906D01*
X189366224Y-62591965D01*
X189407291Y-62175000D01*
X189407291Y-61452010D01*
X195017203Y-61452010D01*
X198829370Y-65264179D01*
X198899891Y-65350109D01*
X198985821Y-65420630D01*
X198985822Y-65420631D01*
X199242802Y-65631529D01*
X199634027Y-65840643D01*
X200058531Y-65969415D01*
X200500000Y-66012896D01*
X200610628Y-66002000D01*
X219083441Y-66002000D01*
X219512901Y-66179889D01*
X220001112Y-66277000D01*
X220498888Y-66277000D01*
X220987099Y-66179889D01*
X221446983Y-65989398D01*
X221860869Y-65712849D01*
X222212849Y-65360869D01*
X222489398Y-64946983D01*
X222679889Y-64487099D01*
X222777000Y-63998888D01*
X222777000Y-63501112D01*
X222679889Y-63012901D01*
X222489398Y-62553017D01*
X222212849Y-62139131D01*
X221860869Y-61787151D01*
X221446983Y-61510602D01*
X220987099Y-61320111D01*
X220498888Y-61223000D01*
X220001112Y-61223000D01*
X219512901Y-61320111D01*
X219083441Y-61498000D01*
X208394493Y-61498000D01*
X208477000Y-61083209D01*
X208477000Y-60496791D01*
X208362595Y-59921641D01*
X208138183Y-59379862D01*
X207812387Y-58892273D01*
X207397727Y-58477613D01*
X206985000Y-58201838D01*
X206985000Y-58122998D01*
X206840564Y-58122998D01*
X206830444Y-58118806D01*
X206985000Y-57964250D01*
X206988072Y-57400000D01*
X206975812Y-57275518D01*
X206939502Y-57155820D01*
X206880537Y-57045506D01*
X206801185Y-56948815D01*
X206704494Y-56869463D01*
X206594180Y-56810498D01*
X206474482Y-56774188D01*
X206350000Y-56761928D01*
X205785750Y-56765000D01*
X205627000Y-56923750D01*
X205627000Y-57813000D01*
X205373000Y-57813000D01*
X205373000Y-56923750D01*
X205214250Y-56765000D01*
X204650000Y-56761928D01*
X204525518Y-56774188D01*
X204405820Y-56810498D01*
X204295506Y-56869463D01*
X204198815Y-56948815D01*
X204119463Y-57045506D01*
X204060498Y-57155820D01*
X204024188Y-57275518D01*
X204011928Y-57400000D01*
X204015000Y-57964250D01*
X204169556Y-58118806D01*
X204159436Y-58122998D01*
X204015000Y-58122998D01*
X204015000Y-58201838D01*
X203602273Y-58477613D01*
X203187613Y-58892273D01*
X202861817Y-59379862D01*
X202637405Y-59921641D01*
X202523000Y-60496791D01*
X202523000Y-61083209D01*
X202605507Y-61498000D01*
X201432809Y-61498000D01*
X197620649Y-57685842D01*
X197550119Y-57599901D01*
X197207208Y-57318481D01*
X196815983Y-57109367D01*
X196391479Y-56980595D01*
X196060639Y-56948010D01*
X196060631Y-56948010D01*
X195950010Y-56937115D01*
X195839389Y-56948010D01*
X191016075Y-56948010D01*
X191106443Y-56812764D01*
X191394930Y-56116295D01*
X191542000Y-55376927D01*
X191542000Y-54623073D01*
X191394930Y-53883705D01*
X191172710Y-53347218D01*
X191249768Y-53270160D01*
X191134840Y-53155232D01*
X191435044Y-53017276D01*
X191610882Y-52668033D01*
X191715207Y-52291196D01*
X191744009Y-51901247D01*
X191696184Y-51513172D01*
X191573568Y-51141884D01*
X191435044Y-50882724D01*
X191134838Y-50744767D01*
X189973330Y-51906275D01*
X189758000Y-51762395D01*
X190955233Y-50565162D01*
X190817276Y-50264956D01*
X190468033Y-50089118D01*
X190091196Y-49984793D01*
X189701247Y-49955991D01*
X189313172Y-50003816D01*
X188941884Y-50126432D01*
X188682724Y-50264956D01*
X188544767Y-50565162D01*
X189709783Y-51730178D01*
X189527764Y-51608557D01*
X189017660Y-51397265D01*
X188365162Y-50744767D01*
X188064956Y-50882724D01*
X187918807Y-51173000D01*
X187338073Y-51173000D01*
X186598705Y-51320070D01*
X185902236Y-51608557D01*
X185275430Y-52027375D01*
X184742375Y-52560430D01*
X184323557Y-53187236D01*
X184035070Y-53883705D01*
X183888000Y-54623073D01*
X183888000Y-55376927D01*
X184035070Y-56116295D01*
X184323557Y-56812764D01*
X184413925Y-56948010D01*
X179586075Y-56948010D01*
X179676443Y-56812764D01*
X179964930Y-56116295D01*
X180112000Y-55376927D01*
X180112000Y-54623073D01*
X179964930Y-53883705D01*
X179676443Y-53187236D01*
X179257625Y-52560430D01*
X178724570Y-52027375D01*
X178097764Y-51608557D01*
X177401295Y-51320070D01*
X176661927Y-51173000D01*
X176083844Y-51173000D01*
X176073568Y-51141884D01*
X175935044Y-50882724D01*
X175634838Y-50744767D01*
X174982340Y-51397265D01*
X174472236Y-51608557D01*
X174290217Y-51730178D01*
X175455233Y-50565162D01*
X175317276Y-50264956D01*
X174968033Y-50089118D01*
X174591196Y-49984793D01*
X174201247Y-49955991D01*
X173813172Y-50003816D01*
X173441884Y-50126432D01*
X173182724Y-50264956D01*
X173044767Y-50565162D01*
X174242000Y-51762395D01*
X174026670Y-51906275D01*
X172865162Y-50744767D01*
X172564956Y-50882724D01*
X172389118Y-51231967D01*
X172284793Y-51608804D01*
X172255991Y-51998753D01*
X172303816Y-52386828D01*
X172426432Y-52758116D01*
X172564956Y-53017276D01*
X172865160Y-53155232D01*
X172750232Y-53270160D01*
X172827290Y-53347218D01*
X172605070Y-53883705D01*
X172458000Y-54623073D01*
X172458000Y-55376927D01*
X172605070Y-56116295D01*
X172893557Y-56812764D01*
X172983925Y-56948010D01*
X171882819Y-56948010D01*
X168760639Y-53825832D01*
X168690109Y-53739891D01*
X168347198Y-53458471D01*
X167955973Y-53249357D01*
X167531469Y-53120585D01*
X167200629Y-53088000D01*
X167200621Y-53088000D01*
X167090000Y-53077105D01*
X166979379Y-53088000D01*
X166437404Y-53088000D01*
X166415854Y-53066450D01*
X165936455Y-52746126D01*
X165403775Y-52525482D01*
X164838284Y-52413000D01*
X164261716Y-52413000D01*
X163696225Y-52525482D01*
X163163545Y-52746126D01*
X162684146Y-53066450D01*
X162662596Y-53088000D01*
X160658649Y-53088000D01*
X160386455Y-52906126D01*
X159853775Y-52685482D01*
X159288284Y-52573000D01*
X158711716Y-52573000D01*
X158146225Y-52685482D01*
X157613545Y-52906126D01*
X157134146Y-53226450D01*
X156726450Y-53634146D01*
X156406126Y-54113545D01*
X156185482Y-54646225D01*
X156073000Y-55211716D01*
X156073000Y-55788284D01*
X156185482Y-56353775D01*
X156406126Y-56886455D01*
X156726450Y-57365854D01*
X157134146Y-57773550D01*
X157613545Y-58093874D01*
X158146225Y-58314518D01*
X158711716Y-58427000D01*
X159288284Y-58427000D01*
X159853775Y-58314518D01*
X160386455Y-58093874D01*
X160865854Y-57773550D01*
X161047404Y-57592000D01*
X162662596Y-57592000D01*
X162684146Y-57613550D01*
X163163545Y-57933874D01*
X163696225Y-58154518D01*
X164261716Y-58267000D01*
X164838284Y-58267000D01*
X165403775Y-58154518D01*
X165936455Y-57933874D01*
X166273716Y-57708523D01*
X167715192Y-59150000D01*
X164292192Y-62573000D01*
X164261716Y-62573000D01*
X163696225Y-62685482D01*
X163163545Y-62906126D01*
X162684146Y-63226450D01*
X162276450Y-63634146D01*
X161956126Y-64113545D01*
X161741863Y-64630820D01*
X161593874Y-64273545D01*
X161273550Y-63794146D01*
X160865854Y-63386450D01*
X160386455Y-63066126D01*
X159853775Y-62845482D01*
X159288284Y-62733000D01*
X158711716Y-62733000D01*
X158146225Y-62845482D01*
X157613545Y-63066126D01*
X157134146Y-63386450D01*
X156726450Y-63794146D01*
X156406126Y-64273545D01*
X156185482Y-64806225D01*
X156073000Y-65371716D01*
X156073000Y-65948284D01*
X156185482Y-66513775D01*
X156406126Y-67046455D01*
X156726450Y-67525854D01*
X157134146Y-67933550D01*
X157613545Y-68253874D01*
X158146225Y-68474518D01*
X158711716Y-68587000D01*
X159288284Y-68587000D01*
X159853775Y-68474518D01*
X160386455Y-68253874D01*
X160865854Y-67933550D01*
X161273550Y-67525854D01*
X161593874Y-67046455D01*
X161808137Y-66529180D01*
X161956126Y-66886455D01*
X162276450Y-67365854D01*
X162684146Y-67773550D01*
X163163545Y-68093874D01*
X163696225Y-68314518D01*
X164261716Y-68427000D01*
X164838284Y-68427000D01*
X165403775Y-68314518D01*
X165936455Y-68093874D01*
X166415854Y-67773550D01*
X166823550Y-67365854D01*
X167143874Y-66886455D01*
X167364518Y-66353775D01*
X167477000Y-65788284D01*
X167477000Y-65757808D01*
X170782810Y-62451999D01*
X174965502Y-62451999D01*
X174938972Y-62491704D01*
X174716444Y-63028933D01*
X174603000Y-63599253D01*
X174603000Y-64180747D01*
X174716444Y-64751067D01*
X174938972Y-65288296D01*
X175262032Y-65771790D01*
X175673210Y-66182968D01*
X176156704Y-66506028D01*
X176693933Y-66728556D01*
X177264253Y-66842000D01*
X177845747Y-66842000D01*
X178416067Y-66728556D01*
X178825000Y-66559170D01*
X179233933Y-66728556D01*
X179804253Y-66842000D01*
X180385747Y-66842000D01*
X180956067Y-66728556D01*
X181493296Y-66506028D01*
X181653000Y-66399317D01*
X181653000Y-67301809D01*
X181307077Y-67233000D01*
X180572923Y-67233000D01*
X179852874Y-67376227D01*
X179174604Y-67657176D01*
X178564176Y-68065050D01*
X178045050Y-68584176D01*
X177637176Y-69194604D01*
X177356227Y-69872874D01*
X177213000Y-70592923D01*
X177213000Y-71327077D01*
X177356227Y-72047126D01*
X177637176Y-72725396D01*
X178045050Y-73335824D01*
X178564176Y-73854950D01*
X179174604Y-74262824D01*
X179852874Y-74543773D01*
X180572923Y-74687000D01*
X181307077Y-74687000D01*
X181653000Y-74618191D01*
X181653001Y-99066190D01*
X168543995Y-112175197D01*
X168350235Y-111707420D01*
X168022951Y-111217604D01*
X167606396Y-110801049D01*
X167281559Y-110584000D01*
X167606396Y-110366951D01*
X168022951Y-109950396D01*
X168350235Y-109460580D01*
X168575673Y-108916326D01*
X168690600Y-108338548D01*
X168690600Y-107749452D01*
X168575673Y-107171674D01*
X168410951Y-106774000D01*
X168575673Y-106376326D01*
X168690600Y-105798548D01*
X168690600Y-105209452D01*
X168575673Y-104631674D01*
X168410951Y-104234000D01*
X168575673Y-103836326D01*
X168690600Y-103258548D01*
X168690600Y-102669452D01*
X168575673Y-102091674D01*
X168410951Y-101694000D01*
X168575673Y-101296326D01*
X168690600Y-100718548D01*
X168690600Y-100129452D01*
X168575673Y-99551674D01*
X168410951Y-99154000D01*
X168575673Y-98756326D01*
X168690600Y-98178548D01*
X168690600Y-97589452D01*
X168575673Y-97011674D01*
X168410951Y-96614000D01*
X168575673Y-96216326D01*
X168690600Y-95638548D01*
X168690600Y-95049452D01*
X168575673Y-94471674D01*
X168350235Y-93927420D01*
X168022951Y-93437604D01*
X167897347Y-93312000D01*
X168022951Y-93186396D01*
X168350235Y-92696580D01*
X168575673Y-92152326D01*
X168690600Y-91574548D01*
X168690600Y-90985452D01*
X168575673Y-90407674D01*
X168410951Y-90010000D01*
X168575673Y-89612326D01*
X168690600Y-89034548D01*
X168690600Y-88445452D01*
X168575673Y-87867674D01*
X168410951Y-87470000D01*
X168575673Y-87072326D01*
X168690600Y-86494548D01*
X168690600Y-85905452D01*
X168575673Y-85327674D01*
X168410951Y-84930000D01*
X168575673Y-84532326D01*
X168690600Y-83954548D01*
X168690600Y-83365452D01*
X168575673Y-82787674D01*
X168410951Y-82390000D01*
X168575673Y-81992326D01*
X168690600Y-81414548D01*
X168690600Y-80825452D01*
X168575673Y-80247674D01*
X168410951Y-79850000D01*
X168575673Y-79452326D01*
X168690600Y-78874548D01*
X168690600Y-78285452D01*
X168575673Y-77707674D01*
X168410951Y-77310000D01*
X168575673Y-76912326D01*
X168690600Y-76334548D01*
X168690600Y-75745452D01*
X168575673Y-75167674D01*
X168410951Y-74770000D01*
X168575673Y-74372326D01*
X168690600Y-73794548D01*
X168690600Y-73205452D01*
X168575673Y-72627674D01*
X168350235Y-72083420D01*
X168022951Y-71593604D01*
X167606396Y-71177049D01*
X167116580Y-70849765D01*
X166572326Y-70624327D01*
X165994548Y-70509400D01*
X165405452Y-70509400D01*
X164827674Y-70624327D01*
X164283420Y-70849765D01*
X163793604Y-71177049D01*
X163377049Y-71593604D01*
X163049765Y-72083420D01*
X162824327Y-72627674D01*
X162709400Y-73205452D01*
X162709400Y-73794548D01*
X162824327Y-74372326D01*
X162989049Y-74770000D01*
X162824327Y-75167674D01*
X162709400Y-75745452D01*
X162709400Y-76334548D01*
X162824327Y-76912326D01*
X162989049Y-77310000D01*
X162824327Y-77707674D01*
X162709400Y-78285452D01*
X162709400Y-78385792D01*
X160875794Y-80219399D01*
X147639229Y-80219399D01*
X147528601Y-80208503D01*
X147087132Y-80251984D01*
X146662628Y-80380756D01*
X146271403Y-80589870D01*
X146034457Y-80784327D01*
X145928492Y-80871290D01*
X145857971Y-80957220D01*
X142542192Y-84273000D01*
X142182168Y-84273000D01*
X141558719Y-84397012D01*
X140971442Y-84640270D01*
X140442907Y-84993425D01*
X139993425Y-85442907D01*
X139640270Y-85971442D01*
X139397012Y-86558719D01*
X139273000Y-87182168D01*
X139273000Y-87817832D01*
X139397012Y-88441281D01*
X139640270Y-89028558D01*
X139748000Y-89189788D01*
X139748001Y-90810211D01*
X139640270Y-90971442D01*
X139397012Y-91558719D01*
X139273000Y-92182168D01*
X139273000Y-92817832D01*
X139397012Y-93441281D01*
X139640270Y-94028558D01*
X139993425Y-94557093D01*
X140442907Y-95006575D01*
X140971442Y-95359730D01*
X141558719Y-95602988D01*
X142182168Y-95727000D01*
X142817832Y-95727000D01*
X143441281Y-95602988D01*
X144028558Y-95359730D01*
X144557093Y-95006575D01*
X145006575Y-94557093D01*
X145359730Y-94028558D01*
X145493042Y-93706712D01*
X146472893Y-93706712D01*
X146580726Y-93981338D01*
X146887384Y-94132216D01*
X147217585Y-94220369D01*
X147558639Y-94242409D01*
X147897439Y-94197489D01*
X148220966Y-94087336D01*
X148419274Y-93981338D01*
X148527107Y-93706712D01*
X147500000Y-92679605D01*
X146472893Y-93706712D01*
X145493042Y-93706712D01*
X145602988Y-93441281D01*
X145727000Y-92817832D01*
X145727000Y-92558639D01*
X145757591Y-92558639D01*
X145802511Y-92897439D01*
X145912664Y-93220966D01*
X146018662Y-93419274D01*
X146293288Y-93527107D01*
X147320395Y-92500000D01*
X147679605Y-92500000D01*
X148706712Y-93527107D01*
X148981338Y-93419274D01*
X149132216Y-93112616D01*
X149220369Y-92782415D01*
X149242409Y-92441361D01*
X149197489Y-92102561D01*
X149087336Y-91779034D01*
X148981338Y-91580726D01*
X148706712Y-91472893D01*
X147679605Y-92500000D01*
X147320395Y-92500000D01*
X146293288Y-91472893D01*
X146018662Y-91580726D01*
X145867784Y-91887384D01*
X145779631Y-92217585D01*
X145757591Y-92558639D01*
X145727000Y-92558639D01*
X145727000Y-92182168D01*
X145602988Y-91558719D01*
X145493043Y-91293288D01*
X146472893Y-91293288D01*
X147500000Y-92320395D01*
X148527107Y-91293288D01*
X148419274Y-91018662D01*
X148112616Y-90867784D01*
X147782415Y-90779631D01*
X147441361Y-90757591D01*
X147102561Y-90802511D01*
X146779034Y-90912664D01*
X146580726Y-91018662D01*
X146472893Y-91293288D01*
X145493043Y-91293288D01*
X145359730Y-90971442D01*
X145252000Y-90810212D01*
X145252000Y-89189788D01*
X145359730Y-89028558D01*
X145493042Y-88706712D01*
X146472893Y-88706712D01*
X146580726Y-88981338D01*
X146887384Y-89132216D01*
X147217585Y-89220369D01*
X147558639Y-89242409D01*
X147897439Y-89197489D01*
X148220966Y-89087336D01*
X148419274Y-88981338D01*
X148527107Y-88706712D01*
X147500000Y-87679605D01*
X146472893Y-88706712D01*
X145493042Y-88706712D01*
X145602988Y-88441281D01*
X145727000Y-87817832D01*
X145727000Y-87457808D01*
X145766671Y-87418137D01*
X145757591Y-87558639D01*
X145802511Y-87897439D01*
X145912664Y-88220966D01*
X146018662Y-88419274D01*
X146293288Y-88527107D01*
X147320395Y-87500000D01*
X147679605Y-87500000D01*
X148706712Y-88527107D01*
X148981338Y-88419274D01*
X149132216Y-88112616D01*
X149220369Y-87782415D01*
X149242409Y-87441361D01*
X149197489Y-87102561D01*
X149087336Y-86779034D01*
X148981338Y-86580726D01*
X148706712Y-86472893D01*
X147679605Y-87500000D01*
X147320395Y-87500000D01*
X147306253Y-87485858D01*
X147485858Y-87306253D01*
X147500000Y-87320395D01*
X148527107Y-86293288D01*
X148419274Y-86018662D01*
X148112616Y-85867784D01*
X147782415Y-85779631D01*
X147441361Y-85757591D01*
X147425055Y-85759753D01*
X148461410Y-84723399D01*
X161451792Y-84723399D01*
X139502192Y-106673001D01*
X129030660Y-106673001D01*
X128981338Y-106580726D01*
X128706712Y-106472893D01*
X128506604Y-106673001D01*
X128147394Y-106673001D01*
X128527107Y-106293288D01*
X128419274Y-106018662D01*
X128112616Y-105867784D01*
X127782415Y-105779631D01*
X127441361Y-105757591D01*
X127102561Y-105802511D01*
X126779034Y-105912664D01*
X126580726Y-106018662D01*
X126472893Y-106293288D01*
X126852606Y-106673001D01*
X126493396Y-106673001D01*
X126293288Y-106472893D01*
X126018662Y-106580726D01*
X125973262Y-106673001D01*
X125625720Y-106673001D01*
X125602988Y-106558719D01*
X125359730Y-105971442D01*
X125006575Y-105442907D01*
X124557093Y-104993425D01*
X124028558Y-104640270D01*
X123441281Y-104397012D01*
X122817832Y-104273000D01*
X122182168Y-104273000D01*
X121558719Y-104397012D01*
X120971442Y-104640270D01*
X120442907Y-104993425D01*
X119993425Y-105442907D01*
X119640270Y-105971442D01*
X119397012Y-106558719D01*
X119273000Y-107182168D01*
X119273000Y-107817832D01*
X119397012Y-108441281D01*
X119640270Y-109028558D01*
X119748000Y-109189788D01*
X119748001Y-110810211D01*
X119640270Y-110971442D01*
X119397012Y-111558719D01*
X119273000Y-112182168D01*
X119273000Y-112817832D01*
X119391188Y-113412000D01*
X99596809Y-113412000D01*
X85670639Y-99485832D01*
X85600109Y-99399891D01*
X85257198Y-99118471D01*
X84865973Y-98909357D01*
X84441469Y-98780585D01*
X84110629Y-98748000D01*
X84110621Y-98748000D01*
X84000000Y-98737105D01*
X83889379Y-98748000D01*
X83291619Y-98748000D01*
X83180998Y-98737105D01*
X83070377Y-98748000D01*
X83070369Y-98748000D01*
X82739529Y-98780585D01*
X82315025Y-98909357D01*
X81923800Y-99118471D01*
X81580889Y-99399891D01*
X81510368Y-99485821D01*
X75923420Y-105072770D01*
X75673209Y-105023000D01*
X75086791Y-105023000D01*
X74511641Y-105137405D01*
X73969862Y-105361817D01*
X73482273Y-105687613D01*
X73067613Y-106102273D01*
X72741817Y-106589862D01*
X72517405Y-107131641D01*
X72403000Y-107706791D01*
X72403000Y-108293209D01*
X72517405Y-108868359D01*
X72741817Y-109410138D01*
X73067613Y-109897727D01*
X73482273Y-110312387D01*
X73969862Y-110638183D01*
X74511641Y-110862595D01*
X75086791Y-110977000D01*
X75673209Y-110977000D01*
X76248359Y-110862595D01*
X76650000Y-110696230D01*
X77051641Y-110862595D01*
X77626791Y-110977000D01*
X78213209Y-110977000D01*
X78336420Y-110952492D01*
X78504627Y-111157453D01*
X78609641Y-111243636D01*
X88716367Y-121350364D01*
X88802546Y-121455373D01*
X88907553Y-121541550D01*
X88907554Y-121541551D01*
X89221592Y-121799275D01*
X89699678Y-122054818D01*
X90218433Y-122212180D01*
X90757919Y-122265315D01*
X90893108Y-122252000D01*
X99748001Y-122252000D01*
X99748000Y-126389379D01*
X99737105Y-126500000D01*
X99748000Y-126610621D01*
X99748000Y-126610628D01*
X99780585Y-126941468D01*
X99909357Y-127365972D01*
X100118471Y-127757198D01*
X100399891Y-128100109D01*
X100485832Y-128170639D01*
X107178919Y-134863727D01*
X107252776Y-135235035D01*
X107507341Y-135849609D01*
X107876913Y-136402712D01*
X108347288Y-136873087D01*
X108900391Y-137242659D01*
X109514965Y-137497224D01*
X110167395Y-137627000D01*
X110832605Y-137627000D01*
X111485035Y-137497224D01*
X112099609Y-137242659D01*
X112250000Y-137142171D01*
X112400391Y-137242659D01*
X113014965Y-137497224D01*
X113386274Y-137571082D01*
X113663192Y-137848000D01*
X70095835Y-137848000D01*
X69497182Y-137794572D01*
X69010248Y-137661361D01*
X68554607Y-137444033D01*
X68144645Y-137149445D01*
X67793335Y-136786921D01*
X67511774Y-136367914D01*
X67308863Y-135905669D01*
X67187040Y-135398241D01*
X67152000Y-134921088D01*
X67152000Y-133706712D01*
X86472893Y-133706712D01*
X86580726Y-133981338D01*
X86887384Y-134132216D01*
X87217585Y-134220369D01*
X87558639Y-134242409D01*
X87897439Y-134197489D01*
X88220966Y-134087336D01*
X88419274Y-133981338D01*
X88527107Y-133706712D01*
X87500000Y-132679605D01*
X86472893Y-133706712D01*
X67152000Y-133706712D01*
X67152000Y-132558639D01*
X85757591Y-132558639D01*
X85802511Y-132897439D01*
X85912664Y-133220966D01*
X86018662Y-133419274D01*
X86293288Y-133527107D01*
X87320395Y-132500000D01*
X87679605Y-132500000D01*
X88706712Y-133527107D01*
X88981338Y-133419274D01*
X89132216Y-133112616D01*
X89220369Y-132782415D01*
X89242409Y-132441361D01*
X89197489Y-132102561D01*
X89087336Y-131779034D01*
X88981338Y-131580726D01*
X88706712Y-131472893D01*
X87679605Y-132500000D01*
X87320395Y-132500000D01*
X86293288Y-131472893D01*
X86018662Y-131580726D01*
X85867784Y-131887384D01*
X85779631Y-132217585D01*
X85757591Y-132558639D01*
X67152000Y-132558639D01*
X67152000Y-131293288D01*
X86472893Y-131293288D01*
X87500000Y-132320395D01*
X88527107Y-131293288D01*
X88419274Y-131018662D01*
X88112616Y-130867784D01*
X87782415Y-130779631D01*
X87441361Y-130757591D01*
X87102561Y-130802511D01*
X86779034Y-130912664D01*
X86580726Y-131018662D01*
X86472893Y-131293288D01*
X67152000Y-131293288D01*
X67152000Y-128706712D01*
X86472893Y-128706712D01*
X86580726Y-128981338D01*
X86887384Y-129132216D01*
X87217585Y-129220369D01*
X87558639Y-129242409D01*
X87897439Y-129197489D01*
X88220966Y-129087336D01*
X88419274Y-128981338D01*
X88527107Y-128706712D01*
X87500000Y-127679605D01*
X86472893Y-128706712D01*
X67152000Y-128706712D01*
X67152000Y-127558639D01*
X85757591Y-127558639D01*
X85802511Y-127897439D01*
X85912664Y-128220966D01*
X86018662Y-128419274D01*
X86293288Y-128527107D01*
X87320395Y-127500000D01*
X87679605Y-127500000D01*
X88706712Y-128527107D01*
X88981338Y-128419274D01*
X89132216Y-128112616D01*
X89220369Y-127782415D01*
X89242409Y-127441361D01*
X89208044Y-127182168D01*
X89273000Y-127182168D01*
X89273000Y-127817832D01*
X89397012Y-128441281D01*
X89640270Y-129028558D01*
X89993425Y-129557093D01*
X90436332Y-130000000D01*
X89993425Y-130442907D01*
X89640270Y-130971442D01*
X89397012Y-131558719D01*
X89273000Y-132182168D01*
X89273000Y-132817832D01*
X89397012Y-133441281D01*
X89640270Y-134028558D01*
X89993425Y-134557093D01*
X90442907Y-135006575D01*
X90971442Y-135359730D01*
X91558719Y-135602988D01*
X92182168Y-135727000D01*
X92817832Y-135727000D01*
X93441281Y-135602988D01*
X94028558Y-135359730D01*
X94557093Y-135006575D01*
X95006575Y-134557093D01*
X95359730Y-134028558D01*
X95602988Y-133441281D01*
X95727000Y-132817832D01*
X95727000Y-132182168D01*
X95602988Y-131558719D01*
X95359730Y-130971442D01*
X95006575Y-130442907D01*
X94563668Y-130000000D01*
X95006575Y-129557093D01*
X95359730Y-129028558D01*
X95602988Y-128441281D01*
X95727000Y-127817832D01*
X95727000Y-127182168D01*
X95602988Y-126558719D01*
X95359730Y-125971442D01*
X95006575Y-125442907D01*
X94557093Y-124993425D01*
X94028558Y-124640270D01*
X93441281Y-124397012D01*
X92817832Y-124273000D01*
X92182168Y-124273000D01*
X91558719Y-124397012D01*
X90971442Y-124640270D01*
X90442907Y-124993425D01*
X89993425Y-125442907D01*
X89640270Y-125971442D01*
X89397012Y-126558719D01*
X89273000Y-127182168D01*
X89208044Y-127182168D01*
X89197489Y-127102561D01*
X89087336Y-126779034D01*
X88981338Y-126580726D01*
X88706712Y-126472893D01*
X87679605Y-127500000D01*
X87320395Y-127500000D01*
X86293288Y-126472893D01*
X86018662Y-126580726D01*
X85867784Y-126887384D01*
X85779631Y-127217585D01*
X85757591Y-127558639D01*
X67152000Y-127558639D01*
X67152000Y-126293288D01*
X86472893Y-126293288D01*
X87500000Y-127320395D01*
X88527107Y-126293288D01*
X88419274Y-126018662D01*
X88112616Y-125867784D01*
X87782415Y-125779631D01*
X87441361Y-125757591D01*
X87102561Y-125802511D01*
X86779034Y-125912664D01*
X86580726Y-126018662D01*
X86472893Y-126293288D01*
X67152000Y-126293288D01*
X67152000Y-87182168D01*
X99273000Y-87182168D01*
X99273000Y-87817832D01*
X99397012Y-88441281D01*
X99640270Y-89028558D01*
X99748000Y-89189788D01*
X99748001Y-90810211D01*
X99640270Y-90971442D01*
X99397012Y-91558719D01*
X99273000Y-92182168D01*
X99273000Y-92817832D01*
X99397012Y-93441281D01*
X99640270Y-94028558D01*
X99993425Y-94557093D01*
X100442907Y-95006575D01*
X100971442Y-95359730D01*
X101558719Y-95602988D01*
X102182168Y-95727000D01*
X102817832Y-95727000D01*
X103441281Y-95602988D01*
X104028558Y-95359730D01*
X104557093Y-95006575D01*
X105006575Y-94557093D01*
X105359730Y-94028558D01*
X105493042Y-93706712D01*
X106472893Y-93706712D01*
X106580726Y-93981338D01*
X106887384Y-94132216D01*
X107217585Y-94220369D01*
X107558639Y-94242409D01*
X107897439Y-94197489D01*
X108220966Y-94087336D01*
X108419274Y-93981338D01*
X108527107Y-93706712D01*
X107500000Y-92679605D01*
X106472893Y-93706712D01*
X105493042Y-93706712D01*
X105602988Y-93441281D01*
X105727000Y-92817832D01*
X105727000Y-92558639D01*
X105757591Y-92558639D01*
X105802511Y-92897439D01*
X105912664Y-93220966D01*
X106018662Y-93419274D01*
X106293288Y-93527107D01*
X107320395Y-92500000D01*
X107679605Y-92500000D01*
X108706712Y-93527107D01*
X108981338Y-93419274D01*
X109132216Y-93112616D01*
X109220369Y-92782415D01*
X109242409Y-92441361D01*
X109197489Y-92102561D01*
X109087336Y-91779034D01*
X108981338Y-91580726D01*
X108706712Y-91472893D01*
X107679605Y-92500000D01*
X107320395Y-92500000D01*
X106293288Y-91472893D01*
X106018662Y-91580726D01*
X105867784Y-91887384D01*
X105779631Y-92217585D01*
X105757591Y-92558639D01*
X105727000Y-92558639D01*
X105727000Y-92182168D01*
X105602988Y-91558719D01*
X105493043Y-91293288D01*
X106472893Y-91293288D01*
X107500000Y-92320395D01*
X108527107Y-91293288D01*
X108419274Y-91018662D01*
X108112616Y-90867784D01*
X107782415Y-90779631D01*
X107441361Y-90757591D01*
X107102561Y-90802511D01*
X106779034Y-90912664D01*
X106580726Y-91018662D01*
X106472893Y-91293288D01*
X105493043Y-91293288D01*
X105359730Y-90971442D01*
X105252000Y-90810212D01*
X105252000Y-89189788D01*
X105359730Y-89028558D01*
X105493042Y-88706712D01*
X106472893Y-88706712D01*
X106580726Y-88981338D01*
X106887384Y-89132216D01*
X107217585Y-89220369D01*
X107558639Y-89242409D01*
X107897439Y-89197489D01*
X108220966Y-89087336D01*
X108419274Y-88981338D01*
X108527107Y-88706712D01*
X107500000Y-87679605D01*
X106472893Y-88706712D01*
X105493042Y-88706712D01*
X105602988Y-88441281D01*
X105727000Y-87817832D01*
X105727000Y-87558639D01*
X105757591Y-87558639D01*
X105802511Y-87897439D01*
X105912664Y-88220966D01*
X106018662Y-88419274D01*
X106293288Y-88527107D01*
X107320395Y-87500000D01*
X107679605Y-87500000D01*
X108706712Y-88527107D01*
X108981338Y-88419274D01*
X109132216Y-88112616D01*
X109220369Y-87782415D01*
X109242409Y-87441361D01*
X109197489Y-87102561D01*
X109087336Y-86779034D01*
X108981338Y-86580726D01*
X108706712Y-86472893D01*
X107679605Y-87500000D01*
X107320395Y-87500000D01*
X106293288Y-86472893D01*
X106018662Y-86580726D01*
X105867784Y-86887384D01*
X105779631Y-87217585D01*
X105757591Y-87558639D01*
X105727000Y-87558639D01*
X105727000Y-87182168D01*
X105602988Y-86558719D01*
X105493043Y-86293288D01*
X106472893Y-86293288D01*
X107500000Y-87320395D01*
X108527107Y-86293288D01*
X108419274Y-86018662D01*
X108112616Y-85867784D01*
X107782415Y-85779631D01*
X107441361Y-85757591D01*
X107102561Y-85802511D01*
X106779034Y-85912664D01*
X106580726Y-86018662D01*
X106472893Y-86293288D01*
X105493043Y-86293288D01*
X105359730Y-85971442D01*
X105006575Y-85442907D01*
X104557093Y-84993425D01*
X104028558Y-84640270D01*
X103441281Y-84397012D01*
X102817832Y-84273000D01*
X102182168Y-84273000D01*
X101558719Y-84397012D01*
X100971442Y-84640270D01*
X100442907Y-84993425D01*
X99993425Y-85442907D01*
X99640270Y-85971442D01*
X99397012Y-86558719D01*
X99273000Y-87182168D01*
X67152000Y-87182168D01*
X67152000Y-67182168D01*
X119273000Y-67182168D01*
X119273000Y-67817832D01*
X119397012Y-68441281D01*
X119640270Y-69028558D01*
X119748000Y-69189788D01*
X119748001Y-70810211D01*
X119640270Y-70971442D01*
X119397012Y-71558719D01*
X119273000Y-72182168D01*
X119273000Y-72817832D01*
X119397012Y-73441281D01*
X119640270Y-74028558D01*
X119993425Y-74557093D01*
X120248000Y-74811668D01*
X120248001Y-82678281D01*
X120037151Y-82889131D01*
X119760602Y-83303017D01*
X119570111Y-83762901D01*
X119473000Y-84251112D01*
X119473000Y-84748888D01*
X119570111Y-85237099D01*
X119760602Y-85696983D01*
X120037151Y-86110869D01*
X120389131Y-86462849D01*
X120803017Y-86739398D01*
X121262901Y-86929889D01*
X121751112Y-87027000D01*
X122248888Y-87027000D01*
X122737099Y-86929889D01*
X123196983Y-86739398D01*
X123610869Y-86462849D01*
X123962849Y-86110869D01*
X124239398Y-85696983D01*
X124429889Y-85237099D01*
X124452185Y-85125010D01*
X124590643Y-84865973D01*
X124719415Y-84441469D01*
X124752000Y-84110629D01*
X124762896Y-84000000D01*
X124752000Y-83889372D01*
X124752000Y-74811668D01*
X125006575Y-74557093D01*
X125359730Y-74028558D01*
X125493042Y-73706712D01*
X126472893Y-73706712D01*
X126580726Y-73981338D01*
X126887384Y-74132216D01*
X127217585Y-74220369D01*
X127558639Y-74242409D01*
X127897439Y-74197489D01*
X128220966Y-74087336D01*
X128419274Y-73981338D01*
X128527107Y-73706712D01*
X127500000Y-72679605D01*
X126472893Y-73706712D01*
X125493042Y-73706712D01*
X125602988Y-73441281D01*
X125727000Y-72817832D01*
X125727000Y-72558639D01*
X125757591Y-72558639D01*
X125802511Y-72897439D01*
X125912664Y-73220966D01*
X126018662Y-73419274D01*
X126293288Y-73527107D01*
X127320395Y-72500000D01*
X127679605Y-72500000D01*
X128706712Y-73527107D01*
X128981338Y-73419274D01*
X129132216Y-73112616D01*
X129220369Y-72782415D01*
X129242409Y-72441361D01*
X129197489Y-72102561D01*
X129087336Y-71779034D01*
X128981338Y-71580726D01*
X128706712Y-71472893D01*
X127679605Y-72500000D01*
X127320395Y-72500000D01*
X126293288Y-71472893D01*
X126018662Y-71580726D01*
X125867784Y-71887384D01*
X125779631Y-72217585D01*
X125757591Y-72558639D01*
X125727000Y-72558639D01*
X125727000Y-72182168D01*
X125602988Y-71558719D01*
X125493043Y-71293288D01*
X126472893Y-71293288D01*
X127500000Y-72320395D01*
X128527107Y-71293288D01*
X128419274Y-71018662D01*
X128112616Y-70867784D01*
X127782415Y-70779631D01*
X127441361Y-70757591D01*
X127102561Y-70802511D01*
X126779034Y-70912664D01*
X126580726Y-71018662D01*
X126472893Y-71293288D01*
X125493043Y-71293288D01*
X125359730Y-70971442D01*
X125252000Y-70810212D01*
X125252000Y-69189788D01*
X125359730Y-69028558D01*
X125493042Y-68706712D01*
X126472893Y-68706712D01*
X126580726Y-68981338D01*
X126887384Y-69132216D01*
X127217585Y-69220369D01*
X127558639Y-69242409D01*
X127897439Y-69197489D01*
X128220966Y-69087336D01*
X128419274Y-68981338D01*
X128527107Y-68706712D01*
X127500000Y-67679605D01*
X126472893Y-68706712D01*
X125493042Y-68706712D01*
X125602988Y-68441281D01*
X125727000Y-67817832D01*
X125727000Y-67558639D01*
X125757591Y-67558639D01*
X125802511Y-67897439D01*
X125912664Y-68220966D01*
X126018662Y-68419274D01*
X126293288Y-68527107D01*
X127320395Y-67500000D01*
X127679605Y-67500000D01*
X128706712Y-68527107D01*
X128981338Y-68419274D01*
X129132216Y-68112616D01*
X129220369Y-67782415D01*
X129242409Y-67441361D01*
X129197489Y-67102561D01*
X129087336Y-66779034D01*
X128981338Y-66580726D01*
X128706712Y-66472893D01*
X127679605Y-67500000D01*
X127320395Y-67500000D01*
X126293288Y-66472893D01*
X126018662Y-66580726D01*
X125867784Y-66887384D01*
X125779631Y-67217585D01*
X125757591Y-67558639D01*
X125727000Y-67558639D01*
X125727000Y-67182168D01*
X125602988Y-66558719D01*
X125493043Y-66293288D01*
X126472893Y-66293288D01*
X127500000Y-67320395D01*
X128527107Y-66293288D01*
X128419274Y-66018662D01*
X128112616Y-65867784D01*
X127782415Y-65779631D01*
X127441361Y-65757591D01*
X127102561Y-65802511D01*
X126779034Y-65912664D01*
X126580726Y-66018662D01*
X126472893Y-66293288D01*
X125493043Y-66293288D01*
X125359730Y-65971442D01*
X125006575Y-65442907D01*
X124557093Y-64993425D01*
X124028558Y-64640270D01*
X123441281Y-64397012D01*
X122817832Y-64273000D01*
X122182168Y-64273000D01*
X121558719Y-64397012D01*
X120971442Y-64640270D01*
X120442907Y-64993425D01*
X119993425Y-65442907D01*
X119640270Y-65971442D01*
X119397012Y-66558719D01*
X119273000Y-67182168D01*
X67152000Y-67182168D01*
X67152000Y-50095836D01*
X67205429Y-49497180D01*
X67338638Y-49010248D01*
X67555967Y-48554608D01*
X67850555Y-48144645D01*
X68213079Y-47793335D01*
X68632086Y-47511774D01*
X69094331Y-47308863D01*
X69601759Y-47187040D01*
X70078913Y-47152000D01*
X229904164Y-47152000D01*
X230502820Y-47205429D01*
G37*
X230502820Y-47205429D02*
X230989752Y-47338638D01*
X231445392Y-47555967D01*
X231855355Y-47850555D01*
X232206665Y-48213079D01*
X232488226Y-48632086D01*
X232691137Y-49094331D01*
X232812960Y-49601759D01*
X232848000Y-50078913D01*
X232848001Y-134904153D01*
X232794572Y-135502818D01*
X232661361Y-135989752D01*
X232444033Y-136445393D01*
X232149445Y-136855355D01*
X231786921Y-137206665D01*
X231367914Y-137488226D01*
X230905669Y-137691137D01*
X230398241Y-137812960D01*
X229921088Y-137848000D01*
X190115937Y-137848000D01*
X205301015Y-122662923D01*
X210233000Y-122662923D01*
X210233000Y-123397077D01*
X210376227Y-124117126D01*
X210657176Y-124795396D01*
X211065050Y-125405824D01*
X211584176Y-125924950D01*
X212194604Y-126332824D01*
X212872874Y-126613773D01*
X213592923Y-126757000D01*
X214327077Y-126757000D01*
X215047126Y-126613773D01*
X215725396Y-126332824D01*
X216335824Y-125924950D01*
X216854950Y-125405824D01*
X217262824Y-124795396D01*
X217543773Y-124117126D01*
X217687000Y-123397077D01*
X217687000Y-122662923D01*
X217543773Y-121942874D01*
X217262824Y-121264604D01*
X216854950Y-120654176D01*
X216335824Y-120135050D01*
X215725396Y-119727176D01*
X215047126Y-119446227D01*
X214327077Y-119303000D01*
X213592923Y-119303000D01*
X212872874Y-119446227D01*
X212194604Y-119727176D01*
X211584176Y-120135050D01*
X211065050Y-120654176D01*
X210657176Y-121264604D01*
X210376227Y-121942874D01*
X210233000Y-122662923D01*
X205301015Y-122662923D01*
X218562800Y-109401139D01*
X218648730Y-109330618D01*
X218721122Y-109242409D01*
X218930150Y-108987707D01*
X219139264Y-108596482D01*
X219268036Y-108171978D01*
X219311517Y-107730509D01*
X219300621Y-107619881D01*
X219300621Y-86859249D01*
X219311517Y-86748621D01*
X219295958Y-86590643D01*
X219268036Y-86307152D01*
X219139264Y-85882648D01*
X218930150Y-85491423D01*
X218795765Y-85327674D01*
X218719252Y-85234443D01*
X218719251Y-85234442D01*
X218648730Y-85148512D01*
X218562800Y-85077991D01*
X216950600Y-83465792D01*
X216950600Y-83365452D01*
X216835673Y-82787674D01*
X216670951Y-82390000D01*
X216835673Y-81992326D01*
X216950600Y-81414548D01*
X216950600Y-80825452D01*
X216835673Y-80247674D01*
X216670951Y-79850000D01*
X216835673Y-79452326D01*
X216950600Y-78874548D01*
X216950600Y-78285452D01*
X216835673Y-77707674D01*
X216670951Y-77310000D01*
X216835673Y-76912326D01*
X216950600Y-76334548D01*
X216950600Y-75745452D01*
X216835673Y-75167674D01*
X216670951Y-74770000D01*
X216835673Y-74372326D01*
X216950600Y-73794548D01*
X216950600Y-73205452D01*
X216835673Y-72627674D01*
X216610235Y-72083420D01*
X216282951Y-71593604D01*
X215866396Y-71177049D01*
X215376580Y-70849765D01*
X214832326Y-70624327D01*
X214254548Y-70509400D01*
X213665452Y-70509400D01*
X213087674Y-70624327D01*
X212607000Y-70823429D01*
X212607000Y-70592923D01*
X212463773Y-69872874D01*
X212182824Y-69194604D01*
X211774950Y-68584176D01*
X211255824Y-68065050D01*
X210645396Y-67657176D01*
X209967126Y-67376227D01*
X209247077Y-67233000D01*
X208512923Y-67233000D01*
X207792874Y-67376227D01*
X207114604Y-67657176D01*
X206504176Y-68065050D01*
X205985050Y-68584176D01*
X205577176Y-69194604D01*
X205296227Y-69872874D01*
X205153000Y-70592923D01*
X205153000Y-71327077D01*
X205296227Y-72047126D01*
X205577176Y-72725396D01*
X205985050Y-73335824D01*
X206504176Y-73854950D01*
X207114604Y-74262824D01*
X207792874Y-74543773D01*
X208512923Y-74687000D01*
X209247077Y-74687000D01*
X209967126Y-74543773D01*
X210645396Y-74262824D01*
X211013607Y-74016794D01*
X211084327Y-74372326D01*
X211249049Y-74770000D01*
X211084327Y-75167674D01*
X210969400Y-75745452D01*
X210969400Y-76334548D01*
X211084327Y-76912326D01*
X211249049Y-77310000D01*
X211084327Y-77707674D01*
X210969400Y-78285452D01*
X210969400Y-78874548D01*
X211084327Y-79452326D01*
X211249049Y-79850000D01*
X211084327Y-80247674D01*
X210969400Y-80825452D01*
X210969400Y-81414548D01*
X211084327Y-81992326D01*
X211249049Y-82390000D01*
X211084327Y-82787674D01*
X210969400Y-83365452D01*
X210969400Y-83954548D01*
X211084327Y-84532326D01*
X211249049Y-84930000D01*
X211084327Y-85327674D01*
X210969400Y-85905452D01*
X210969400Y-86494548D01*
X211084327Y-87072326D01*
X211309765Y-87616580D01*
X211637049Y-88106396D01*
X212053604Y-88522951D01*
X212378441Y-88740000D01*
X212053604Y-88957049D01*
X211637049Y-89373604D01*
X211309765Y-89863420D01*
X211084327Y-90407674D01*
X210969400Y-90985452D01*
X210969400Y-91574548D01*
X211084327Y-92152326D01*
X211309765Y-92696580D01*
X211637049Y-93186396D01*
X212053604Y-93602951D01*
X212461400Y-93875431D01*
X212461400Y-93947002D01*
X212583899Y-93947002D01*
X212618164Y-93961195D01*
X212505037Y-94179027D01*
X212603036Y-94455978D01*
X212753183Y-94708488D01*
X212949707Y-94926854D01*
X213168078Y-95090000D01*
X212949707Y-95253146D01*
X212753183Y-95471512D01*
X212603036Y-95724022D01*
X212505037Y-96000973D01*
X212618164Y-96218805D01*
X212583899Y-96232998D01*
X212461400Y-96232998D01*
X212461400Y-96304569D01*
X212053604Y-96577049D01*
X211637049Y-96993604D01*
X211309765Y-97483420D01*
X211186092Y-97781992D01*
X187535085Y-121433001D01*
X169427000Y-121433001D01*
X169427000Y-121392923D01*
X169283773Y-120672874D01*
X169002824Y-119994604D01*
X168594950Y-119384176D01*
X168491152Y-119280378D01*
X168575673Y-119076326D01*
X168690600Y-118498548D01*
X168690600Y-118398207D01*
X185419179Y-101669630D01*
X185505109Y-101599109D01*
X185786529Y-101256198D01*
X185995643Y-100864973D01*
X186124415Y-100440469D01*
X186157000Y-100109629D01*
X186157000Y-100109621D01*
X186167895Y-99999000D01*
X186157000Y-99888379D01*
X186157000Y-76363600D01*
X186314548Y-76363600D01*
X186892326Y-76248673D01*
X187290000Y-76083951D01*
X187687674Y-76248673D01*
X188265452Y-76363600D01*
X188854548Y-76363600D01*
X189432326Y-76248673D01*
X189830000Y-76083951D01*
X190227674Y-76248673D01*
X190805452Y-76363600D01*
X191394548Y-76363600D01*
X191972326Y-76248673D01*
X192516580Y-76023235D01*
X193006396Y-75695951D01*
X193422951Y-75279396D01*
X193750235Y-74789580D01*
X193975673Y-74245326D01*
X194090600Y-73667548D01*
X194090600Y-73078452D01*
X193975673Y-72500674D01*
X193810951Y-72103000D01*
X193975673Y-71705326D01*
X194090600Y-71127548D01*
X194090600Y-70538452D01*
X193975673Y-69960674D01*
X193750235Y-69416420D01*
X193422951Y-68926604D01*
X193006396Y-68510049D01*
X192516580Y-68182765D01*
X191972326Y-67957327D01*
X191394548Y-67842400D01*
X190805452Y-67842400D01*
X190227674Y-67957327D01*
X189830000Y-68122049D01*
X189432326Y-67957327D01*
X188854548Y-67842400D01*
X188265452Y-67842400D01*
X187687674Y-67957327D01*
X187290000Y-68122049D01*
X186892326Y-67957327D01*
X186314548Y-67842400D01*
X186157000Y-67842400D01*
X186157000Y-66678464D01*
X186573296Y-66506028D01*
X187056790Y-66182968D01*
X187467968Y-65771790D01*
X187791028Y-65288296D01*
X188013556Y-64751067D01*
X188127000Y-64180747D01*
X188127000Y-64128703D01*
X188457415Y-63952093D01*
X188781293Y-63686293D01*
X189047093Y-63362415D01*
X189244599Y-62992906D01*
X189366224Y-62591965D01*
X189407291Y-62175000D01*
X189407291Y-61452010D01*
X195017203Y-61452010D01*
X198829370Y-65264179D01*
X198899891Y-65350109D01*
X198985821Y-65420630D01*
X198985822Y-65420631D01*
X199242802Y-65631529D01*
X199634027Y-65840643D01*
X200058531Y-65969415D01*
X200500000Y-66012896D01*
X200610628Y-66002000D01*
X219083441Y-66002000D01*
X219512901Y-66179889D01*
X220001112Y-66277000D01*
X220498888Y-66277000D01*
X220987099Y-66179889D01*
X221446983Y-65989398D01*
X221860869Y-65712849D01*
X222212849Y-65360869D01*
X222489398Y-64946983D01*
X222679889Y-64487099D01*
X222777000Y-63998888D01*
X222777000Y-63501112D01*
X222679889Y-63012901D01*
X222489398Y-62553017D01*
X222212849Y-62139131D01*
X221860869Y-61787151D01*
X221446983Y-61510602D01*
X220987099Y-61320111D01*
X220498888Y-61223000D01*
X220001112Y-61223000D01*
X219512901Y-61320111D01*
X219083441Y-61498000D01*
X208394493Y-61498000D01*
X208477000Y-61083209D01*
X208477000Y-60496791D01*
X208362595Y-59921641D01*
X208138183Y-59379862D01*
X207812387Y-58892273D01*
X207397727Y-58477613D01*
X206985000Y-58201838D01*
X206985000Y-58122998D01*
X206840564Y-58122998D01*
X206830444Y-58118806D01*
X206985000Y-57964250D01*
X206988072Y-57400000D01*
X206975812Y-57275518D01*
X206939502Y-57155820D01*
X206880537Y-57045506D01*
X206801185Y-56948815D01*
X206704494Y-56869463D01*
X206594180Y-56810498D01*
X206474482Y-56774188D01*
X206350000Y-56761928D01*
X205785750Y-56765000D01*
X205627000Y-56923750D01*
X205627000Y-57813000D01*
X205373000Y-57813000D01*
X205373000Y-56923750D01*
X205214250Y-56765000D01*
X204650000Y-56761928D01*
X204525518Y-56774188D01*
X204405820Y-56810498D01*
X204295506Y-56869463D01*
X204198815Y-56948815D01*
X204119463Y-57045506D01*
X204060498Y-57155820D01*
X204024188Y-57275518D01*
X204011928Y-57400000D01*
X204015000Y-57964250D01*
X204169556Y-58118806D01*
X204159436Y-58122998D01*
X204015000Y-58122998D01*
X204015000Y-58201838D01*
X203602273Y-58477613D01*
X203187613Y-58892273D01*
X202861817Y-59379862D01*
X202637405Y-59921641D01*
X202523000Y-60496791D01*
X202523000Y-61083209D01*
X202605507Y-61498000D01*
X201432809Y-61498000D01*
X197620649Y-57685842D01*
X197550119Y-57599901D01*
X197207208Y-57318481D01*
X196815983Y-57109367D01*
X196391479Y-56980595D01*
X196060639Y-56948010D01*
X196060631Y-56948010D01*
X195950010Y-56937115D01*
X195839389Y-56948010D01*
X191016075Y-56948010D01*
X191106443Y-56812764D01*
X191394930Y-56116295D01*
X191542000Y-55376927D01*
X191542000Y-54623073D01*
X191394930Y-53883705D01*
X191172710Y-53347218D01*
X191249768Y-53270160D01*
X191134840Y-53155232D01*
X191435044Y-53017276D01*
X191610882Y-52668033D01*
X191715207Y-52291196D01*
X191744009Y-51901247D01*
X191696184Y-51513172D01*
X191573568Y-51141884D01*
X191435044Y-50882724D01*
X191134838Y-50744767D01*
X189973330Y-51906275D01*
X189758000Y-51762395D01*
X190955233Y-50565162D01*
X190817276Y-50264956D01*
X190468033Y-50089118D01*
X190091196Y-49984793D01*
X189701247Y-49955991D01*
X189313172Y-50003816D01*
X188941884Y-50126432D01*
X188682724Y-50264956D01*
X188544767Y-50565162D01*
X189709783Y-51730178D01*
X189527764Y-51608557D01*
X189017660Y-51397265D01*
X188365162Y-50744767D01*
X188064956Y-50882724D01*
X187918807Y-51173000D01*
X187338073Y-51173000D01*
X186598705Y-51320070D01*
X185902236Y-51608557D01*
X185275430Y-52027375D01*
X184742375Y-52560430D01*
X184323557Y-53187236D01*
X184035070Y-53883705D01*
X183888000Y-54623073D01*
X183888000Y-55376927D01*
X184035070Y-56116295D01*
X184323557Y-56812764D01*
X184413925Y-56948010D01*
X179586075Y-56948010D01*
X179676443Y-56812764D01*
X179964930Y-56116295D01*
X180112000Y-55376927D01*
X180112000Y-54623073D01*
X179964930Y-53883705D01*
X179676443Y-53187236D01*
X179257625Y-52560430D01*
X178724570Y-52027375D01*
X178097764Y-51608557D01*
X177401295Y-51320070D01*
X176661927Y-51173000D01*
X176083844Y-51173000D01*
X176073568Y-51141884D01*
X175935044Y-50882724D01*
X175634838Y-50744767D01*
X174982340Y-51397265D01*
X174472236Y-51608557D01*
X174290217Y-51730178D01*
X175455233Y-50565162D01*
X175317276Y-50264956D01*
X174968033Y-50089118D01*
X174591196Y-49984793D01*
X174201247Y-49955991D01*
X173813172Y-50003816D01*
X173441884Y-50126432D01*
X173182724Y-50264956D01*
X173044767Y-50565162D01*
X174242000Y-51762395D01*
X174026670Y-51906275D01*
X172865162Y-50744767D01*
X172564956Y-50882724D01*
X172389118Y-51231967D01*
X172284793Y-51608804D01*
X172255991Y-51998753D01*
X172303816Y-52386828D01*
X172426432Y-52758116D01*
X172564956Y-53017276D01*
X172865160Y-53155232D01*
X172750232Y-53270160D01*
X172827290Y-53347218D01*
X172605070Y-53883705D01*
X172458000Y-54623073D01*
X172458000Y-55376927D01*
X172605070Y-56116295D01*
X172893557Y-56812764D01*
X172983925Y-56948010D01*
X171882819Y-56948010D01*
X168760639Y-53825832D01*
X168690109Y-53739891D01*
X168347198Y-53458471D01*
X167955973Y-53249357D01*
X167531469Y-53120585D01*
X167200629Y-53088000D01*
X167200621Y-53088000D01*
X167090000Y-53077105D01*
X166979379Y-53088000D01*
X166437404Y-53088000D01*
X166415854Y-53066450D01*
X165936455Y-52746126D01*
X165403775Y-52525482D01*
X164838284Y-52413000D01*
X164261716Y-52413000D01*
X163696225Y-52525482D01*
X163163545Y-52746126D01*
X162684146Y-53066450D01*
X162662596Y-53088000D01*
X160658649Y-53088000D01*
X160386455Y-52906126D01*
X159853775Y-52685482D01*
X159288284Y-52573000D01*
X158711716Y-52573000D01*
X158146225Y-52685482D01*
X157613545Y-52906126D01*
X157134146Y-53226450D01*
X156726450Y-53634146D01*
X156406126Y-54113545D01*
X156185482Y-54646225D01*
X156073000Y-55211716D01*
X156073000Y-55788284D01*
X156185482Y-56353775D01*
X156406126Y-56886455D01*
X156726450Y-57365854D01*
X157134146Y-57773550D01*
X157613545Y-58093874D01*
X158146225Y-58314518D01*
X158711716Y-58427000D01*
X159288284Y-58427000D01*
X159853775Y-58314518D01*
X160386455Y-58093874D01*
X160865854Y-57773550D01*
X161047404Y-57592000D01*
X162662596Y-57592000D01*
X162684146Y-57613550D01*
X163163545Y-57933874D01*
X163696225Y-58154518D01*
X164261716Y-58267000D01*
X164838284Y-58267000D01*
X165403775Y-58154518D01*
X165936455Y-57933874D01*
X166273716Y-57708523D01*
X167715192Y-59150000D01*
X164292192Y-62573000D01*
X164261716Y-62573000D01*
X163696225Y-62685482D01*
X163163545Y-62906126D01*
X162684146Y-63226450D01*
X162276450Y-63634146D01*
X161956126Y-64113545D01*
X161741863Y-64630820D01*
X161593874Y-64273545D01*
X161273550Y-63794146D01*
X160865854Y-63386450D01*
X160386455Y-63066126D01*
X159853775Y-62845482D01*
X159288284Y-62733000D01*
X158711716Y-62733000D01*
X158146225Y-62845482D01*
X157613545Y-63066126D01*
X157134146Y-63386450D01*
X156726450Y-63794146D01*
X156406126Y-64273545D01*
X156185482Y-64806225D01*
X156073000Y-65371716D01*
X156073000Y-65948284D01*
X156185482Y-66513775D01*
X156406126Y-67046455D01*
X156726450Y-67525854D01*
X157134146Y-67933550D01*
X157613545Y-68253874D01*
X158146225Y-68474518D01*
X158711716Y-68587000D01*
X159288284Y-68587000D01*
X159853775Y-68474518D01*
X160386455Y-68253874D01*
X160865854Y-67933550D01*
X161273550Y-67525854D01*
X161593874Y-67046455D01*
X161808137Y-66529180D01*
X161956126Y-66886455D01*
X162276450Y-67365854D01*
X162684146Y-67773550D01*
X163163545Y-68093874D01*
X163696225Y-68314518D01*
X164261716Y-68427000D01*
X164838284Y-68427000D01*
X165403775Y-68314518D01*
X165936455Y-68093874D01*
X166415854Y-67773550D01*
X166823550Y-67365854D01*
X167143874Y-66886455D01*
X167364518Y-66353775D01*
X167477000Y-65788284D01*
X167477000Y-65757808D01*
X170782810Y-62451999D01*
X174965502Y-62451999D01*
X174938972Y-62491704D01*
X174716444Y-63028933D01*
X174603000Y-63599253D01*
X174603000Y-64180747D01*
X174716444Y-64751067D01*
X174938972Y-65288296D01*
X175262032Y-65771790D01*
X175673210Y-66182968D01*
X176156704Y-66506028D01*
X176693933Y-66728556D01*
X177264253Y-66842000D01*
X177845747Y-66842000D01*
X178416067Y-66728556D01*
X178825000Y-66559170D01*
X179233933Y-66728556D01*
X179804253Y-66842000D01*
X180385747Y-66842000D01*
X180956067Y-66728556D01*
X181493296Y-66506028D01*
X181653000Y-66399317D01*
X181653000Y-67301809D01*
X181307077Y-67233000D01*
X180572923Y-67233000D01*
X179852874Y-67376227D01*
X179174604Y-67657176D01*
X178564176Y-68065050D01*
X178045050Y-68584176D01*
X177637176Y-69194604D01*
X177356227Y-69872874D01*
X177213000Y-70592923D01*
X177213000Y-71327077D01*
X177356227Y-72047126D01*
X177637176Y-72725396D01*
X178045050Y-73335824D01*
X178564176Y-73854950D01*
X179174604Y-74262824D01*
X179852874Y-74543773D01*
X180572923Y-74687000D01*
X181307077Y-74687000D01*
X181653000Y-74618191D01*
X181653001Y-99066190D01*
X168543995Y-112175197D01*
X168350235Y-111707420D01*
X168022951Y-111217604D01*
X167606396Y-110801049D01*
X167281559Y-110584000D01*
X167606396Y-110366951D01*
X168022951Y-109950396D01*
X168350235Y-109460580D01*
X168575673Y-108916326D01*
X168690600Y-108338548D01*
X168690600Y-107749452D01*
X168575673Y-107171674D01*
X168410951Y-106774000D01*
X168575673Y-106376326D01*
X168690600Y-105798548D01*
X168690600Y-105209452D01*
X168575673Y-104631674D01*
X168410951Y-104234000D01*
X168575673Y-103836326D01*
X168690600Y-103258548D01*
X168690600Y-102669452D01*
X168575673Y-102091674D01*
X168410951Y-101694000D01*
X168575673Y-101296326D01*
X168690600Y-100718548D01*
X168690600Y-100129452D01*
X168575673Y-99551674D01*
X168410951Y-99154000D01*
X168575673Y-98756326D01*
X168690600Y-98178548D01*
X168690600Y-97589452D01*
X168575673Y-97011674D01*
X168410951Y-96614000D01*
X168575673Y-96216326D01*
X168690600Y-95638548D01*
X168690600Y-95049452D01*
X168575673Y-94471674D01*
X168350235Y-93927420D01*
X168022951Y-93437604D01*
X167897347Y-93312000D01*
X168022951Y-93186396D01*
X168350235Y-92696580D01*
X168575673Y-92152326D01*
X168690600Y-91574548D01*
X168690600Y-90985452D01*
X168575673Y-90407674D01*
X168410951Y-90010000D01*
X168575673Y-89612326D01*
X168690600Y-89034548D01*
X168690600Y-88445452D01*
X168575673Y-87867674D01*
X168410951Y-87470000D01*
X168575673Y-87072326D01*
X168690600Y-86494548D01*
X168690600Y-85905452D01*
X168575673Y-85327674D01*
X168410951Y-84930000D01*
X168575673Y-84532326D01*
X168690600Y-83954548D01*
X168690600Y-83365452D01*
X168575673Y-82787674D01*
X168410951Y-82390000D01*
X168575673Y-81992326D01*
X168690600Y-81414548D01*
X168690600Y-80825452D01*
X168575673Y-80247674D01*
X168410951Y-79850000D01*
X168575673Y-79452326D01*
X168690600Y-78874548D01*
X168690600Y-78285452D01*
X168575673Y-77707674D01*
X168410951Y-77310000D01*
X168575673Y-76912326D01*
X168690600Y-76334548D01*
X168690600Y-75745452D01*
X168575673Y-75167674D01*
X168410951Y-74770000D01*
X168575673Y-74372326D01*
X168690600Y-73794548D01*
X168690600Y-73205452D01*
X168575673Y-72627674D01*
X168350235Y-72083420D01*
X168022951Y-71593604D01*
X167606396Y-71177049D01*
X167116580Y-70849765D01*
X166572326Y-70624327D01*
X165994548Y-70509400D01*
X165405452Y-70509400D01*
X164827674Y-70624327D01*
X164283420Y-70849765D01*
X163793604Y-71177049D01*
X163377049Y-71593604D01*
X163049765Y-72083420D01*
X162824327Y-72627674D01*
X162709400Y-73205452D01*
X162709400Y-73794548D01*
X162824327Y-74372326D01*
X162989049Y-74770000D01*
X162824327Y-75167674D01*
X162709400Y-75745452D01*
X162709400Y-76334548D01*
X162824327Y-76912326D01*
X162989049Y-77310000D01*
X162824327Y-77707674D01*
X162709400Y-78285452D01*
X162709400Y-78385792D01*
X160875794Y-80219399D01*
X147639229Y-80219399D01*
X147528601Y-80208503D01*
X147087132Y-80251984D01*
X146662628Y-80380756D01*
X146271403Y-80589870D01*
X146034457Y-80784327D01*
X145928492Y-80871290D01*
X145857971Y-80957220D01*
X142542192Y-84273000D01*
X142182168Y-84273000D01*
X141558719Y-84397012D01*
X140971442Y-84640270D01*
X140442907Y-84993425D01*
X139993425Y-85442907D01*
X139640270Y-85971442D01*
X139397012Y-86558719D01*
X139273000Y-87182168D01*
X139273000Y-87817832D01*
X139397012Y-88441281D01*
X139640270Y-89028558D01*
X139748000Y-89189788D01*
X139748001Y-90810211D01*
X139640270Y-90971442D01*
X139397012Y-91558719D01*
X139273000Y-92182168D01*
X139273000Y-92817832D01*
X139397012Y-93441281D01*
X139640270Y-94028558D01*
X139993425Y-94557093D01*
X140442907Y-95006575D01*
X140971442Y-95359730D01*
X141558719Y-95602988D01*
X142182168Y-95727000D01*
X142817832Y-95727000D01*
X143441281Y-95602988D01*
X144028558Y-95359730D01*
X144557093Y-95006575D01*
X145006575Y-94557093D01*
X145359730Y-94028558D01*
X145493042Y-93706712D01*
X146472893Y-93706712D01*
X146580726Y-93981338D01*
X146887384Y-94132216D01*
X147217585Y-94220369D01*
X147558639Y-94242409D01*
X147897439Y-94197489D01*
X148220966Y-94087336D01*
X148419274Y-93981338D01*
X148527107Y-93706712D01*
X147500000Y-92679605D01*
X146472893Y-93706712D01*
X145493042Y-93706712D01*
X145602988Y-93441281D01*
X145727000Y-92817832D01*
X145727000Y-92558639D01*
X145757591Y-92558639D01*
X145802511Y-92897439D01*
X145912664Y-93220966D01*
X146018662Y-93419274D01*
X146293288Y-93527107D01*
X147320395Y-92500000D01*
X147679605Y-92500000D01*
X148706712Y-93527107D01*
X148981338Y-93419274D01*
X149132216Y-93112616D01*
X149220369Y-92782415D01*
X149242409Y-92441361D01*
X149197489Y-92102561D01*
X149087336Y-91779034D01*
X148981338Y-91580726D01*
X148706712Y-91472893D01*
X147679605Y-92500000D01*
X147320395Y-92500000D01*
X146293288Y-91472893D01*
X146018662Y-91580726D01*
X145867784Y-91887384D01*
X145779631Y-92217585D01*
X145757591Y-92558639D01*
X145727000Y-92558639D01*
X145727000Y-92182168D01*
X145602988Y-91558719D01*
X145493043Y-91293288D01*
X146472893Y-91293288D01*
X147500000Y-92320395D01*
X148527107Y-91293288D01*
X148419274Y-91018662D01*
X148112616Y-90867784D01*
X147782415Y-90779631D01*
X147441361Y-90757591D01*
X147102561Y-90802511D01*
X146779034Y-90912664D01*
X146580726Y-91018662D01*
X146472893Y-91293288D01*
X145493043Y-91293288D01*
X145359730Y-90971442D01*
X145252000Y-90810212D01*
X145252000Y-89189788D01*
X145359730Y-89028558D01*
X145493042Y-88706712D01*
X146472893Y-88706712D01*
X146580726Y-88981338D01*
X146887384Y-89132216D01*
X147217585Y-89220369D01*
X147558639Y-89242409D01*
X147897439Y-89197489D01*
X148220966Y-89087336D01*
X148419274Y-88981338D01*
X148527107Y-88706712D01*
X147500000Y-87679605D01*
X146472893Y-88706712D01*
X145493042Y-88706712D01*
X145602988Y-88441281D01*
X145727000Y-87817832D01*
X145727000Y-87457808D01*
X145766671Y-87418137D01*
X145757591Y-87558639D01*
X145802511Y-87897439D01*
X145912664Y-88220966D01*
X146018662Y-88419274D01*
X146293288Y-88527107D01*
X147320395Y-87500000D01*
X147679605Y-87500000D01*
X148706712Y-88527107D01*
X148981338Y-88419274D01*
X149132216Y-88112616D01*
X149220369Y-87782415D01*
X149242409Y-87441361D01*
X149197489Y-87102561D01*
X149087336Y-86779034D01*
X148981338Y-86580726D01*
X148706712Y-86472893D01*
X147679605Y-87500000D01*
X147320395Y-87500000D01*
X147306253Y-87485858D01*
X147485858Y-87306253D01*
X147500000Y-87320395D01*
X148527107Y-86293288D01*
X148419274Y-86018662D01*
X148112616Y-85867784D01*
X147782415Y-85779631D01*
X147441361Y-85757591D01*
X147425055Y-85759753D01*
X148461410Y-84723399D01*
X161451792Y-84723399D01*
X139502192Y-106673001D01*
X129030660Y-106673001D01*
X128981338Y-106580726D01*
X128706712Y-106472893D01*
X128506604Y-106673001D01*
X128147394Y-106673001D01*
X128527107Y-106293288D01*
X128419274Y-106018662D01*
X128112616Y-105867784D01*
X127782415Y-105779631D01*
X127441361Y-105757591D01*
X127102561Y-105802511D01*
X126779034Y-105912664D01*
X126580726Y-106018662D01*
X126472893Y-106293288D01*
X126852606Y-106673001D01*
X126493396Y-106673001D01*
X126293288Y-106472893D01*
X126018662Y-106580726D01*
X125973262Y-106673001D01*
X125625720Y-106673001D01*
X125602988Y-106558719D01*
X125359730Y-105971442D01*
X125006575Y-105442907D01*
X124557093Y-104993425D01*
X124028558Y-104640270D01*
X123441281Y-104397012D01*
X122817832Y-104273000D01*
X122182168Y-104273000D01*
X121558719Y-104397012D01*
X120971442Y-104640270D01*
X120442907Y-104993425D01*
X119993425Y-105442907D01*
X119640270Y-105971442D01*
X119397012Y-106558719D01*
X119273000Y-107182168D01*
X119273000Y-107817832D01*
X119397012Y-108441281D01*
X119640270Y-109028558D01*
X119748000Y-109189788D01*
X119748001Y-110810211D01*
X119640270Y-110971442D01*
X119397012Y-111558719D01*
X119273000Y-112182168D01*
X119273000Y-112817832D01*
X119391188Y-113412000D01*
X99596809Y-113412000D01*
X85670639Y-99485832D01*
X85600109Y-99399891D01*
X85257198Y-99118471D01*
X84865973Y-98909357D01*
X84441469Y-98780585D01*
X84110629Y-98748000D01*
X84110621Y-98748000D01*
X84000000Y-98737105D01*
X83889379Y-98748000D01*
X83291619Y-98748000D01*
X83180998Y-98737105D01*
X83070377Y-98748000D01*
X83070369Y-98748000D01*
X82739529Y-98780585D01*
X82315025Y-98909357D01*
X81923800Y-99118471D01*
X81580889Y-99399891D01*
X81510368Y-99485821D01*
X75923420Y-105072770D01*
X75673209Y-105023000D01*
X75086791Y-105023000D01*
X74511641Y-105137405D01*
X73969862Y-105361817D01*
X73482273Y-105687613D01*
X73067613Y-106102273D01*
X72741817Y-106589862D01*
X72517405Y-107131641D01*
X72403000Y-107706791D01*
X72403000Y-108293209D01*
X72517405Y-108868359D01*
X72741817Y-109410138D01*
X73067613Y-109897727D01*
X73482273Y-110312387D01*
X73969862Y-110638183D01*
X74511641Y-110862595D01*
X75086791Y-110977000D01*
X75673209Y-110977000D01*
X76248359Y-110862595D01*
X76650000Y-110696230D01*
X77051641Y-110862595D01*
X77626791Y-110977000D01*
X78213209Y-110977000D01*
X78336420Y-110952492D01*
X78504627Y-111157453D01*
X78609641Y-111243636D01*
X88716367Y-121350364D01*
X88802546Y-121455373D01*
X88907553Y-121541550D01*
X88907554Y-121541551D01*
X89221592Y-121799275D01*
X89699678Y-122054818D01*
X90218433Y-122212180D01*
X90757919Y-122265315D01*
X90893108Y-122252000D01*
X99748001Y-122252000D01*
X99748000Y-126389379D01*
X99737105Y-126500000D01*
X99748000Y-126610621D01*
X99748000Y-126610628D01*
X99780585Y-126941468D01*
X99909357Y-127365972D01*
X100118471Y-127757198D01*
X100399891Y-128100109D01*
X100485832Y-128170639D01*
X107178919Y-134863727D01*
X107252776Y-135235035D01*
X107507341Y-135849609D01*
X107876913Y-136402712D01*
X108347288Y-136873087D01*
X108900391Y-137242659D01*
X109514965Y-137497224D01*
X110167395Y-137627000D01*
X110832605Y-137627000D01*
X111485035Y-137497224D01*
X112099609Y-137242659D01*
X112250000Y-137142171D01*
X112400391Y-137242659D01*
X113014965Y-137497224D01*
X113386274Y-137571082D01*
X113663192Y-137848000D01*
X70095835Y-137848000D01*
X69497182Y-137794572D01*
X69010248Y-137661361D01*
X68554607Y-137444033D01*
X68144645Y-137149445D01*
X67793335Y-136786921D01*
X67511774Y-136367914D01*
X67308863Y-135905669D01*
X67187040Y-135398241D01*
X67152000Y-134921088D01*
X67152000Y-133706712D01*
X86472893Y-133706712D01*
X86580726Y-133981338D01*
X86887384Y-134132216D01*
X87217585Y-134220369D01*
X87558639Y-134242409D01*
X87897439Y-134197489D01*
X88220966Y-134087336D01*
X88419274Y-133981338D01*
X88527107Y-133706712D01*
X87500000Y-132679605D01*
X86472893Y-133706712D01*
X67152000Y-133706712D01*
X67152000Y-132558639D01*
X85757591Y-132558639D01*
X85802511Y-132897439D01*
X85912664Y-133220966D01*
X86018662Y-133419274D01*
X86293288Y-133527107D01*
X87320395Y-132500000D01*
X87679605Y-132500000D01*
X88706712Y-133527107D01*
X88981338Y-133419274D01*
X89132216Y-133112616D01*
X89220369Y-132782415D01*
X89242409Y-132441361D01*
X89197489Y-132102561D01*
X89087336Y-131779034D01*
X88981338Y-131580726D01*
X88706712Y-131472893D01*
X87679605Y-132500000D01*
X87320395Y-132500000D01*
X86293288Y-131472893D01*
X86018662Y-131580726D01*
X85867784Y-131887384D01*
X85779631Y-132217585D01*
X85757591Y-132558639D01*
X67152000Y-132558639D01*
X67152000Y-131293288D01*
X86472893Y-131293288D01*
X87500000Y-132320395D01*
X88527107Y-131293288D01*
X88419274Y-131018662D01*
X88112616Y-130867784D01*
X87782415Y-130779631D01*
X87441361Y-130757591D01*
X87102561Y-130802511D01*
X86779034Y-130912664D01*
X86580726Y-131018662D01*
X86472893Y-131293288D01*
X67152000Y-131293288D01*
X67152000Y-128706712D01*
X86472893Y-128706712D01*
X86580726Y-128981338D01*
X86887384Y-129132216D01*
X87217585Y-129220369D01*
X87558639Y-129242409D01*
X87897439Y-129197489D01*
X88220966Y-129087336D01*
X88419274Y-128981338D01*
X88527107Y-128706712D01*
X87500000Y-127679605D01*
X86472893Y-128706712D01*
X67152000Y-128706712D01*
X67152000Y-127558639D01*
X85757591Y-127558639D01*
X85802511Y-127897439D01*
X85912664Y-128220966D01*
X86018662Y-128419274D01*
X86293288Y-128527107D01*
X87320395Y-127500000D01*
X87679605Y-127500000D01*
X88706712Y-128527107D01*
X88981338Y-128419274D01*
X89132216Y-128112616D01*
X89220369Y-127782415D01*
X89242409Y-127441361D01*
X89208044Y-127182168D01*
X89273000Y-127182168D01*
X89273000Y-127817832D01*
X89397012Y-128441281D01*
X89640270Y-129028558D01*
X89993425Y-129557093D01*
X90436332Y-130000000D01*
X89993425Y-130442907D01*
X89640270Y-130971442D01*
X89397012Y-131558719D01*
X89273000Y-132182168D01*
X89273000Y-132817832D01*
X89397012Y-133441281D01*
X89640270Y-134028558D01*
X89993425Y-134557093D01*
X90442907Y-135006575D01*
X90971442Y-135359730D01*
X91558719Y-135602988D01*
X92182168Y-135727000D01*
X92817832Y-135727000D01*
X93441281Y-135602988D01*
X94028558Y-135359730D01*
X94557093Y-135006575D01*
X95006575Y-134557093D01*
X95359730Y-134028558D01*
X95602988Y-133441281D01*
X95727000Y-132817832D01*
X95727000Y-132182168D01*
X95602988Y-131558719D01*
X95359730Y-130971442D01*
X95006575Y-130442907D01*
X94563668Y-130000000D01*
X95006575Y-129557093D01*
X95359730Y-129028558D01*
X95602988Y-128441281D01*
X95727000Y-127817832D01*
X95727000Y-127182168D01*
X95602988Y-126558719D01*
X95359730Y-125971442D01*
X95006575Y-125442907D01*
X94557093Y-124993425D01*
X94028558Y-124640270D01*
X93441281Y-124397012D01*
X92817832Y-124273000D01*
X92182168Y-124273000D01*
X91558719Y-124397012D01*
X90971442Y-124640270D01*
X90442907Y-124993425D01*
X89993425Y-125442907D01*
X89640270Y-125971442D01*
X89397012Y-126558719D01*
X89273000Y-127182168D01*
X89208044Y-127182168D01*
X89197489Y-127102561D01*
X89087336Y-126779034D01*
X88981338Y-126580726D01*
X88706712Y-126472893D01*
X87679605Y-127500000D01*
X87320395Y-127500000D01*
X86293288Y-126472893D01*
X86018662Y-126580726D01*
X85867784Y-126887384D01*
X85779631Y-127217585D01*
X85757591Y-127558639D01*
X67152000Y-127558639D01*
X67152000Y-126293288D01*
X86472893Y-126293288D01*
X87500000Y-127320395D01*
X88527107Y-126293288D01*
X88419274Y-126018662D01*
X88112616Y-125867784D01*
X87782415Y-125779631D01*
X87441361Y-125757591D01*
X87102561Y-125802511D01*
X86779034Y-125912664D01*
X86580726Y-126018662D01*
X86472893Y-126293288D01*
X67152000Y-126293288D01*
X67152000Y-87182168D01*
X99273000Y-87182168D01*
X99273000Y-87817832D01*
X99397012Y-88441281D01*
X99640270Y-89028558D01*
X99748000Y-89189788D01*
X99748001Y-90810211D01*
X99640270Y-90971442D01*
X99397012Y-91558719D01*
X99273000Y-92182168D01*
X99273000Y-92817832D01*
X99397012Y-93441281D01*
X99640270Y-94028558D01*
X99993425Y-94557093D01*
X100442907Y-95006575D01*
X100971442Y-95359730D01*
X101558719Y-95602988D01*
X102182168Y-95727000D01*
X102817832Y-95727000D01*
X103441281Y-95602988D01*
X104028558Y-95359730D01*
X104557093Y-95006575D01*
X105006575Y-94557093D01*
X105359730Y-94028558D01*
X105493042Y-93706712D01*
X106472893Y-93706712D01*
X106580726Y-93981338D01*
X106887384Y-94132216D01*
X107217585Y-94220369D01*
X107558639Y-94242409D01*
X107897439Y-94197489D01*
X108220966Y-94087336D01*
X108419274Y-93981338D01*
X108527107Y-93706712D01*
X107500000Y-92679605D01*
X106472893Y-93706712D01*
X105493042Y-93706712D01*
X105602988Y-93441281D01*
X105727000Y-92817832D01*
X105727000Y-92558639D01*
X105757591Y-92558639D01*
X105802511Y-92897439D01*
X105912664Y-93220966D01*
X106018662Y-93419274D01*
X106293288Y-93527107D01*
X107320395Y-92500000D01*
X107679605Y-92500000D01*
X108706712Y-93527107D01*
X108981338Y-93419274D01*
X109132216Y-93112616D01*
X109220369Y-92782415D01*
X109242409Y-92441361D01*
X109197489Y-92102561D01*
X109087336Y-91779034D01*
X108981338Y-91580726D01*
X108706712Y-91472893D01*
X107679605Y-92500000D01*
X107320395Y-92500000D01*
X106293288Y-91472893D01*
X106018662Y-91580726D01*
X105867784Y-91887384D01*
X105779631Y-92217585D01*
X105757591Y-92558639D01*
X105727000Y-92558639D01*
X105727000Y-92182168D01*
X105602988Y-91558719D01*
X105493043Y-91293288D01*
X106472893Y-91293288D01*
X107500000Y-92320395D01*
X108527107Y-91293288D01*
X108419274Y-91018662D01*
X108112616Y-90867784D01*
X107782415Y-90779631D01*
X107441361Y-90757591D01*
X107102561Y-90802511D01*
X106779034Y-90912664D01*
X106580726Y-91018662D01*
X106472893Y-91293288D01*
X105493043Y-91293288D01*
X105359730Y-90971442D01*
X105252000Y-90810212D01*
X105252000Y-89189788D01*
X105359730Y-89028558D01*
X105493042Y-88706712D01*
X106472893Y-88706712D01*
X106580726Y-88981338D01*
X106887384Y-89132216D01*
X107217585Y-89220369D01*
X107558639Y-89242409D01*
X107897439Y-89197489D01*
X108220966Y-89087336D01*
X108419274Y-88981338D01*
X108527107Y-88706712D01*
X107500000Y-87679605D01*
X106472893Y-88706712D01*
X105493042Y-88706712D01*
X105602988Y-88441281D01*
X105727000Y-87817832D01*
X105727000Y-87558639D01*
X105757591Y-87558639D01*
X105802511Y-87897439D01*
X105912664Y-88220966D01*
X106018662Y-88419274D01*
X106293288Y-88527107D01*
X107320395Y-87500000D01*
X107679605Y-87500000D01*
X108706712Y-88527107D01*
X108981338Y-88419274D01*
X109132216Y-88112616D01*
X109220369Y-87782415D01*
X109242409Y-87441361D01*
X109197489Y-87102561D01*
X109087336Y-86779034D01*
X108981338Y-86580726D01*
X108706712Y-86472893D01*
X107679605Y-87500000D01*
X107320395Y-87500000D01*
X106293288Y-86472893D01*
X106018662Y-86580726D01*
X105867784Y-86887384D01*
X105779631Y-87217585D01*
X105757591Y-87558639D01*
X105727000Y-87558639D01*
X105727000Y-87182168D01*
X105602988Y-86558719D01*
X105493043Y-86293288D01*
X106472893Y-86293288D01*
X107500000Y-87320395D01*
X108527107Y-86293288D01*
X108419274Y-86018662D01*
X108112616Y-85867784D01*
X107782415Y-85779631D01*
X107441361Y-85757591D01*
X107102561Y-85802511D01*
X106779034Y-85912664D01*
X106580726Y-86018662D01*
X106472893Y-86293288D01*
X105493043Y-86293288D01*
X105359730Y-85971442D01*
X105006575Y-85442907D01*
X104557093Y-84993425D01*
X104028558Y-84640270D01*
X103441281Y-84397012D01*
X102817832Y-84273000D01*
X102182168Y-84273000D01*
X101558719Y-84397012D01*
X100971442Y-84640270D01*
X100442907Y-84993425D01*
X99993425Y-85442907D01*
X99640270Y-85971442D01*
X99397012Y-86558719D01*
X99273000Y-87182168D01*
X67152000Y-87182168D01*
X67152000Y-67182168D01*
X119273000Y-67182168D01*
X119273000Y-67817832D01*
X119397012Y-68441281D01*
X119640270Y-69028558D01*
X119748000Y-69189788D01*
X119748001Y-70810211D01*
X119640270Y-70971442D01*
X119397012Y-71558719D01*
X119273000Y-72182168D01*
X119273000Y-72817832D01*
X119397012Y-73441281D01*
X119640270Y-74028558D01*
X119993425Y-74557093D01*
X120248000Y-74811668D01*
X120248001Y-82678281D01*
X120037151Y-82889131D01*
X119760602Y-83303017D01*
X119570111Y-83762901D01*
X119473000Y-84251112D01*
X119473000Y-84748888D01*
X119570111Y-85237099D01*
X119760602Y-85696983D01*
X120037151Y-86110869D01*
X120389131Y-86462849D01*
X120803017Y-86739398D01*
X121262901Y-86929889D01*
X121751112Y-87027000D01*
X122248888Y-87027000D01*
X122737099Y-86929889D01*
X123196983Y-86739398D01*
X123610869Y-86462849D01*
X123962849Y-86110869D01*
X124239398Y-85696983D01*
X124429889Y-85237099D01*
X124452185Y-85125010D01*
X124590643Y-84865973D01*
X124719415Y-84441469D01*
X124752000Y-84110629D01*
X124762896Y-84000000D01*
X124752000Y-83889372D01*
X124752000Y-74811668D01*
X125006575Y-74557093D01*
X125359730Y-74028558D01*
X125493042Y-73706712D01*
X126472893Y-73706712D01*
X126580726Y-73981338D01*
X126887384Y-74132216D01*
X127217585Y-74220369D01*
X127558639Y-74242409D01*
X127897439Y-74197489D01*
X128220966Y-74087336D01*
X128419274Y-73981338D01*
X128527107Y-73706712D01*
X127500000Y-72679605D01*
X126472893Y-73706712D01*
X125493042Y-73706712D01*
X125602988Y-73441281D01*
X125727000Y-72817832D01*
X125727000Y-72558639D01*
X125757591Y-72558639D01*
X125802511Y-72897439D01*
X125912664Y-73220966D01*
X126018662Y-73419274D01*
X126293288Y-73527107D01*
X127320395Y-72500000D01*
X127679605Y-72500000D01*
X128706712Y-73527107D01*
X128981338Y-73419274D01*
X129132216Y-73112616D01*
X129220369Y-72782415D01*
X129242409Y-72441361D01*
X129197489Y-72102561D01*
X129087336Y-71779034D01*
X128981338Y-71580726D01*
X128706712Y-71472893D01*
X127679605Y-72500000D01*
X127320395Y-72500000D01*
X126293288Y-71472893D01*
X126018662Y-71580726D01*
X125867784Y-71887384D01*
X125779631Y-72217585D01*
X125757591Y-72558639D01*
X125727000Y-72558639D01*
X125727000Y-72182168D01*
X125602988Y-71558719D01*
X125493043Y-71293288D01*
X126472893Y-71293288D01*
X127500000Y-72320395D01*
X128527107Y-71293288D01*
X128419274Y-71018662D01*
X128112616Y-70867784D01*
X127782415Y-70779631D01*
X127441361Y-70757591D01*
X127102561Y-70802511D01*
X126779034Y-70912664D01*
X126580726Y-71018662D01*
X126472893Y-71293288D01*
X125493043Y-71293288D01*
X125359730Y-70971442D01*
X125252000Y-70810212D01*
X125252000Y-69189788D01*
X125359730Y-69028558D01*
X125493042Y-68706712D01*
X126472893Y-68706712D01*
X126580726Y-68981338D01*
X126887384Y-69132216D01*
X127217585Y-69220369D01*
X127558639Y-69242409D01*
X127897439Y-69197489D01*
X128220966Y-69087336D01*
X128419274Y-68981338D01*
X128527107Y-68706712D01*
X127500000Y-67679605D01*
X126472893Y-68706712D01*
X125493042Y-68706712D01*
X125602988Y-68441281D01*
X125727000Y-67817832D01*
X125727000Y-67558639D01*
X125757591Y-67558639D01*
X125802511Y-67897439D01*
X125912664Y-68220966D01*
X126018662Y-68419274D01*
X126293288Y-68527107D01*
X127320395Y-67500000D01*
X127679605Y-67500000D01*
X128706712Y-68527107D01*
X128981338Y-68419274D01*
X129132216Y-68112616D01*
X129220369Y-67782415D01*
X129242409Y-67441361D01*
X129197489Y-67102561D01*
X129087336Y-66779034D01*
X128981338Y-66580726D01*
X128706712Y-66472893D01*
X127679605Y-67500000D01*
X127320395Y-67500000D01*
X126293288Y-66472893D01*
X126018662Y-66580726D01*
X125867784Y-66887384D01*
X125779631Y-67217585D01*
X125757591Y-67558639D01*
X125727000Y-67558639D01*
X125727000Y-67182168D01*
X125602988Y-66558719D01*
X125493043Y-66293288D01*
X126472893Y-66293288D01*
X127500000Y-67320395D01*
X128527107Y-66293288D01*
X128419274Y-66018662D01*
X128112616Y-65867784D01*
X127782415Y-65779631D01*
X127441361Y-65757591D01*
X127102561Y-65802511D01*
X126779034Y-65912664D01*
X126580726Y-66018662D01*
X126472893Y-66293288D01*
X125493043Y-66293288D01*
X125359730Y-65971442D01*
X125006575Y-65442907D01*
X124557093Y-64993425D01*
X124028558Y-64640270D01*
X123441281Y-64397012D01*
X122817832Y-64273000D01*
X122182168Y-64273000D01*
X121558719Y-64397012D01*
X120971442Y-64640270D01*
X120442907Y-64993425D01*
X119993425Y-65442907D01*
X119640270Y-65971442D01*
X119397012Y-66558719D01*
X119273000Y-67182168D01*
X67152000Y-67182168D01*
X67152000Y-50095836D01*
X67205429Y-49497180D01*
X67338638Y-49010248D01*
X67555967Y-48554608D01*
X67850555Y-48144645D01*
X68213079Y-47793335D01*
X68632086Y-47511774D01*
X69094331Y-47308863D01*
X69601759Y-47187040D01*
X70078913Y-47152000D01*
X229904164Y-47152000D01*
X230502820Y-47205429D01*
G36*
X105068245Y-122887002D02*
G01*
X105023000Y-123346383D01*
X105023000Y-125153618D01*
X105068245Y-125612999D01*
X105247050Y-126202441D01*
X105537414Y-126745674D01*
X105928179Y-127221821D01*
X106404327Y-127612586D01*
X106947560Y-127902950D01*
X107537002Y-128081755D01*
X108150000Y-128142130D01*
X108762999Y-128081755D01*
X109352441Y-127902950D01*
X109895674Y-127612586D01*
X110371821Y-127221821D01*
X110762586Y-126745674D01*
X111052950Y-126202441D01*
X111231755Y-125612999D01*
X111277000Y-125153617D01*
X111277000Y-123346382D01*
X111231755Y-122887001D01*
X111228721Y-122877000D01*
X116771279Y-122877000D01*
X116768245Y-122887002D01*
X116723000Y-123346383D01*
X116723000Y-125153618D01*
X116768245Y-125612999D01*
X116947050Y-126202441D01*
X117237414Y-126745674D01*
X117628179Y-127221821D01*
X118104327Y-127612586D01*
X118647560Y-127902950D01*
X119237002Y-128081755D01*
X119850000Y-128142130D01*
X120462999Y-128081755D01*
X121052441Y-127902950D01*
X121595674Y-127612586D01*
X122071821Y-127221821D01*
X122462586Y-126745674D01*
X122752950Y-126202441D01*
X122931755Y-125612999D01*
X122977000Y-125153617D01*
X122977000Y-123346382D01*
X122931755Y-122887001D01*
X122928721Y-122877000D01*
X126248001Y-122877000D01*
X126248000Y-126389379D01*
X126237105Y-126500000D01*
X126248000Y-126610621D01*
X126248000Y-126610628D01*
X126280585Y-126941468D01*
X126409357Y-127365972D01*
X126492461Y-127521450D01*
X126248888Y-127473000D01*
X125751112Y-127473000D01*
X125262901Y-127570111D01*
X124803017Y-127760602D01*
X124389131Y-128037151D01*
X124037151Y-128389131D01*
X123760602Y-128803017D01*
X123570111Y-129262901D01*
X123473000Y-129751112D01*
X123473000Y-130248888D01*
X123570111Y-130737099D01*
X123760602Y-131196983D01*
X124037151Y-131610869D01*
X124389131Y-131962849D01*
X124803017Y-132239398D01*
X125262901Y-132429889D01*
X125751112Y-132527000D01*
X126248888Y-132527000D01*
X126737099Y-132429889D01*
X127196983Y-132239398D01*
X127610869Y-131962849D01*
X127962849Y-131610869D01*
X128239398Y-131196983D01*
X128429889Y-130737099D01*
X128527000Y-130248888D01*
X128527000Y-129751112D01*
X128517241Y-129702048D01*
X132873000Y-134057808D01*
X132873000Y-134582605D01*
X133002776Y-135235035D01*
X133215253Y-135748000D01*
X118553931Y-135748000D01*
X118634000Y-135563605D01*
X117500000Y-134429605D01*
X117485858Y-134443748D01*
X117377000Y-134334890D01*
X117377000Y-134250000D01*
X117679605Y-134250000D01*
X118813605Y-135384000D01*
X119103577Y-135258086D01*
X119269433Y-134925874D01*
X119367290Y-134567688D01*
X119393389Y-134197294D01*
X119346725Y-133828925D01*
X119229094Y-133476738D01*
X119103577Y-133241914D01*
X118813605Y-133116000D01*
X117679605Y-134250000D01*
X117377000Y-134250000D01*
X117377000Y-134165110D01*
X117485858Y-134056253D01*
X117500000Y-134070395D01*
X118634000Y-132936395D01*
X118508086Y-132646423D01*
X118175874Y-132480567D01*
X117817688Y-132382710D01*
X117447294Y-132356611D01*
X117078925Y-132403275D01*
X116873407Y-132471918D01*
X116623087Y-132097288D01*
X116152712Y-131626913D01*
X115599609Y-131257341D01*
X114985035Y-131002776D01*
X114332605Y-130873000D01*
X113667395Y-130873000D01*
X113014965Y-131002776D01*
X112400391Y-131257341D01*
X112250000Y-131357829D01*
X112099609Y-131257341D01*
X111485035Y-131002776D01*
X110832605Y-130873000D01*
X110167395Y-130873000D01*
X109658945Y-130974137D01*
X104252000Y-125567193D01*
X104252000Y-122877000D01*
X105071279Y-122877000D01*
X105068245Y-122887002D01*
G37*
X105068245Y-122887002D02*
X105023000Y-123346383D01*
X105023000Y-125153618D01*
X105068245Y-125612999D01*
X105247050Y-126202441D01*
X105537414Y-126745674D01*
X105928179Y-127221821D01*
X106404327Y-127612586D01*
X106947560Y-127902950D01*
X107537002Y-128081755D01*
X108150000Y-128142130D01*
X108762999Y-128081755D01*
X109352441Y-127902950D01*
X109895674Y-127612586D01*
X110371821Y-127221821D01*
X110762586Y-126745674D01*
X111052950Y-126202441D01*
X111231755Y-125612999D01*
X111277000Y-125153617D01*
X111277000Y-123346382D01*
X111231755Y-122887001D01*
X111228721Y-122877000D01*
X116771279Y-122877000D01*
X116768245Y-122887002D01*
X116723000Y-123346383D01*
X116723000Y-125153618D01*
X116768245Y-125612999D01*
X116947050Y-126202441D01*
X117237414Y-126745674D01*
X117628179Y-127221821D01*
X118104327Y-127612586D01*
X118647560Y-127902950D01*
X119237002Y-128081755D01*
X119850000Y-128142130D01*
X120462999Y-128081755D01*
X121052441Y-127902950D01*
X121595674Y-127612586D01*
X122071821Y-127221821D01*
X122462586Y-126745674D01*
X122752950Y-126202441D01*
X122931755Y-125612999D01*
X122977000Y-125153617D01*
X122977000Y-123346382D01*
X122931755Y-122887001D01*
X122928721Y-122877000D01*
X126248001Y-122877000D01*
X126248000Y-126389379D01*
X126237105Y-126500000D01*
X126248000Y-126610621D01*
X126248000Y-126610628D01*
X126280585Y-126941468D01*
X126409357Y-127365972D01*
X126492461Y-127521450D01*
X126248888Y-127473000D01*
X125751112Y-127473000D01*
X125262901Y-127570111D01*
X124803017Y-127760602D01*
X124389131Y-128037151D01*
X124037151Y-128389131D01*
X123760602Y-128803017D01*
X123570111Y-129262901D01*
X123473000Y-129751112D01*
X123473000Y-130248888D01*
X123570111Y-130737099D01*
X123760602Y-131196983D01*
X124037151Y-131610869D01*
X124389131Y-131962849D01*
X124803017Y-132239398D01*
X125262901Y-132429889D01*
X125751112Y-132527000D01*
X126248888Y-132527000D01*
X126737099Y-132429889D01*
X127196983Y-132239398D01*
X127610869Y-131962849D01*
X127962849Y-131610869D01*
X128239398Y-131196983D01*
X128429889Y-130737099D01*
X128527000Y-130248888D01*
X128527000Y-129751112D01*
X128517241Y-129702048D01*
X132873000Y-134057808D01*
X132873000Y-134582605D01*
X133002776Y-135235035D01*
X133215253Y-135748000D01*
X118553931Y-135748000D01*
X118634000Y-135563605D01*
X117500000Y-134429605D01*
X117485858Y-134443748D01*
X117377000Y-134334890D01*
X117377000Y-134250000D01*
X117679605Y-134250000D01*
X118813605Y-135384000D01*
X119103577Y-135258086D01*
X119269433Y-134925874D01*
X119367290Y-134567688D01*
X119393389Y-134197294D01*
X119346725Y-133828925D01*
X119229094Y-133476738D01*
X119103577Y-133241914D01*
X118813605Y-133116000D01*
X117679605Y-134250000D01*
X117377000Y-134250000D01*
X117377000Y-134165110D01*
X117485858Y-134056253D01*
X117500000Y-134070395D01*
X118634000Y-132936395D01*
X118508086Y-132646423D01*
X118175874Y-132480567D01*
X117817688Y-132382710D01*
X117447294Y-132356611D01*
X117078925Y-132403275D01*
X116873407Y-132471918D01*
X116623087Y-132097288D01*
X116152712Y-131626913D01*
X115599609Y-131257341D01*
X114985035Y-131002776D01*
X114332605Y-130873000D01*
X113667395Y-130873000D01*
X113014965Y-131002776D01*
X112400391Y-131257341D01*
X112250000Y-131357829D01*
X112099609Y-131257341D01*
X111485035Y-131002776D01*
X110832605Y-130873000D01*
X110167395Y-130873000D01*
X109658945Y-130974137D01*
X104252000Y-125567193D01*
X104252000Y-122877000D01*
X105071279Y-122877000D01*
X105068245Y-122887002D01*
G36*
X210969400Y-106225452D02*
G01*
X210969400Y-106814548D01*
X211017865Y-107058196D01*
X183328063Y-134748000D01*
X145068028Y-134748000D01*
X145117290Y-134567688D01*
X145143389Y-134197294D01*
X145096725Y-133828925D01*
X144979094Y-133476738D01*
X144853577Y-133241914D01*
X144563605Y-133116000D01*
X143429605Y-134250000D01*
X143443748Y-134264143D01*
X143264143Y-134443748D01*
X143250000Y-134429605D01*
X143235858Y-134443748D01*
X143127000Y-134334890D01*
X143127000Y-134165110D01*
X143235858Y-134056253D01*
X143250000Y-134070395D01*
X144384000Y-132936395D01*
X144258086Y-132646423D01*
X143925874Y-132480567D01*
X143567688Y-132382710D01*
X143197294Y-132356611D01*
X142828925Y-132403275D01*
X142623407Y-132471918D01*
X142373087Y-132097288D01*
X141902712Y-131626913D01*
X141349609Y-131257341D01*
X140735035Y-131002776D01*
X140082605Y-130873000D01*
X139417395Y-130873000D01*
X138764965Y-131002776D01*
X138150391Y-131257341D01*
X138000000Y-131357829D01*
X137849609Y-131257341D01*
X137235035Y-131002776D01*
X136582605Y-130873000D01*
X136057808Y-130873000D01*
X133257663Y-128072855D01*
X133287002Y-128081755D01*
X133900000Y-128142130D01*
X134512999Y-128081755D01*
X135102441Y-127902950D01*
X135645674Y-127612586D01*
X136121821Y-127221821D01*
X136512586Y-126745674D01*
X136802950Y-126202441D01*
X136981755Y-125612999D01*
X137027000Y-125153617D01*
X137027000Y-123346382D01*
X136981755Y-122887001D01*
X136978721Y-122877000D01*
X142521279Y-122877000D01*
X142518245Y-122887002D01*
X142473000Y-123346383D01*
X142473000Y-125153618D01*
X142518245Y-125612999D01*
X142697050Y-126202441D01*
X142987414Y-126745674D01*
X143378179Y-127221821D01*
X143854327Y-127612586D01*
X144397560Y-127902950D01*
X144987002Y-128081755D01*
X145600000Y-128142130D01*
X146212999Y-128081755D01*
X146802441Y-127902950D01*
X147345674Y-127612586D01*
X147821821Y-127221821D01*
X148212586Y-126745674D01*
X148502950Y-126202441D01*
X148681755Y-125612999D01*
X148685281Y-125577196D01*
X149143446Y-126035361D01*
X149229628Y-126140374D01*
X149648674Y-126484276D01*
X150126761Y-126739819D01*
X150613219Y-126887384D01*
X150645515Y-126897181D01*
X151185001Y-126950316D01*
X151320190Y-126937001D01*
X188539810Y-126937001D01*
X188674999Y-126950316D01*
X188810188Y-126937001D01*
X189214485Y-126897181D01*
X189733239Y-126739819D01*
X190211326Y-126484276D01*
X190630372Y-126140374D01*
X190716558Y-126035356D01*
X211079382Y-105672533D01*
X210969400Y-106225452D01*
G37*
X210969400Y-106225452D02*
X210969400Y-106814548D01*
X211017865Y-107058196D01*
X183328063Y-134748000D01*
X145068028Y-134748000D01*
X145117290Y-134567688D01*
X145143389Y-134197294D01*
X145096725Y-133828925D01*
X144979094Y-133476738D01*
X144853577Y-133241914D01*
X144563605Y-133116000D01*
X143429605Y-134250000D01*
X143443748Y-134264143D01*
X143264143Y-134443748D01*
X143250000Y-134429605D01*
X143235858Y-134443748D01*
X143127000Y-134334890D01*
X143127000Y-134165110D01*
X143235858Y-134056253D01*
X143250000Y-134070395D01*
X144384000Y-132936395D01*
X144258086Y-132646423D01*
X143925874Y-132480567D01*
X143567688Y-132382710D01*
X143197294Y-132356611D01*
X142828925Y-132403275D01*
X142623407Y-132471918D01*
X142373087Y-132097288D01*
X141902712Y-131626913D01*
X141349609Y-131257341D01*
X140735035Y-131002776D01*
X140082605Y-130873000D01*
X139417395Y-130873000D01*
X138764965Y-131002776D01*
X138150391Y-131257341D01*
X138000000Y-131357829D01*
X137849609Y-131257341D01*
X137235035Y-131002776D01*
X136582605Y-130873000D01*
X136057808Y-130873000D01*
X133257663Y-128072855D01*
X133287002Y-128081755D01*
X133900000Y-128142130D01*
X134512999Y-128081755D01*
X135102441Y-127902950D01*
X135645674Y-127612586D01*
X136121821Y-127221821D01*
X136512586Y-126745674D01*
X136802950Y-126202441D01*
X136981755Y-125612999D01*
X137027000Y-125153617D01*
X137027000Y-123346382D01*
X136981755Y-122887001D01*
X136978721Y-122877000D01*
X142521279Y-122877000D01*
X142518245Y-122887002D01*
X142473000Y-123346383D01*
X142473000Y-125153618D01*
X142518245Y-125612999D01*
X142697050Y-126202441D01*
X142987414Y-126745674D01*
X143378179Y-127221821D01*
X143854327Y-127612586D01*
X144397560Y-127902950D01*
X144987002Y-128081755D01*
X145600000Y-128142130D01*
X146212999Y-128081755D01*
X146802441Y-127902950D01*
X147345674Y-127612586D01*
X147821821Y-127221821D01*
X148212586Y-126745674D01*
X148502950Y-126202441D01*
X148681755Y-125612999D01*
X148685281Y-125577196D01*
X149143446Y-126035361D01*
X149229628Y-126140374D01*
X149648674Y-126484276D01*
X150126761Y-126739819D01*
X150613219Y-126887384D01*
X150645515Y-126897181D01*
X151185001Y-126950316D01*
X151320190Y-126937001D01*
X188539810Y-126937001D01*
X188674999Y-126950316D01*
X188810188Y-126937001D01*
X189214485Y-126897181D01*
X189733239Y-126739819D01*
X190211326Y-126484276D01*
X190630372Y-126140374D01*
X190716558Y-126035356D01*
X211079382Y-105672533D01*
X210969400Y-106225452D01*
G36*
X162908848Y-119280378D02*
G01*
X162805050Y-119384176D01*
X162397176Y-119994604D01*
X162116227Y-120672874D01*
X161973000Y-121392923D01*
X161973000Y-121433001D01*
X152324916Y-121433001D01*
X150143914Y-119252000D01*
X162897094Y-119252000D01*
X162908848Y-119280378D01*
G37*
X162908848Y-119280378D02*
X162805050Y-119384176D01*
X162397176Y-119994604D01*
X162116227Y-120672874D01*
X161973000Y-121392923D01*
X161973000Y-121433001D01*
X152324916Y-121433001D01*
X150143914Y-119252000D01*
X162897094Y-119252000D01*
X162908848Y-119280378D01*
G36*
X162989049Y-90010000D02*
G01*
X162824327Y-90407674D01*
X162709400Y-90985452D01*
X162709400Y-91574548D01*
X162824327Y-92152326D01*
X163049765Y-92696580D01*
X163377049Y-93186396D01*
X163502653Y-93312000D01*
X163377049Y-93437604D01*
X163049765Y-93927420D01*
X162824327Y-94471674D01*
X162709400Y-95049452D01*
X162709400Y-95638548D01*
X162824327Y-96216326D01*
X162989049Y-96614000D01*
X162824327Y-97011674D01*
X162709400Y-97589452D01*
X162709400Y-98178548D01*
X162824327Y-98756326D01*
X162989049Y-99154000D01*
X162824327Y-99551674D01*
X162709400Y-100129452D01*
X162709400Y-100718548D01*
X162824327Y-101296326D01*
X162989049Y-101694000D01*
X162824327Y-102091674D01*
X162709400Y-102669452D01*
X162709400Y-103258548D01*
X162824327Y-103836326D01*
X162989049Y-104234000D01*
X162824327Y-104631674D01*
X162709400Y-105209452D01*
X162709400Y-105798548D01*
X162824327Y-106376326D01*
X162989049Y-106774000D01*
X162824327Y-107171674D01*
X162709400Y-107749452D01*
X162709400Y-108338548D01*
X162824327Y-108916326D01*
X163049765Y-109460580D01*
X163377049Y-109950396D01*
X163793604Y-110366951D01*
X164118441Y-110584000D01*
X163793604Y-110801049D01*
X163377049Y-111217604D01*
X163049765Y-111707420D01*
X162824327Y-112251674D01*
X162709400Y-112829452D01*
X162709400Y-113412000D01*
X128984917Y-113412000D01*
X129132216Y-113112616D01*
X129220369Y-112782415D01*
X129242409Y-112441361D01*
X129197489Y-112102561D01*
X129087336Y-111779034D01*
X128981338Y-111580726D01*
X128706712Y-111472893D01*
X127679605Y-112500000D01*
X127693748Y-112514143D01*
X127514143Y-112693748D01*
X127500000Y-112679605D01*
X127485858Y-112693748D01*
X127306253Y-112514143D01*
X127320395Y-112500000D01*
X126293288Y-111472893D01*
X126018662Y-111580726D01*
X125867784Y-111887384D01*
X125779631Y-112217585D01*
X125757591Y-112558639D01*
X125802511Y-112897439D01*
X125912664Y-113220966D01*
X126014774Y-113412000D01*
X125608812Y-113412000D01*
X125727000Y-112817832D01*
X125727000Y-112182168D01*
X125602988Y-111558719D01*
X125444875Y-111177001D01*
X126518554Y-111177001D01*
X126472893Y-111293288D01*
X127500000Y-112320395D01*
X128527107Y-111293288D01*
X128481446Y-111177001D01*
X140324378Y-111177001D01*
X140434999Y-111187896D01*
X140545620Y-111177001D01*
X140545628Y-111177001D01*
X140876468Y-111144416D01*
X141300972Y-111015644D01*
X141692197Y-110806530D01*
X142035108Y-110525110D01*
X142105638Y-110439169D01*
X162856005Y-89688804D01*
X162989049Y-90010000D01*
G37*
X162989049Y-90010000D02*
X162824327Y-90407674D01*
X162709400Y-90985452D01*
X162709400Y-91574548D01*
X162824327Y-92152326D01*
X163049765Y-92696580D01*
X163377049Y-93186396D01*
X163502653Y-93312000D01*
X163377049Y-93437604D01*
X163049765Y-93927420D01*
X162824327Y-94471674D01*
X162709400Y-95049452D01*
X162709400Y-95638548D01*
X162824327Y-96216326D01*
X162989049Y-96614000D01*
X162824327Y-97011674D01*
X162709400Y-97589452D01*
X162709400Y-98178548D01*
X162824327Y-98756326D01*
X162989049Y-99154000D01*
X162824327Y-99551674D01*
X162709400Y-100129452D01*
X162709400Y-100718548D01*
X162824327Y-101296326D01*
X162989049Y-101694000D01*
X162824327Y-102091674D01*
X162709400Y-102669452D01*
X162709400Y-103258548D01*
X162824327Y-103836326D01*
X162989049Y-104234000D01*
X162824327Y-104631674D01*
X162709400Y-105209452D01*
X162709400Y-105798548D01*
X162824327Y-106376326D01*
X162989049Y-106774000D01*
X162824327Y-107171674D01*
X162709400Y-107749452D01*
X162709400Y-108338548D01*
X162824327Y-108916326D01*
X163049765Y-109460580D01*
X163377049Y-109950396D01*
X163793604Y-110366951D01*
X164118441Y-110584000D01*
X163793604Y-110801049D01*
X163377049Y-111217604D01*
X163049765Y-111707420D01*
X162824327Y-112251674D01*
X162709400Y-112829452D01*
X162709400Y-113412000D01*
X128984917Y-113412000D01*
X129132216Y-113112616D01*
X129220369Y-112782415D01*
X129242409Y-112441361D01*
X129197489Y-112102561D01*
X129087336Y-111779034D01*
X128981338Y-111580726D01*
X128706712Y-111472893D01*
X127679605Y-112500000D01*
X127693748Y-112514143D01*
X127514143Y-112693748D01*
X127500000Y-112679605D01*
X127485858Y-112693748D01*
X127306253Y-112514143D01*
X127320395Y-112500000D01*
X126293288Y-111472893D01*
X126018662Y-111580726D01*
X125867784Y-111887384D01*
X125779631Y-112217585D01*
X125757591Y-112558639D01*
X125802511Y-112897439D01*
X125912664Y-113220966D01*
X126014774Y-113412000D01*
X125608812Y-113412000D01*
X125727000Y-112817832D01*
X125727000Y-112182168D01*
X125602988Y-111558719D01*
X125444875Y-111177001D01*
X126518554Y-111177001D01*
X126472893Y-111293288D01*
X127500000Y-112320395D01*
X128527107Y-111293288D01*
X128481446Y-111177001D01*
X140324378Y-111177001D01*
X140434999Y-111187896D01*
X140545620Y-111177001D01*
X140545628Y-111177001D01*
X140876468Y-111144416D01*
X141300972Y-111015644D01*
X141692197Y-110806530D01*
X142035108Y-110525110D01*
X142105638Y-110439169D01*
X162856005Y-89688804D01*
X162989049Y-90010000D01*
M02*
